<svg width="281" height="55" viewBox="0 0 281 55" fill="none" xmlns="http://www.w3.org/2000/svg">
<g clip-path="url(#clip0_136_240)">
<path d="M75.603 4.60392H82.7202C83.3708 4.58025 84.0131 4.75544 84.5616 5.10612C85.0331 5.41721 85.3719 5.89269 85.512 6.43993L90.5178 25.4587C90.687 26.0743 90.8544 26.7331 91.02 27.4351C91.1914 28.1608 91.3159 28.8967 91.3926 29.6383C91.56 28.8553 91.7436 28.1155 91.9326 27.4243C92.1216 26.7331 92.3268 26.0743 92.5104 25.4587L98.4234 6.43993C98.6093 5.93005 98.9466 5.48916 99.39 5.17633C99.9091 4.80232 100.538 4.61228 101.177 4.63633H103.678C104.318 4.61027 104.951 4.77979 105.492 5.12233C105.961 5.43731 106.309 5.90172 106.48 6.43993L112.339 25.4479C112.523 26.0311 112.712 26.6521 112.912 27.3109C113.111 27.9697 113.29 28.6771 113.452 29.4277C113.581 28.6933 113.722 27.9913 113.862 27.3271C114.002 26.6629 114.148 26.0311 114.299 25.4479L119.294 6.43993C119.458 5.91999 119.793 5.47082 120.245 5.16553C120.772 4.79469 121.405 4.60517 122.048 4.62553H128.701L117.442 41.0647H109.785L102.927 18.4657C102.814 18.1147 102.689 17.7313 102.565 17.3155C102.441 16.8997 102.322 16.4569 102.203 15.9871C102.085 16.4569 101.966 16.8997 101.842 17.3155C101.717 17.7313 101.593 18.1147 101.48 18.4657L94.5192 41.0647H86.862L75.603 4.60392Z" fill="#091331"/>
<path d="M143.2 14.7128C145.041 14.6784 146.872 14.986 148.6 15.62C150.172 16.1962 151.599 17.1062 152.785 18.2873C153.971 19.4685 154.887 20.8927 155.469 22.4618C156.138 24.2441 156.464 26.1367 156.43 28.04C156.458 29.9486 156.13 31.8457 155.464 33.6344C154.884 35.2096 153.97 36.6409 152.785 37.8302C151.601 39.0195 150.173 39.9387 148.6 40.5248C146.875 41.1724 145.043 41.4911 143.2 41.4644C141.358 41.4864 139.527 41.1678 137.8 40.5248C136.225 39.9271 134.793 39.0075 133.594 37.8248C132.403 36.6237 131.482 35.1821 130.894 33.5966C130.224 31.8212 129.889 29.9373 129.905 28.04C129.876 26.1494 130.203 24.2701 130.867 22.4996C131.459 20.927 132.379 19.4985 133.567 18.3092C134.774 17.1259 136.216 16.2096 137.8 15.62C139.53 14.9907 141.36 14.6832 143.2 14.7128ZM143.2 35.708C145 35.708 146.314 35.078 147.142 33.818C147.97 32.558 148.391 30.6446 148.406 28.0778C148.406 25.5074 147.985 23.5958 147.142 22.343C146.3 21.0902 144.986 20.4692 143.2 20.48C141.364 20.48 140.025 21.1064 139.172 22.3538C138.319 23.6012 137.897 25.5182 137.897 28.0886C137.897 30.659 138.324 32.5706 139.172 33.8288C140.02 35.087 141.38 35.708 143.2 35.708Z" fill="#091331"/>
<path d="M161.636 41.0648V15.1124H166.237C166.562 15.1076 166.886 15.142 167.203 15.215C167.44 15.2705 167.661 15.3774 167.851 15.5282C168.029 15.6701 168.167 15.8563 168.251 16.0682C168.356 16.3447 168.435 16.6303 168.488 16.9214L168.915 19.346C169.755 17.9963 170.841 16.8166 172.117 15.8684C173.24 15.0359 174.602 14.5889 176 14.594C177.018 14.5516 178.02 14.8583 178.84 15.4634L177.836 21.1712C177.821 21.314 177.778 21.4525 177.71 21.5786C177.641 21.7047 177.548 21.8158 177.436 21.9056C177.2 22.0612 176.92 22.1369 176.637 22.1216C176.301 22.1159 175.967 22.0779 175.638 22.0082C175.158 21.9247 174.672 21.8867 174.185 21.8948C172.151 21.8948 170.549 22.9748 169.379 25.1348V41.054L161.636 41.0648Z" fill="#091331"/>
<path d="M191.012 3.60498V24.5948H192.162C192.543 24.6157 192.924 24.5473 193.274 24.395C193.579 24.2217 193.834 23.9724 194.014 23.6714L198.917 16.3652C199.167 15.9652 199.517 15.6375 199.933 15.4148C200.398 15.1972 200.909 15.0935 201.423 15.1124H208.54L201.833 24.3464C201.53 24.7677 201.181 25.1535 200.791 25.4966C200.414 25.8414 200.005 26.1505 199.571 26.42C200.362 27.035 201.025 27.8003 201.52 28.6718L208.826 41.0918H201.806C201.286 41.1043 200.768 41.0049 200.289 40.8002C199.842 40.5868 199.477 40.2319 199.252 39.7904L194.349 30.6104C194.19 30.2741 193.936 29.9909 193.62 29.795C193.264 29.652 192.88 29.5893 192.497 29.6114H190.996V41.0972H183.252V3.60498H191.012Z" fill="#091331"/>
<path d="M221.041 3.60498V41.0648H213.281V3.60498H221.041Z" fill="#091331"/>
<path d="M239.806 14.7127C241.648 14.6857 243.479 15.0006 245.206 15.6415C246.762 16.2317 248.175 17.1445 249.353 18.3199C250.537 19.5124 251.457 20.94 252.053 22.5103C252.718 24.277 253.046 26.1525 253.02 28.0399C253.047 29.9485 252.72 31.8456 252.053 33.6343C251.461 35.218 250.541 36.6588 249.353 37.8625C248.17 39.0462 246.749 39.9663 245.185 40.5625C243.459 41.2097 241.627 41.5283 239.785 41.5021C237.942 41.5245 236.111 41.2059 234.385 40.5625C232.809 39.9661 231.376 39.0463 230.178 37.8625C228.975 36.666 228.045 35.2237 227.451 33.6343C226.788 31.8449 226.464 29.9479 226.495 28.0399C226.459 26.1449 226.78 24.2599 227.44 22.4833C228.047 20.9155 228.982 19.4958 230.183 18.3199C231.38 17.1346 232.814 16.2146 234.39 15.6199C236.125 14.9881 237.96 14.6806 239.806 14.7127ZM239.806 35.7079C241.588 35.7079 242.906 35.0761 243.748 33.8179C244.591 32.5597 245.012 30.6427 245.012 28.0777C245.012 25.5127 244.591 23.5957 243.748 22.3429C242.906 21.0901 241.588 20.4691 239.806 20.4691C238.024 20.4691 236.626 21.0955 235.778 22.3429C234.93 23.5903 234.503 25.5073 234.503 28.0777C234.503 30.6481 234.925 32.5597 235.778 33.8179C236.631 35.0761 237.97 35.7079 239.806 35.7079Z" fill="#091331"/>
<path d="M267.4 14.6642C268.447 14.6583 269.492 14.7669 270.516 14.9882C271.449 15.191 272.355 15.5027 273.216 15.917H281.051V18.7412C281.062 18.928 281.034 19.1151 280.971 19.2913C280.908 19.4675 280.811 19.6293 280.684 19.7672C280.335 20.0732 279.906 20.2736 279.448 20.345L277.547 20.7662C277.78 21.5218 277.898 22.3082 277.898 23.099C277.916 24.3145 277.636 25.5158 277.082 26.5982C276.544 27.6312 275.784 28.5328 274.858 29.2388C273.853 29.994 272.721 30.5628 271.515 30.9182C270.174 31.315 268.782 31.5115 267.384 31.5014C266.615 31.5044 265.846 31.4557 265.084 31.3556C264.851 31.4547 264.649 31.615 264.5 31.8193C264.351 32.0237 264.259 32.2646 264.236 32.5166C264.237 32.7228 264.303 32.9234 264.425 33.0893C264.548 33.2553 264.719 33.3781 264.916 33.44C265.498 33.6628 266.109 33.7993 266.731 33.845C267.483 33.9206 268.342 33.9584 269.306 33.9584C270.273 33.9584 271.261 34.007 272.26 34.0988C273.254 34.1903 274.24 34.3455 275.214 34.5632C276.128 34.7578 277.001 35.1144 277.79 35.6162C278.544 36.1063 279.167 36.7737 279.604 37.5602C280.097 38.5167 280.335 39.5843 280.295 40.6598C280.287 41.8578 279.995 43.0368 279.442 44.0996C278.837 45.2657 277.983 46.285 276.942 47.0858C275.724 48.0187 274.351 48.7298 272.886 49.1864C271.103 49.7376 269.245 50.0036 267.379 49.9748C265.606 50.004 263.837 49.8099 262.114 49.397C260.816 49.0883 259.575 48.5781 258.436 47.885C257.551 47.3518 256.809 46.6103 256.276 45.725C255.819 44.9512 255.577 44.0695 255.574 43.1708C255.545 42.1008 255.921 41.0592 256.627 40.2548C257.417 39.4035 258.406 38.7615 259.505 38.3864C258.878 37.9918 258.368 37.4358 258.028 36.7765C257.689 36.1172 257.533 35.3789 257.578 34.6388C257.581 34.2277 257.648 33.8196 257.777 33.4292C257.919 32.9863 258.131 32.5689 258.404 32.1926C258.714 31.765 259.077 31.3786 259.484 31.0424C259.956 30.6511 260.477 30.3226 261.034 30.065C259.744 29.4046 258.646 28.4225 257.848 27.2138C257.057 25.9853 256.651 24.5488 256.681 23.0882C256.663 21.8645 256.947 20.6552 257.507 19.5674C258.058 18.5283 258.83 17.6231 259.77 16.916C260.791 16.1601 261.94 15.5932 263.161 15.242C264.538 14.8412 265.966 14.6465 267.4 14.6642ZM273.156 41.9558C273.166 41.768 273.136 41.5804 273.069 41.4048C273.002 41.2291 272.899 41.0692 272.768 40.9352C272.469 40.6547 272.111 40.4444 271.72 40.3196C271.215 40.1532 270.694 40.0428 270.165 39.9902C269.53 39.9183 268.892 39.8841 268.253 39.8876H266.104C265.379 39.8868 264.656 39.8163 263.944 39.677C263.49 39.9806 263.089 40.3564 262.756 40.7894C262.451 41.1892 262.287 41.6795 262.292 42.1826C262.289 42.5317 262.37 42.8763 262.529 43.187C262.724 43.5246 263.015 43.7956 263.366 43.9646C263.877 44.2166 264.423 44.3896 264.986 44.4776C265.834 44.616 266.692 44.6793 267.551 44.6666C268.474 44.6812 269.395 44.6125 270.305 44.4614C270.901 44.3735 271.479 44.1912 272.017 43.9214C272.394 43.7323 272.705 43.4328 272.908 43.0628C273.072 42.7176 273.15 42.3377 273.135 41.9558H273.156ZM267.4 26.7224C268.685 26.7224 269.62 26.4038 270.192 25.7612C270.785 25.0711 271.094 24.1812 271.056 23.2718C271.082 22.8221 271.019 22.3717 270.871 21.9464C270.723 21.5211 270.492 21.1292 270.192 20.7932C269.62 20.1938 268.685 19.8914 267.4 19.8914C266.115 19.8914 265.186 20.1938 264.614 20.7932C264.314 21.1292 264.083 21.5211 263.935 21.9464C263.786 22.3717 263.724 22.8221 263.75 23.2718C263.744 23.7392 263.815 24.2044 263.96 24.6488C264.097 25.0546 264.324 25.424 264.625 25.7288C264.946 26.0524 265.335 26.3013 265.764 26.4578C266.289 26.6434 266.843 26.733 267.4 26.7224Z" fill="#091331"/>
<path d="M19.0649 32.306V3.52942C22.3833 3.52942 25.5657 4.84762 27.9121 7.19404C30.2585 9.54046 31.5767 12.7229 31.5767 16.0412V27.3812C31.6126 28.5258 32.0873 29.6128 32.9026 30.417C33.7178 31.2212 34.8112 31.681 35.9561 31.7012H50.3201C50.3201 35.8545 48.6703 39.8377 45.7334 42.7745C42.7966 45.7113 38.8134 47.3612 34.6601 47.3612C30.6208 47.3475 26.7429 45.7735 23.8367 42.9679C20.9306 40.1624 19.2209 36.3424 19.0649 32.306Z" fill="#1E4068"/>
<path d="M41.8854 15.4147C44.823 15.4147 47.2044 13.0333 47.2044 10.0957C47.2044 7.15813 44.823 4.77673 41.8854 4.77673C38.9478 4.77673 36.5664 7.15813 36.5664 10.0957C36.5664 13.0333 38.9478 15.4147 41.8854 15.4147Z" fill="#091331"/>
<path d="M41.8854 28.553C44.823 28.553 47.2044 26.1716 47.2044 23.234C47.2044 20.2964 44.823 17.915 41.8854 17.915C38.9478 17.915 36.5664 20.2964 36.5664 23.234C36.5664 26.1716 38.9478 28.553 41.8854 28.553Z" fill="#091331"/>
<path d="M9.82012 46.0922C6.07404 44.4998 3.09521 41.5113 1.51492 37.76C0.698198 35.8353 0.279395 33.7651 0.283725 31.6742V0.402833C1.92745 0.402123 3.5552 0.725445 5.07387 1.35431C6.59254 1.98317 7.97236 2.90524 9.1344 4.06778C10.2964 5.23032 11.2179 6.61053 11.8461 8.12948C12.4743 9.64842 12.7969 11.2763 12.7955 12.92V31.6904H31.5605C31.5557 34.2713 30.913 36.8109 29.6897 39.0834C28.4665 41.3559 26.7005 43.2909 24.549 44.7162C22.3974 46.1415 19.9269 47.0129 17.3573 47.253C14.7876 47.4931 12.1985 47.0943 9.82012 46.0922ZM12.7793 31.6796V27.3596C12.8005 28.4886 13.2663 29.5636 14.0753 30.3512C14.9025 31.1593 16.0029 31.6276 17.1587 31.6634H12.7955L12.7793 31.6796Z" fill="#091331"/>
<path d="M129.624 52.3723V54.1975H128.355V48.7327H130.283C130.619 48.7253 130.955 48.7708 131.277 48.8677C131.528 48.9447 131.759 49.0735 131.957 49.2457C132.129 49.3939 132.265 49.5783 132.357 49.7857C132.44 50.0121 132.482 50.2518 132.481 50.4931C132.483 50.7491 132.439 51.0034 132.351 51.2437C132.267 51.4685 132.127 51.6689 131.946 51.8269C131.749 52.0008 131.517 52.1314 131.266 52.2103C130.948 52.3069 130.616 52.3524 130.283 52.3453L129.624 52.3723ZM129.624 51.4165H130.283C130.407 51.4369 130.534 51.4281 130.653 51.3907C130.773 51.3534 130.883 51.2886 130.973 51.2016C131.063 51.1145 131.132 51.0075 131.173 50.8892C131.215 50.7709 131.228 50.6445 131.212 50.5201C131.215 50.4026 131.196 50.2856 131.158 50.1745C131.121 50.0747 131.062 49.9843 130.985 49.9099C130.903 49.8345 130.805 49.7774 130.699 49.7425C130.565 49.6986 130.424 49.6785 130.283 49.6831H129.624V51.4165Z" fill="#091331"/>
<path d="M136.844 48.7328V49.7102H134.598V50.9846H136.32V51.9242H134.598V53.2256H136.844V54.1976H133.323V48.7328H136.844Z" fill="#091331"/>
<path d="M139.015 52.178V54.1976H137.746V48.7328H139.523C139.865 48.7254 140.207 48.7654 140.538 48.8516C140.785 48.9184 141.016 49.0341 141.218 49.1918C141.391 49.335 141.523 49.5213 141.602 49.7318C141.684 49.936 141.724 50.1544 141.721 50.3744C141.723 50.5444 141.699 50.7137 141.65 50.8766C141.602 51.0321 141.531 51.1796 141.44 51.314C141.343 51.4512 141.227 51.5731 141.094 51.6758C140.951 51.7836 140.793 51.8691 140.624 51.9296C140.71 51.9735 140.79 52.0279 140.862 52.0916C140.94 52.1543 141.006 52.2312 141.056 52.3184L142.217 54.2192H141.072C140.981 54.2274 140.89 54.2094 140.808 54.1673C140.727 54.1253 140.659 54.0608 140.613 53.9816L139.706 52.394C139.671 52.3325 139.621 52.2806 139.561 52.2428C139.489 52.2122 139.412 52.1975 139.334 52.1996L139.015 52.178ZM139.015 51.3032H139.523C139.67 51.3129 139.818 51.2983 139.96 51.26C140.071 51.221 140.173 51.1583 140.257 51.0764C140.334 51.0011 140.391 50.9085 140.424 50.8064C140.462 50.697 140.48 50.5819 140.478 50.4662C140.481 50.3647 140.462 50.2639 140.422 50.1707C140.382 50.0775 140.322 49.9941 140.246 49.9262C140.035 49.774 139.776 49.703 139.517 49.7264H139.01L139.015 51.3032Z" fill="#091331"/>
<path d="M145.965 49.8451C145.934 49.897 145.894 49.9427 145.846 49.9801C145.799 50.0097 145.745 50.0247 145.69 50.0233C145.623 50.0199 145.559 50.0014 145.501 49.9693L145.274 49.8451C145.182 49.7962 145.087 49.7565 144.988 49.7263C144.869 49.6855 144.745 49.6654 144.62 49.6669C144.427 49.6494 144.234 49.7053 144.08 49.8235C144.021 49.8738 143.974 49.9369 143.944 50.0081C143.913 50.0792 143.898 50.1565 143.902 50.2339C143.901 50.2839 143.91 50.3335 143.929 50.3799C143.947 50.4263 143.975 50.4685 144.01 50.5039C144.089 50.5838 144.183 50.648 144.286 50.6929C144.411 50.7514 144.541 50.8002 144.674 50.8387L145.123 50.9845C145.275 51.0387 145.425 51.1018 145.571 51.1735C145.716 51.2464 145.849 51.3411 145.965 51.4543C146.082 51.5724 146.175 51.7117 146.24 51.8647C146.314 52.0501 146.349 52.2486 146.343 52.4479C146.345 52.6898 146.301 52.93 146.213 53.1553C146.129 53.3734 145.998 53.5705 145.83 53.7331C145.654 53.9041 145.444 54.0365 145.214 54.1219C144.948 54.2189 144.666 54.2665 144.383 54.2623C144.201 54.2612 144.021 54.2431 143.843 54.2083C143.668 54.1719 143.496 54.1213 143.33 54.0571C143.167 53.998 143.012 53.922 142.865 53.8303C142.728 53.7495 142.601 53.6515 142.487 53.5387L142.86 52.9447C142.89 52.8985 142.932 52.8608 142.981 52.8352C143.03 52.8097 143.085 52.7972 143.141 52.7989C143.222 52.7995 143.3 52.8239 143.368 52.8691L143.627 53.0257C143.732 53.0875 143.842 53.1399 143.956 53.1823C144.098 53.2326 144.248 53.2564 144.399 53.2525C144.591 53.2649 144.781 53.2115 144.939 53.1013C145.005 53.0411 145.057 52.9664 145.089 52.8831C145.122 52.7998 145.135 52.71 145.128 52.6207C145.134 52.5072 145.097 52.3956 145.025 52.3075C144.948 52.2226 144.855 52.1545 144.75 52.1077C144.624 52.0529 144.494 52.0078 144.361 51.9727L143.913 51.8377C143.76 51.7887 143.61 51.7291 143.465 51.6595C143.32 51.5866 143.189 51.4898 143.076 51.3733C142.956 51.2492 142.863 51.1023 142.801 50.9413C142.726 50.7356 142.691 50.5175 142.698 50.2987C142.697 50.0907 142.739 49.8847 142.822 49.6939C142.901 49.4894 143.025 49.3049 143.184 49.1539C143.354 48.9936 143.554 48.8688 143.773 48.7867C144.028 48.6917 144.299 48.6459 144.572 48.6517C144.736 48.6505 144.901 48.6631 145.063 48.6895C145.217 48.7158 145.369 48.7538 145.517 48.8029C145.655 48.8539 145.789 48.9171 145.916 48.9919C146.034 49.0592 146.145 49.1388 146.246 49.2295L145.965 49.8451Z" fill="#091331"/>
<path d="M152.564 51.4652C152.563 51.8348 152.494 52.2012 152.359 52.5452C152.227 52.8793 152.028 53.1828 151.774 53.4373C151.521 53.6917 151.218 53.8916 150.884 54.0248C150.515 54.1713 150.121 54.2447 149.723 54.2408C149.326 54.2437 148.932 54.1704 148.562 54.0248C148.227 53.8928 147.923 53.6934 147.669 53.4388C147.414 53.1843 147.215 52.8801 147.083 52.5452C146.817 51.833 146.817 51.0487 147.083 50.3366C147.216 50.0066 147.412 49.7057 147.661 49.451C147.92 49.1984 148.227 48.9986 148.562 48.8624C148.932 48.7186 149.326 48.6471 149.723 48.6518C150.121 48.6452 150.516 48.7186 150.884 48.8678C151.22 49.0006 151.525 49.2009 151.781 49.4564C152.032 49.7088 152.229 50.0103 152.359 50.342C152.499 50.6995 152.569 51.081 152.564 51.4652ZM151.262 51.4652C151.267 51.2183 151.232 50.9723 151.16 50.7362C151.095 50.5384 150.992 50.3551 150.857 50.1962C150.726 50.0453 150.562 49.927 150.377 49.8506C149.956 49.6923 149.491 49.6923 149.07 49.8506C148.884 49.9283 148.718 50.0463 148.584 50.1962C148.449 50.3551 148.347 50.5384 148.282 50.7362C148.209 50.9723 148.175 51.2183 148.179 51.4652C148.175 51.7138 148.209 51.9616 148.282 52.1996C148.344 52.3984 148.447 52.5822 148.584 52.7396C148.718 52.8894 148.884 53.0075 149.07 53.0852C149.491 53.2435 149.956 53.2435 150.377 53.0852C150.562 53.0088 150.726 52.8905 150.857 52.7396C150.994 52.5822 151.097 52.3984 151.16 52.1996C151.232 51.9616 151.266 51.7138 151.262 51.4652Z" fill="#091331"/>
<path d="M154.157 48.7381H154.259C154.29 48.7547 154.319 48.7747 154.346 48.7975C154.379 48.8294 154.409 48.8637 154.437 48.9001L157.035 52.1833V48.7057H158.153V54.1705H157.494C157.409 54.1749 157.324 54.1601 157.245 54.1273C157.167 54.0914 157.1 54.0355 157.051 53.9653L154.47 50.7253V54.1921H153.352V48.7327H154.157V48.7381Z" fill="#091331"/>
<path d="M164.298 54.1976H163.315C163.217 54.2039 163.12 54.1773 163.04 54.122C162.971 54.0753 162.919 54.0069 162.894 53.9276L162.57 52.9718H160.48L160.156 53.9276C160.124 54.0021 160.074 54.0672 160.01 54.1166C159.933 54.1722 159.84 54.2007 159.746 54.1976H158.752L160.869 48.7328H162.17L164.298 54.1976ZM160.782 52.1078H162.278L161.776 50.612C161.744 50.5148 161.706 50.4068 161.657 50.2772C161.609 50.1476 161.571 50.0072 161.528 49.856C161.49 50.0126 161.447 50.153 161.403 50.2826C161.37 50.3962 161.33 50.508 161.285 50.6174L160.782 52.1078Z" fill="#091331"/>
<path d="M166.188 53.1878H168.213V54.1976H164.919V48.7328H166.188V53.1878Z" fill="#091331"/>
<path d="M175.6 51.4652C175.602 51.835 175.532 52.2018 175.395 52.5452C175.263 52.8709 175.066 53.1667 174.817 53.4146C174.559 53.6629 174.254 53.8575 173.921 53.987C173.55 54.1254 173.156 54.1932 172.76 54.1868H170.637V48.7328H172.76C173.156 48.7281 173.55 48.7977 173.921 48.938C174.252 49.0626 174.554 49.2546 174.808 49.5018C175.062 49.749 175.262 50.0461 175.395 50.3744C175.533 50.7212 175.603 51.0917 175.6 51.4652ZM174.299 51.4652C174.302 51.2165 174.268 50.9688 174.196 50.7308C174.131 50.533 174.028 50.3497 173.894 50.1908C173.761 50.0381 173.594 49.918 173.408 49.8398C173.202 49.7562 172.982 49.7158 172.76 49.721H171.912V53.2364H172.76C172.982 53.2399 173.202 53.1976 173.408 53.1122C173.595 53.0358 173.762 52.9155 173.894 52.7612C174.03 52.6034 174.133 52.4197 174.196 52.2212C174.267 51.9757 174.298 51.7204 174.288 51.4652H174.299Z" fill="#091331"/>
<path d="M177.641 52.1779V54.1975H176.378V48.7327H178.154C178.495 48.725 178.835 48.765 179.164 48.8515C179.413 48.9171 179.647 49.0329 179.85 49.1917C180.023 49.335 180.155 49.5212 180.233 49.7317C180.315 49.9359 180.356 50.1544 180.352 50.3743C180.354 50.5443 180.33 50.7136 180.282 50.8765C180.234 51.0321 180.163 51.1795 180.071 51.3139C179.973 51.4498 179.857 51.5716 179.726 51.6757C179.583 51.7835 179.424 51.8691 179.256 51.9295C179.341 51.9748 179.42 52.0291 179.493 52.0915C179.569 52.1572 179.635 52.2336 179.688 52.3183L180.849 54.2191H179.699C179.608 54.227 179.518 54.2088 179.437 54.1667C179.357 54.1246 179.29 54.0603 179.245 53.9815L178.332 52.3939C178.3 52.3317 178.252 52.2794 178.192 52.2427C178.12 52.2122 178.043 52.1974 177.965 52.1995L177.641 52.1779ZM177.641 51.3031H178.181C178.331 51.3064 178.481 51.2845 178.624 51.2383C178.735 51.1993 178.836 51.1367 178.921 51.0547C178.998 50.9795 179.055 50.8869 179.088 50.7847C179.126 50.6753 179.144 50.5602 179.142 50.4445C179.144 50.3432 179.124 50.2428 179.084 50.1497C179.044 50.0566 178.985 49.9731 178.91 49.9045C178.699 49.7523 178.44 49.6814 178.181 49.7047H177.641V51.3031Z" fill="#091331"/>
<path d="M182.939 54.1976H181.659V48.7328H182.939V54.1976Z" fill="#091331"/>
<path d="M183.7 48.7327H184.721C184.817 48.7264 184.912 48.753 184.991 48.8083C185.061 48.8573 185.114 48.9272 185.142 49.0081L186.222 51.9349C186.27 52.0591 186.319 52.1995 186.368 52.3507C186.416 52.5019 186.459 52.6585 186.503 52.8205C186.54 52.6585 186.578 52.5019 186.627 52.3507C186.675 52.1995 186.719 52.0591 186.762 51.9349L187.842 49.0081C187.869 48.9299 187.92 48.8621 187.988 48.8137C188.064 48.7581 188.157 48.7296 188.252 48.7327H189.284L187.091 54.1975H185.86L183.7 48.7327Z" fill="#091331"/>
<path d="M193.366 48.7328V49.7102H191.12V50.9846H192.837V51.9242H191.12V53.2256H193.366V54.1976H189.845V48.7328H193.366Z" fill="#091331"/>
<path d="M195.072 48.7381H195.175L195.261 48.7975L195.353 48.9001L197.951 52.1833V48.7057H199.068V54.1705H198.41C198.325 54.1744 198.24 54.1596 198.161 54.1273C198.085 54.0885 198.019 54.0331 197.967 53.9653L195.391 50.7253V54.1921H194.273V48.7327H195.083L195.072 48.7381Z" fill="#091331"/>
<path d="M203.14 54.1976H201.866V48.7328H203.14V54.1976Z" fill="#091331"/>
<path d="M205.138 48.7381H205.241L205.327 48.7975C205.36 48.8294 205.391 48.8637 205.419 48.9001L208.016 52.1833V48.7057H209.134V54.1705H208.47C208.385 54.1744 208.3 54.1596 208.222 54.1273C208.145 54.0885 208.079 54.0331 208.027 53.9653L205.451 50.7253V54.1921H204.333V48.7327H205.138V48.7381Z" fill="#091331"/>
<path d="M210.992 48.7381H211.094C211.125 48.7547 211.154 48.7747 211.181 48.7975C211.214 48.8294 211.244 48.8637 211.272 48.9001L213.87 52.1833V48.7057H214.988V54.1705H214.329C214.244 54.1749 214.159 54.1601 214.08 54.1273C214.002 54.0914 213.935 54.0355 213.886 53.9653L211.305 50.7253V54.1921H210.187V48.7327H210.992V48.7381Z" fill="#091331"/>
<path d="M221.441 51.4652C221.44 51.8348 221.371 52.2012 221.236 52.5452C221.104 52.8793 220.905 53.1828 220.651 53.4373C220.398 53.6917 220.095 53.8916 219.761 54.0248C219.014 54.3116 218.187 54.3116 217.439 54.0248C217.1 53.8921 216.793 53.6898 216.538 53.4308C216.288 53.1765 216.092 52.8756 215.96 52.5452C215.686 51.8344 215.686 51.0473 215.96 50.3366C216.091 50.0017 216.29 49.6976 216.544 49.4438C216.799 49.19 217.104 48.992 217.439 48.8624C217.809 48.7181 218.203 48.6466 218.6 48.6518C218.998 48.6452 219.393 48.7186 219.761 48.8678C220.097 49.0006 220.402 49.2009 220.658 49.4564C220.909 49.7088 221.106 50.0103 221.236 50.342C221.376 50.6995 221.446 51.081 221.441 51.4652ZM220.139 51.4652C220.144 51.2183 220.109 50.9723 220.037 50.7362C219.972 50.5384 219.869 50.3551 219.734 50.1962C219.603 50.0453 219.439 49.927 219.254 49.8506C219.046 49.7679 218.824 49.7275 218.6 49.7318C218.377 49.7269 218.154 49.7673 217.947 49.8506C217.761 49.9283 217.595 50.0463 217.461 50.1962C217.326 50.3551 217.224 50.5384 217.158 50.7362C217.086 50.9723 217.052 51.2183 217.056 51.4652C217.052 51.7138 217.086 51.9616 217.158 52.1996C217.221 52.3984 217.324 52.5822 217.461 52.7396C217.595 52.8894 217.761 53.0075 217.947 53.0852C218.154 53.1684 218.377 53.2089 218.6 53.204C218.824 53.2083 219.046 53.1679 219.254 53.0852C219.439 53.0088 219.603 52.8905 219.734 52.7396C219.871 52.5822 219.974 52.3984 220.037 52.1996C220.109 51.9616 220.143 51.7138 220.139 51.4652Z" fill="#091331"/>
<path d="M221.554 48.7328H222.58C222.676 48.7272 222.771 48.7539 222.85 48.8084C222.92 48.8573 222.973 48.9273 223.001 49.0082L224.081 51.935C224.124 52.0592 224.173 52.1996 224.222 52.3508C224.27 52.502 224.319 52.6586 224.362 52.8206C224.394 52.6586 224.438 52.502 224.481 52.3508C224.524 52.1996 224.573 52.0592 224.621 51.935L225.669 49.0082C225.7 48.9321 225.75 48.8652 225.815 48.8138C225.893 48.7581 225.988 48.7296 226.085 48.7328H227.111L224.918 54.1976H223.773L221.554 48.7328Z" fill="#091331"/>
<path d="M232.052 54.1976H231.069C230.973 54.2031 230.878 54.1765 230.799 54.122C230.73 54.0739 230.677 54.0062 230.648 53.9276L230.329 52.9718H228.25L227.926 53.9276C227.894 54.0021 227.844 54.0672 227.78 54.1166C227.701 54.1723 227.607 54.2007 227.51 54.1976H226.522L228.639 48.7328H229.935L232.052 54.1976ZM228.542 52.1078H230.032L229.53 50.612L229.416 50.2772C229.373 50.1476 229.33 50.0072 229.287 49.856C229.249 50.0126 229.206 50.153 229.163 50.2826C229.119 50.4122 229.082 50.5256 229.044 50.6174L228.542 52.1078Z" fill="#091331"/>
<path d="M236.048 48.7328V49.7372H234.509V54.1976H233.24V49.7372H231.701V48.7328H236.048Z" fill="#091331"/>
<path d="M238.143 54.1976H236.868V48.7328H238.143V54.1976Z" fill="#091331"/>
<path d="M244.72 51.4651C244.721 51.8344 244.654 52.2007 244.52 52.5451C244.388 52.8755 244.191 53.1765 243.942 53.4307C243.689 53.6896 243.383 53.892 243.046 54.0247C242.299 54.3116 241.471 54.3116 240.724 54.0247C240.389 53.8927 240.085 53.6933 239.83 53.4387C239.576 53.1842 239.376 52.88 239.244 52.5451C238.971 51.8344 238.971 51.0473 239.244 50.3365C239.375 50.0054 239.572 49.7042 239.822 49.4509C240.081 49.1972 240.388 48.9971 240.724 48.8623C241.094 48.7176 241.488 48.6461 241.885 48.6517C242.282 48.6457 242.677 48.7191 243.046 48.8677C243.382 49.0005 243.687 49.2009 243.942 49.4563C244.191 49.7105 244.388 50.0115 244.52 50.3419C244.659 50.6998 244.727 51.0813 244.72 51.4651ZM243.424 51.4651C243.426 51.2184 243.391 50.9728 243.321 50.7361C243.256 50.5383 243.154 50.355 243.019 50.1961C242.885 50.0463 242.719 49.9282 242.533 49.8505C242.327 49.7669 242.107 49.7265 241.885 49.7317C241.661 49.7268 241.439 49.7672 241.232 49.8505C241.044 49.9255 240.878 50.0439 240.746 50.1961C240.611 50.355 240.508 50.5383 240.443 50.7361C240.371 50.9722 240.336 51.2182 240.341 51.4651C240.336 51.7138 240.371 51.9615 240.443 52.1995C240.506 52.3983 240.609 52.5821 240.746 52.7395C240.878 52.8917 241.044 53.0102 241.232 53.0851C241.439 53.1684 241.661 53.2088 241.885 53.2039C242.107 53.2091 242.327 53.1687 242.533 53.0851C242.719 53.0074 242.885 52.8894 243.019 52.7395C243.156 52.5821 243.259 52.3983 243.321 52.1995C243.395 51.9615 243.433 51.7141 243.435 51.4651H243.424Z" fill="#091331"/>
<path d="M246.34 48.7381H246.443L246.529 48.7975C246.562 48.8294 246.593 48.8637 246.621 48.9001L249.218 52.1833V48.7057H250.341V54.1705H249.634C249.549 54.1744 249.464 54.1596 249.386 54.1273C249.31 54.0885 249.243 54.0331 249.191 53.9653L246.615 50.7253V54.1921H245.492V48.7327H246.34V48.7381Z" fill="#091331"/>
</g>
<defs>
<clipPath id="clip0_136_240">
<rect width="280.8" height="54" fill="white" transform="translate(0.100098 0.5)"/>
</clipPath>
</defs>
</svg>
