<svg xmlns="http://www.w3.org/2000/svg" width="24" height="24" viewBox="0 0 24 24"><defs><style>.a{fill:none;}.b{fill:#1e4068;}.c,.d{stroke:none;}.d{fill:#fff;}</style></defs><g transform="translate(24 24) rotate(180)"><path class="a" d="M0,0H24V24H0Z"/><g class="b"><path class="c" d="M 12 20.17678070068359 L 11.9116096496582 20.0883903503418 L 3.911609888076782 12.0883903503418 L 3.823220014572144 12 L 3.911609888076782 11.9116096496582 L 5.331610202789307 10.49160957336426 L 5.420080184936523 10.4031400680542 L 5.508470058441162 10.49168968200684 L 10.875 15.86783790588379 L 10.875 4 L 10.875 3.875 L 11 3.875 L 13 3.875 L 13.125 3.875 L 13.125 4 L 13.125 15.86860179901123 L 18.50168991088867 10.50152969360352 L 18.59008026123047 10.41329956054688 L 18.67839050292969 10.50160980224609 L 20.0883903503418 11.9116096496582 L 20.17678070068359 12 L 20.0883903503418 12.0883903503418 L 12.0883903503418 20.0883903503418 L 12 20.17678070068359 Z"/><path class="d" d="M 11 4 L 11 16.17000007629395 L 5.420000076293945 10.57999992370605 L 4 12 L 12 20 L 20 12 L 18.59000015258789 10.59000015258789 L 13 16.17000007629395 L 13 4 L 11 4 M 10.75 3.75 L 11 3.75 L 13 3.75 L 13.25 3.75 L 13.25 4 L 13.25 15.56721305847168 L 18.41337966918945 10.41306972503662 L 18.59016036987305 10.23659992218018 L 18.76678085327148 10.41322040557861 L 20.17678070068359 11.82322025299072 L 20.35354995727539 12 L 20.17678070068359 12.17677974700928 L 12.17677974700928 20.17678070068359 L 12 20.35354995727539 L 11.82322025299072 20.17678070068359 L 3.823219299316406 12.17677974700928 L 3.646450042724609 12 L 3.823219299316406 11.82322025299072 L 5.243219375610352 10.40322017669678 L 5.420160293579102 10.22628974914551 L 5.596929550170898 10.40338039398193 L 10.75 15.5656852722168 L 10.75 4 L 10.75 3.75 Z"/></g></g></svg>