<svg xmlns="http://www.w3.org/2000/svg" width="50" height="50" viewBox="0 0 50 50"><defs><style>.a{fill:none;}.b{fill:#091331;}</style></defs><g transform="translate(0 0.729)"><rect class="a" width="50" height="50" transform="translate(0 -0.729)"/><path class="b" d="M84.7,123.5c11.634,0,18-9.638,18-18,0-.274,0-.546-.019-.818a12.869,12.869,0,0,0,3.156-3.274,12.625,12.625,0,0,1-3.633,1,6.347,6.347,0,0,0,2.781-3.5,12.676,12.676,0,0,1-4.016,1.535,6.331,6.331,0,0,0-10.779,5.769A17.957,17.957,0,0,1,77.146,99.6a6.33,6.33,0,0,0,1.958,8.444,6.278,6.278,0,0,1-2.871-.792v.08a6.327,6.327,0,0,0,5.074,6.2,6.315,6.315,0,0,1-2.856.109,6.332,6.332,0,0,0,5.909,4.393,12.692,12.692,0,0,1-7.855,2.713A12.874,12.874,0,0,1,75,120.66a17.907,17.907,0,0,0,9.7,2.836" transform="translate(-65.751 -86.366)"/></g></svg>