<svg id="レイヤー_2" data-name="レイヤー 2" xmlns="http://www.w3.org/2000/svg" width="193.677" height="47.644" viewBox="0 0 193.677 47.644">
  <g id="レイヤー_1" data-name="レイヤー 1" transform="translate(0 0)">
    <path id="パス_2895" data-name="パス 2895" d="M306.26,56.159c-.929-1-1.8-.26-2.637.129a5.67,5.67,0,0,1-5.114.06c-.977-.476-1.592-1.122-1.016-2.421,5.511-.123,10.39-2.7,15.707-4.081-.168-2.061-.478-3.572-2.583-4.326-2.051-.736-2.122-1.97-.5-3.532.7-.673,1.386-1.361,2.055-2.065a9.182,9.182,0,0,0,.7-.977c-2.111-.208-2.922,2.618-5.006,1.87-1.629-.586-3.832,0-4.808-2.315,4.077-1.276,8.046-2.558,12.052-3.74a9.645,9.645,0,0,1,2.876-.285c.96.017,1.685.509,1.662,1.334l-7.183,7.225,4.6,5.752c1.612-.443,3.4-.866,5.151-1.428a7.634,7.634,0,0,1,6.344.305c-.416,2.078-.571,2.331-2.228,2.132-3.117-.376-5.93.5-8.817,1.739,0,.989-.021,1.947,0,2.909a8.926,8.926,0,0,1,.187,1.307c-.655,4.964-.709,10.057-2.924,14.7a5.319,5.319,0,0,1-1.6,2.02c-1,.711-2.473.064-3.308-1.268-2.645-4.218-4.364-8.681-3.634-13.8a7.205,7.205,0,0,0-.044-1.319c.927,1.577,1.932,3.117,2.757,4.738.975,1.926,1.8,3.931,2.683,5.9l.648-.118a34.621,34.621,0,0,0,1.382-13.922,23.683,23.683,0,0,0-7.21,2.737C306.3,55.517,306.322,55.905,306.26,56.159Z" transform="translate(-235.501 -27.309)" fill="#fff"/>
    <path id="パス_2896" data-name="パス 2896" d="M488.791,17.346l3.892,1.467-3.15,2.932,1.714.844c.54-2.2,2.961-3,3.256-5.326.046-.368,1.107-.831,1.708-.848a8.481,8.481,0,0,1,2.373.713c-.4.906-.709,1.592-1.068,2.394.582.441,1.122.854,1.851,1.409-1.592,1.056-.091,3.532-2.841,4.482,2.092.756,4.492-.515,5.168,2.155-.281.156-.623.5-.852.447-2.047-.522-3.807.208-5.571,1.1a7.239,7.239,0,0,1-2.494.831,3.117,3.117,0,0,1-1.918-.567,22.832,22.832,0,0,1-2.259-2.055,1.5,1.5,0,0,1-.416-1.887,27.39,27.39,0,0,0,.8-2.971l-4.966,2.18c1.205-2.41,3.684-3.636,4.779-5.968l-.461-.451c-1.81,1.683-3.582,3.408-5.44,5.035a59.4,59.4,0,0,1-6.074,4.706c3.591-5.342,8.266-9.872,11.636-16.139-3.266,1.488-5.781,1.629-6.94-1.849,2.452-.623,4.912-1.247,7.37-1.887a2.959,2.959,0,0,0,2.238-2.269A7.937,7.937,0,0,0,490.9,0c2.417.01,4.436.062,5.87,1.989L496,5.521c1.822.208,3.246-.567,4.738-.958a21.031,21.031,0,0,1,2.552-.642,2.4,2.4,0,0,1,2.963,1.8l-1.637.544c-2.6.852-5.182,1.756-7.8,2.535a7.2,7.2,0,0,0-4.166,3.042C491.448,13.673,490.139,15.435,488.791,17.346Zm4.675,8.461-1.812-2.7c-.476,1.484-1.022,2.637-.744,4.247Z" transform="translate(-377.742 0)" fill="#fff"/>
    <path id="パス_2897" data-name="パス 2897" d="M5.107,71.187,3.514,72.21l-.343-.254a5.113,5.113,0,0,1,.511-1.3c2.286-3.019,4.53-6.092,6.988-8.974,1.143-1.338.05-2.286.154-3.973-4,2.98-6.705,6.768-10.824,8.868C2.406,61.8,6.026,57.826,8.817,52.9L4.2,47.462c2.7-.345,4.571.669,6.456,2.1l1.529-1.735a21.481,21.481,0,0,1,3.175.754c1.378.542,1.739,1.662.671,2.683-2.171,2.078-2.078,4.087-1.105,6.791,1.23,3.4,1.091,7.065.8,10.73-.349,4.351-2.138,8.137-3.682,12.052-.555,1.409-1.222,1.662-2.7,1.116A6.047,6.047,0,0,1,5.6,77.174a25.7,25.7,0,0,1-.239-3.68c-.054-.779-.162-1.554-.245-2.325,1.176,2.1,2.352,4.187,3.713,6.606,1.883-3.9,3.15-7.638,2.481-12.052Z" transform="translate(0 -37.546)" fill="#fff"/>
    <path id="パス_2898" data-name="パス 2898" d="M84.93,50.744c2.523-3.169,5.093-5.61,6.712-8.866a6.9,6.9,0,0,1,2.548.071,3.569,3.569,0,0,1,1.644,1.845c.125.3-.623,1.1-1.11,1.49-1.7,1.363-3.462,2.649-5.195,3.965.9,1.538,2.005,1.367,3.273.9a7.517,7.517,0,0,1,2.772-.623c2.113.1,3.26,1.644,3.148,3.761-.162,3.1-2.462,6.246-5.683,6.1a2.543,2.543,0,0,0-.274.7c-.044.513-.015,1.039-.015,1.619a3.372,3.372,0,0,0,.769,0,12.414,12.414,0,0,1,2.217-.779,2.655,2.655,0,0,1,3.154,3.117,48.13,48.13,0,0,1-.665,5.77c-.578,2.714-1.444,3.158-4.478,2.685.208-.582.416-1.164.657-1.793-.332-.023-.557-.106-.636-.033A11.716,11.716,0,0,0,92.487,72a3.06,3.06,0,0,1-3.352.952c-1.157-.249-.91-1.455-1.326-2.2-1.247-2.244-.611-4.305.042-6.4a27.129,27.129,0,0,0,.9-8.92,13.876,13.876,0,0,0-.389-2.348C88.018,51.419,87.164,50.351,84.93,50.744Zm8.519,15.678c-1.683-.515-2.377-.264-2.018,1.631Zm-.389-10.7c.646-.929.646-.929,0-1.569Z" transform="translate(-67.282 -33.105)" fill="#fff"/>
    <path id="パス_2899" data-name="パス 2899" d="M165.856,57.8a1.705,1.705,0,0,1,.711-2.624c1.247-.754,2.442-1.592,3.786-2.479-1.9-1.54-4.9-.983-5.523-4.3,2.352.268,4.156-.738,6.055-1.571,1.38-.6,3.1-.465,4.808,1.484l-3,1.4.416.91a11.146,11.146,0,0,0,2.24.775c.862.11,1.762-.123,2.641-.094,2.591.081,4.364,2.24,3.437,4.665a20.2,20.2,0,0,1-3.347,5.321c-.478.59-1.739.542-2.988.879-.224,7.428-.748,15.044-3.776,22.319-.224-9.01-.447-18.02-.673-27.1l-4.875.32Zm8.977-.152c1.945-.727,3.187-2.982,2.095-3.938l-2.088.675Z" transform="translate(-130.58 -36.852)" fill="#fff"/>
    <path id="パス_2900" data-name="パス 2900" d="M683.025,128.007c2.87.359,5.883.519,8.794,1.151,4.823,1.039,9.6,2.325,14.362,3.645a20.236,20.236,0,0,0,10.67.349c3.7-.925,7.634-1.07,11.464-1.556.06.208.12.395.183.59a17.089,17.089,0,0,1-2.236,1.13c-3.428,1.155-6.826,2.473-10.338,3.281a17.13,17.13,0,0,1-6.826.168c-3.711-.7-7.31-1.989-10.977-2.946-5.166-1.349-10.115-3.811-15.68-3.179-1.135.129-2.257.4-3.393.5-1.455.133-3.028.43-3.948-1.772a13.984,13.984,0,0,0,3.287-.908,14.347,14.347,0,0,0,2.523-2.4c-1.65-1.637-1.926-3.262-.461-5.157-1.014-.351-1.716-.6-2.425-.831-.831-.274-1.43-.69-1.12-1.905l7.595-.416c-.871,1.455-1.467,2.365-1.97,3.325-.734,1.39-1.662,2.72.146,4.183C683.183,125.652,682.923,126.984,683.025,128.007Z" transform="translate(-534.821 -93.283)" fill="#fff"/>
    <path id="パス_2901" data-name="パス 2901" d="M771.2,42.914a18.539,18.539,0,0,1,3.983,6.683c.794,1.937-.372,3.057-2.552,3.032a22.736,22.736,0,0,0-2.381.042c-6.591.6-9.236-2.884-10.335-8.488-.86-4.382-.019-8.792.285-13.184.035-.495.054-.991.085-1.563-6.336,2.93-8.893,2.751-9.839-.6.15-.075.345-.256.445-.208,3.044,1.28,5.417-.455,7.923-1.7a15.262,15.262,0,0,1,4.11-1.635c2.02-.332,2.62.559,1.781,2.458-2.383,5.392-1.957,11.059-1.6,16.679a10.971,10.971,0,0,0,1.762,4.654c1.062,1.766,2.836,1.856,4.827,1.149.245-2.373.495-4.779.744-7.179Z" transform="translate(-594.514 -19.981)" fill="#fff"/>
    <path id="パス_2902" data-name="パス 2902" d="M554.382,158.645c-1.475.488-2.853.979-4.253,1.392a3.645,3.645,0,0,1-1.745.208c-1.087-.247-1.294-1.2-.49-1.972.314-.3.767-.453,1.093-.742a7.9,7.9,0,0,0,.806-.981c-3.291-2.092-3.289-2.09,0-3.985.121-.069.148-.3.274-.592-.769-.592-1.565-1.2-2.591-1.989,2.161-1.621,4.492-2.171,6.693-2.938a15.367,15.367,0,0,1,3.9-.682c1.627-.121,2.078.285,1.949,1.986a37.4,37.4,0,0,1-1.76,10.119c-.416,1.151-.848,2.286-1.282,3.47C554.7,162.331,554.473,162.08,554.382,158.645Zm2.19-9.463c-1.741.4-3.09.821-3.9,2.238.79.5,1.486.931,2.134,1.336-.208,1.455-2.271,1.949-1.363,3.576,2.041.148,2.2.162,2.352-.746C556.125,153.534,556.3,151.468,556.572,149.183Z" transform="translate(-433.595 -115.936)" fill="#fff"/>
    <path id="パス_2903" data-name="パス 2903" d="M734.781,85c-2.493-.06-3.248-.908-3.117-3.277.1-1.833.249-3.661.378-5.506-1.322-.761-3.117-.071-3.913-1.924a11.217,11.217,0,0,0,1.141-.172c2.078-.555,2.7-1.509,2.344-3.634-.173-1.018-.453-2.018-.727-3.217H734c.268,1.276.528,2.527.742,3.532.893,1.18,2.791-.17,3.117,1.629-.114.2-.185.455-.289.47-2.163.316-2.855,1.662-2.807,3.707C734.831,79.411,734.781,82.206,734.781,85Z" transform="translate(-576.832 -53.292)" fill="#fff"/>
    <path id="パス_2904" data-name="パス 2904" d="M565,52.16a22.767,22.767,0,0,1,9.041,3.194,57.507,57.507,0,0,0,5.195,2.579c.921.453,2.178.715,1.608,2.2-.4,1.039-1.4,1.278-2.949.58-1.346-.6-2.587-1.44-3.9-2.13a46.174,46.174,0,0,0-5.635-2.824C566.635,55.144,565.954,53.872,565,52.16Z" transform="translate(-447.599 -41.322)" fill="#fff"/>
    <path id="パス_2905" data-name="パス 2905" d="M523.2,175.369c-2.092.37-3.044-.069-3.669-1.606q-1.007-2.494-2.005-4.958C521.046,167.72,523.49,170.334,523.2,175.369Z" transform="translate(-409.993 -133.536)" fill="#fff"/>
    <path id="パス_2906" data-name="パス 2906" d="M696.622,76.693c-2.7,1.176-4.017.638-5.161-1.964A3.973,3.973,0,0,1,696.622,76.693Z" transform="translate(-547.782 -58.963)" fill="#fff"/>
    <path id="パス_2907" data-name="パス 2907" d="M159.491,98.008l1.974,3.435c-2.635.53-3.867-.492-4.555-4.062l2.672.717Z" transform="translate(-124.306 -77.145)" fill="#fff"/>
  </g>
</svg>
