<svg xmlns="http://www.w3.org/2000/svg" width="614" height="185.36" viewBox="0 0 614 185.36"><defs><style>.a{isolation:isolate;}.b{fill:#091331;}.c{fill:#1e4068;}.d{fill:none;}</style></defs><g class="a"><g class="a"><path class="b" d="M185.82,57.6H199a5.93,5.93,0,0,1,3.41.93A4.21,4.21,0,0,1,204.17,61l9.27,35.22q.47,1.71.93,3.66a32.129,32.129,0,0,1,.69,4.08c.31-1.45.65-2.82,1-4.1s.73-2.5,1.07-3.64L228.08,61a4.93,4.93,0,0,1,1.79-2.34,5.32,5.32,0,0,1,3.31-1h4.63a5.84,5.84,0,0,1,3.36.9A4.63,4.63,0,0,1,243,61l10.85,35.2c.34,1.08.69,2.23,1.06,3.45s.7,2.53,1,3.92c.24-1.36.5-2.66.76-3.89s.53-2.4.81-3.48L266.73,61a4.47,4.47,0,0,1,1.76-2.36,5.5,5.5,0,0,1,3.34-1h12.32L263.3,125.12H249.12l-12.7-41.85c-.21-.65-.44-1.36-.67-2.13s-.45-1.59-.67-2.46c-.22.87-.44,1.69-.67,2.46s-.46,1.48-.67,2.13l-12.89,41.85H206.67Z"/><path class="b" d="M311,76.32A27.54,27.54,0,0,1,321,78a21.44,21.44,0,0,1,12.72,12.67A28,28,0,0,1,335.5,101a28.5,28.5,0,0,1-1.79,10.36A21.57,21.57,0,0,1,321,124.12a27.33,27.33,0,0,1-10,1.74,27.71,27.71,0,0,1-10-1.74,22.43,22.43,0,0,1-7.79-5,22,22,0,0,1-5-7.83A28.5,28.5,0,0,1,286.38,101a28,28,0,0,1,1.78-10.26,21.92,21.92,0,0,1,5-7.76A22.32,22.32,0,0,1,301,78,27.93,27.93,0,0,1,311,76.32Zm0,38.88q5,0,7.3-3.5t2.34-10.63q0-7.14-2.34-10.62T311,87c-3.4,0-5.88,1.16-7.46,3.47s-2.36,5.86-2.36,10.62.79,8.3,2.36,10.63S307.63,115.2,311,115.2Z"/><path class="b" d="M345.14,125.12V77.06h8.52a7.49,7.49,0,0,1,1.79.19,3.06,3.06,0,0,1,1.2.58,2.41,2.41,0,0,1,.74,1,9,9,0,0,1,.44,1.58l.79,4.49a23.48,23.48,0,0,1,5.93-6.44,12,12,0,0,1,7.19-2.36A8.28,8.28,0,0,1,377,77.71l-1.86,10.57a2,2,0,0,1-.74,1.36,2.45,2.45,0,0,1-1.48.4,9.69,9.69,0,0,1-1.85-.21,14.3,14.3,0,0,0-2.69-.21q-5.65,0-8.9,6V125.1Z"/><path class="b" d="M399.54,55.75V94.62h2.13a4.54,4.54,0,0,0,2.06-.37,3.76,3.76,0,0,0,1.37-1.34l9.08-13.53a5,5,0,0,1,1.88-1.76,6,6,0,0,1,2.76-.56H432l-12.42,17.1a12.8,12.8,0,0,1-1.93,2.13A15.339,15.339,0,0,1,415.39,98a14.111,14.111,0,0,1,3.61,4.17l13.53,23h-13a6.74,6.74,0,0,1-2.81-.54,4.17,4.17,0,0,1-1.92-1.87l-9.08-17a3.58,3.58,0,0,0-1.35-1.51,4.84,4.84,0,0,0-2.08-.34h-2.78v21.27H385.17V55.75Z"/><path class="b" d="M455.15,55.75v69.37H440.78V55.75Z"/><path class="b" d="M489.9,76.32a27.58,27.58,0,0,1,10,1.72A21.84,21.84,0,0,1,507.58,83a22.23,22.23,0,0,1,5,7.76A28,28,0,0,1,514.37,101a28.5,28.5,0,0,1-1.79,10.36,22.249,22.249,0,0,1-5,7.83,22,22,0,0,1-7.72,5,27.371,27.371,0,0,1-10,1.74,27.68,27.68,0,0,1-10-1.74,22.34,22.34,0,0,1-7.79-5,21.81,21.81,0,0,1-5.05-7.83A28.5,28.5,0,0,1,465.25,101,28,28,0,0,1,467,90.71,21.79,21.79,0,0,1,472.08,83a22.22,22.22,0,0,1,7.79-5,27.89,27.89,0,0,1,10.03-1.68Zm0,38.88c3.3,0,5.74-1.17,7.3-3.5s2.34-5.88,2.34-10.63-.78-8.3-2.34-10.62-4-3.47-7.3-3.47-5.89,1.16-7.46,3.47-2.36,5.86-2.36,10.62.78,8.3,2.36,10.63S486.5,115.2,489.9,115.2Z"/><path class="b" d="M541,76.23a26.6,26.6,0,0,1,5.77.6,22.58,22.58,0,0,1,5,1.72h14.51v5.23a2.6,2.6,0,0,1-.68,1.9,4.53,4.53,0,0,1-2.29,1.07l-3.52.78a14.585,14.585,0,0,1,.65,4.32,13.79,13.79,0,0,1-1.51,6.48,14.68,14.68,0,0,1-4.12,4.89,19.461,19.461,0,0,1-6.19,3.11,26.291,26.291,0,0,1-7.65,1.08,31.8,31.8,0,0,1-4.26-.27,2.6,2.6,0,0,0-1.57,2.15A1.8,1.8,0,0,0,536.4,111a11.82,11.82,0,0,0,3.36.75q2.09.21,4.77.21c1.79,0,3.62.09,5.47.26a43.249,43.249,0,0,1,5.47.86,14.52,14.52,0,0,1,4.77,1.95,10.2,10.2,0,0,1,3.36,3.6,11.581,11.581,0,0,1,1.28,5.74,14,14,0,0,1-1.58,6.37,16.649,16.649,0,0,1-4.63,5.53,24.19,24.19,0,0,1-7.51,3.89,32.821,32.821,0,0,1-10.2,1.46,39.09,39.09,0,0,1-9.75-1.07,23.621,23.621,0,0,1-6.81-2.8,11.74,11.74,0,0,1-4-4,9.35,9.35,0,0,1-1.3-4.73,7.86,7.86,0,0,1,1.95-5.4,13,13,0,0,1,5.33-3.46,7.66,7.66,0,0,1-3.57-6.94,7.338,7.338,0,0,1,.37-2.24,8.108,8.108,0,0,1,1.16-2.29,11.558,11.558,0,0,1,2-2.13,13.167,13.167,0,0,1,2.87-1.81,15.59,15.59,0,0,1-5.9-5.28,13.59,13.59,0,0,1-2.16-7.64,13.781,13.781,0,0,1,1.53-6.52,14.841,14.841,0,0,1,4.19-4.91,19.72,19.72,0,0,1,6.28-3.1A26.9,26.9,0,0,1,541,76.23Zm10.66,50.54a2.52,2.52,0,0,0-.72-1.89,5.11,5.11,0,0,0-1.94-1.14,13.45,13.45,0,0,0-2.88-.61,30,30,0,0,0-3.54-.19H538.6a20.93,20.93,0,0,1-4-.39,9.289,9.289,0,0,0-2.2,2.06,4.19,4.19,0,0,0-.86,2.58,4,4,0,0,0,.44,1.86,3.58,3.58,0,0,0,1.55,1.44,10.42,10.42,0,0,0,3,.95,27,27,0,0,0,4.75.35,28.389,28.389,0,0,0,5.1-.38,10.489,10.489,0,0,0,3.17-1,3.85,3.85,0,0,0,1.65-1.59,4.37,4.37,0,0,0,.42-2.05ZM541,98.56c2.38,0,4.11-.59,5.17-1.78a6.64,6.64,0,0,0,1.6-4.61,6.34,6.34,0,0,0-1.6-4.59c-1.06-1.11-2.79-1.67-5.17-1.67s-4.1.56-5.16,1.67a6.34,6.34,0,0,0-1.6,4.59,7.928,7.928,0,0,0,.39,2.55,5.211,5.211,0,0,0,1.23,2,5.761,5.761,0,0,0,2.11,1.35A8.6,8.6,0,0,0,541,98.56Z"/></g></g><path class="c" d="M81.12,108.9h0V55.61a23.17,23.17,0,0,1,23.17,23.17v21a8.26,8.26,0,0,0,8.11,8H139a29,29,0,0,1-29,29h0A29,29,0,0,1,81.12,108.9Z"/><circle class="b" cx="9.85" cy="9.85" r="9.85" transform="translate(113.53 57.92)"/><circle class="b" cx="9.85" cy="9.85" r="9.85" transform="translate(113.53 82.25)"/><path class="b" d="M64,134.43A29,29,0,0,1,48.62,119a28.7,28.7,0,0,1-2.28-11.27V49.82A23.16,23.16,0,0,1,69.51,73v34.76h34.75A29,29,0,0,1,64,134.43Zm5.48-26.69v-8a7.94,7.94,0,0,0,2.4,5.54,8.55,8.55,0,0,0,5.71,2.43H69.51Z"/><rect class="d" width="614" height="185.36"/><g class="a"><g class="a"><path class="b" d="M285.86,146.06v3.38h-2.35V139.32h3.57a5.93,5.93,0,0,1,1.84.25,3.47,3.47,0,0,1,1.26.7,2.83,2.83,0,0,1,.74,1,3.72,3.72,0,0,1,.23,1.31,3.94,3.94,0,0,1-.24,1.39,2.7,2.7,0,0,1-.75,1.08,3.49,3.49,0,0,1-1.26.71,5.84,5.84,0,0,1-1.82.25Zm0-1.77h1.22a1.49,1.49,0,0,0,1.72-1.66,1.829,1.829,0,0,0-.1-.64,1.34,1.34,0,0,0-.32-.49,1.46,1.46,0,0,0-.53-.31,2.24,2.24,0,0,0-.77-.11h-1.22Z"/><path class="b" d="M299.23,139.32v1.81h-4.16v2.36h3.19v1.74h-3.19v2.41h4.16v1.8h-6.52V139.32Z"/><path class="b" d="M303.25,145.7v3.74H300.9V139.32h3.29a6.879,6.879,0,0,1,1.88.22,3.55,3.55,0,0,1,1.26.63,2.37,2.37,0,0,1,.71,1,3.069,3.069,0,0,1,.22,1.19,3.121,3.121,0,0,1-.13.93,3,3,0,0,1-.39.81,3.11,3.11,0,0,1-.64.67,3.29,3.29,0,0,1-.87.47,2.141,2.141,0,0,1,.44.3,1.48,1.48,0,0,1,.36.42l2.15,3.52h-2.12a.89.89,0,0,1-.85-.44l-1.68-2.94a.81.81,0,0,0-.27-.28,1,1,0,0,0-.42-.08Zm0-1.62h.94A2.491,2.491,0,0,0,305,144a1.509,1.509,0,0,0,.55-.34,1.24,1.24,0,0,0,.31-.5,1.851,1.851,0,0,0,.1-.63,1.3,1.3,0,0,0-.43-1,2,2,0,0,0-1.35-.37h-.94Z"/><path class="b" d="M316.12,141.38a.92.92,0,0,1-.22.25.52.52,0,0,1-.29.08.81.81,0,0,1-.35-.1l-.42-.23a2.921,2.921,0,0,0-.53-.22,2,2,0,0,0-.68-.11,1.43,1.43,0,0,0-1,.29.94.94,0,0,0-.33.76.69.69,0,0,0,.2.5,1.64,1.64,0,0,0,.51.35,5,5,0,0,0,.72.27l.83.27a7.643,7.643,0,0,1,.83.35,2.93,2.93,0,0,1,.73.52,2.42,2.42,0,0,1,.51.76,2.71,2.71,0,0,1,.19,1.08,3.511,3.511,0,0,1-.24,1.31,3,3,0,0,1-.71,1.07,3.27,3.27,0,0,1-1.14.72,4.32,4.32,0,0,1-1.54.26,5.4,5.4,0,0,1-1-.1,6.111,6.111,0,0,1-.95-.28,4.56,4.56,0,0,1-.86-.42,3.51,3.51,0,0,1-.7-.54l.69-1.1a.6.6,0,0,1,.52-.27.76.76,0,0,1,.42.13l.48.29a3.851,3.851,0,0,0,.61.29,2.28,2.28,0,0,0,.82.13,1.57,1.57,0,0,0,1-.28,1.08,1.08,0,0,0,.35-.89.85.85,0,0,0-.19-.58,1.53,1.53,0,0,0-.51-.37,5,5,0,0,0-.72-.25l-.83-.25a6.52,6.52,0,0,1-.83-.33,2.68,2.68,0,0,1-.72-.53,2.391,2.391,0,0,1-.51-.8,3.19,3.19,0,0,1-.19-1.19,2.769,2.769,0,0,1,.23-1.12,2.74,2.74,0,0,1,.67-1,3.25,3.25,0,0,1,1.09-.68,4,4,0,0,1,1.48-.25,5.411,5.411,0,0,1,.91.07,5.729,5.729,0,0,1,.84.21,4.571,4.571,0,0,1,.74.35,3.529,3.529,0,0,1,.61.44Z"/><path class="b" d="M328.34,144.38a5.48,5.48,0,0,1-.38,2,4.88,4.88,0,0,1-2.73,2.74,5.68,5.68,0,0,1-2.15.4,5.75,5.75,0,0,1-2.15-.4,4.86,4.86,0,0,1-2.74-2.74,5.84,5.84,0,0,1,0-4.09,5.06,5.06,0,0,1,1.07-1.64,5.2,5.2,0,0,1,1.67-1.09,5.75,5.75,0,0,1,2.15-.39,5.49,5.49,0,0,1,2.15.4,4.89,4.89,0,0,1,1.66,1.09,4.81,4.81,0,0,1,1.07,1.64A5.479,5.479,0,0,1,328.34,144.38Zm-2.41,0a4.358,4.358,0,0,0-.19-1.35,3,3,0,0,0-.56-1,2.39,2.39,0,0,0-.89-.64,3.44,3.44,0,0,0-2.42,0,2.51,2.51,0,0,0-.9.64,3,3,0,0,0-.56,1,4.359,4.359,0,0,0-.19,1.35,4.429,4.429,0,0,0,.19,1.36,2.82,2.82,0,0,0,.56,1,2.51,2.51,0,0,0,.9.64,3.44,3.44,0,0,0,2.42,0,2.39,2.39,0,0,0,.89-.64,2.82,2.82,0,0,0,.56-1A4.431,4.431,0,0,0,325.93,144.38Z"/><path class="b" d="M331.29,139.33h.19a.909.909,0,0,1,.16.11,1.719,1.719,0,0,1,.17.19l4.81,6.08v-6.44h2.07v10.12h-1.22a1.05,1.05,0,0,1-.46-.08.9.9,0,0,1-.36-.3l-4.78-6v6.42H329.8V139.32h1.49Z"/><path class="b" d="M350.07,149.44h-1.82a.81.81,0,0,1-.51-.14.69.69,0,0,1-.27-.36l-.6-1.77H343l-.6,1.77a.87.87,0,0,1-.27.35.79.79,0,0,1-.49.15H339.8l3.92-10.12h2.41Zm-6.51-3.87h2.77l-.93-2.77c-.06-.18-.13-.38-.22-.62s-.16-.5-.24-.78c-.07.29-.15.55-.23.79a6.125,6.125,0,0,1-.22.62Z"/><path class="b" d="M353.57,147.57h3.75v1.87h-6.1V139.32h2.35Z"/><path class="b" d="M371,144.38a5.3,5.3,0,0,1-.38,2,4.831,4.831,0,0,1-1.07,1.61,5,5,0,0,1-1.66,1.06,5.88,5.88,0,0,1-2.15.37h-3.93v-10.1h3.93a5.88,5.88,0,0,1,2.15.38,4.75,4.75,0,0,1,2.73,2.66A5.34,5.34,0,0,1,371,144.38Zm-2.41,0a4.471,4.471,0,0,0-.19-1.36,3,3,0,0,0-.56-1,2.45,2.45,0,0,0-.9-.65,3,3,0,0,0-1.2-.22h-1.57v6.51h1.57a3,3,0,0,0,1.2-.23,2.34,2.34,0,0,0,.9-.65,2.86,2.86,0,0,0,.56-1,4.43,4.43,0,0,0,.17-1.4Z"/><path class="b" d="M374.78,145.7v3.74h-2.34V139.32h3.29a6.76,6.76,0,0,1,1.87.22,3.51,3.51,0,0,1,1.27.63,2.37,2.37,0,0,1,.71,1,3.07,3.07,0,0,1,.22,1.19,3.121,3.121,0,0,1-.13.93,3,3,0,0,1-.39.81,3.38,3.38,0,0,1-.64.67,3.289,3.289,0,0,1-.87.47,2.45,2.45,0,0,1,.44.3,1.89,1.89,0,0,1,.36.42l2.15,3.52h-2.13a.88.88,0,0,1-.84-.44l-1.69-2.94a.71.71,0,0,0-.26-.28,1,1,0,0,0-.42-.08Zm0-1.62h1a2.49,2.49,0,0,0,.82-.12,1.51,1.51,0,0,0,.55-.34,1.24,1.24,0,0,0,.31-.5,1.85,1.85,0,0,0,.1-.63,1.33,1.33,0,0,0-.43-1,2,2,0,0,0-1.35-.37h-1Z"/><path class="b" d="M384.59,149.44h-2.37V139.32h2.37Z"/><path class="b" d="M386,139.32h1.89a.78.78,0,0,1,.5.14.75.75,0,0,1,.28.37l2,5.42c.09.23.18.49.27.77s.17.57.25.87c.07-.3.14-.59.23-.87s.17-.54.25-.77l2-5.42a.75.75,0,0,1,.27-.36.79.79,0,0,1,.49-.15h1.91l-4.06,10.12H390Z"/><path class="b" d="M403.9,139.32v1.81h-4.16v2.36h3.18v1.74h-3.18v2.41h4.16v1.8h-6.52V139.32Z"/><path class="b" d="M407.06,139.33h.19l.16.11.17.19,4.81,6.08v-6.44h2.07v10.12h-1.22a1.08,1.08,0,0,1-.46-.08,1.06,1.06,0,0,1-.36-.3l-4.77-6v6.42h-2.07V139.32h1.5Z"/><path class="b" d="M422,149.44h-2.36V139.32H422Z"/><path class="b" d="M425.7,139.33h.19l.16.11a1.724,1.724,0,0,1,.17.19l4.81,6.08v-6.44h2.07v10.12h-1.23a1.08,1.08,0,0,1-.46-.08,1.06,1.06,0,0,1-.36-.3l-4.77-6v6.42h-2.07V139.32h1.49Z"/><path class="b" d="M436.54,139.33h.19a.909.909,0,0,1,.16.11,1.721,1.721,0,0,1,.17.19l4.81,6.08v-6.44h2.07v10.12h-1.22a1.05,1.05,0,0,1-.46-.08.9.9,0,0,1-.36-.3l-4.78-6v6.42h-2.07V139.32h1.49Z"/><path class="b" d="M455.89,144.38a5.479,5.479,0,0,1-.38,2,4.88,4.88,0,0,1-2.73,2.74,6,6,0,0,1-4.3,0,4.81,4.81,0,0,1-1.67-1.1,5,5,0,0,1-1.07-1.64,5.69,5.69,0,0,1,0-4.09,4.8,4.8,0,0,1,2.74-2.73,5.711,5.711,0,0,1,2.15-.39,5.49,5.49,0,0,1,2.15.4,4.89,4.89,0,0,1,1.66,1.09,4.81,4.81,0,0,1,1.07,1.64,5.479,5.479,0,0,1,.38,2.08Zm-2.41,0a4.358,4.358,0,0,0-.19-1.35,3,3,0,0,0-.56-1,2.39,2.39,0,0,0-.89-.64,3.11,3.11,0,0,0-1.21-.22,3.07,3.07,0,0,0-1.21.22,2.51,2.51,0,0,0-.9.64,3,3,0,0,0-.56,1,4.359,4.359,0,0,0-.19,1.35,4.431,4.431,0,0,0,.19,1.36,2.82,2.82,0,0,0,.56,1,2.51,2.51,0,0,0,.9.64,3.07,3.07,0,0,0,1.21.22,3.11,3.11,0,0,0,1.21-.22,2.39,2.39,0,0,0,.89-.64,2.82,2.82,0,0,0,.56-1,4.432,4.432,0,0,0,.19-1.36Z"/><path class="b" d="M456.1,139.32H458a.8.8,0,0,1,.5.14.75.75,0,0,1,.28.37l2,5.42c.08.23.17.49.26.77s.18.57.26.87c.06-.3.14-.59.22-.87s.17-.54.26-.77l1.94-5.42a.9.9,0,0,1,.27-.36.82.82,0,0,1,.5-.15h1.9l-4.06,10.12h-2.12Z"/><path class="b" d="M475.54,149.44h-1.82a.8.8,0,0,1-.5-.14.77.77,0,0,1-.28-.36l-.59-1.77H468.5l-.6,1.77a.87.87,0,0,1-.27.35.82.82,0,0,1-.5.15H465.3l3.92-10.12h2.4Zm-6.5-3.87h2.76l-.93-2.77-.21-.62q-.12-.36-.24-.78c-.07.29-.15.55-.23.79s-.15.45-.22.62Z"/><path class="b" d="M482.94,139.32v1.86h-2.85v8.26h-2.35v-8.26h-2.85v-1.86Z"/><path class="b" d="M486.82,149.44h-2.36V139.32h2.36Z"/><path class="b" d="M499,144.38a5.479,5.479,0,0,1-.37,2,5,5,0,0,1-1.07,1.64,4.77,4.77,0,0,1-1.66,1.1,6,6,0,0,1-4.3,0,4.86,4.86,0,0,1-2.74-2.74,5.69,5.69,0,0,1,0-4.09,4.9,4.9,0,0,1,1.07-1.64,5.09,5.09,0,0,1,1.67-1.09,5.68,5.68,0,0,1,2.15-.39,5.53,5.53,0,0,1,2.15.4,4.89,4.89,0,0,1,1.66,1.09,5,5,0,0,1,1.07,1.64A5.481,5.481,0,0,1,499,144.38Zm-2.4,0a4.68,4.68,0,0,0-.19-1.35,3,3,0,0,0-.56-1,2.51,2.51,0,0,0-.9-.64,3,3,0,0,0-1.2-.22,3.07,3.07,0,0,0-1.21.22,2.35,2.35,0,0,0-.9.64,3,3,0,0,0-.56,1,4.359,4.359,0,0,0-.19,1.35,4.429,4.429,0,0,0,.19,1.36,2.821,2.821,0,0,0,.56,1,2.35,2.35,0,0,0,.9.64,3.07,3.07,0,0,0,1.21.22,3,3,0,0,0,1.2-.22,2.51,2.51,0,0,0,.9-.64,2.819,2.819,0,0,0,.56-1,4.747,4.747,0,0,0,.21-1.36Z"/><path class="b" d="M502,139.33h.19l.16.11a1.725,1.725,0,0,1,.17.19l4.81,6.08v-6.44h2.08v10.12H508.1a1.08,1.08,0,0,1-.46-.08,1.06,1.06,0,0,1-.36-.3l-4.77-6v6.42h-2.08V139.32H502Z"/></g></g></svg>