<svg xmlns="http://www.w3.org/2000/svg" width="574.43" height="151.794" viewBox="0 0 574.43 151.794">
  <g id="レイヤー_2" data-name="レイヤー 2" transform="translate(0 -0.001)">
    <g id="レイヤー_1" data-name="レイヤー 1">
      <path id="パス_2914" data-name="パス 2914" d="M194.78,37.91c-11.15,3.29-21.84,7.3-29-7.07h14L167.32,14.11,169,12.05a41.45,41.45,0,0,1,5.28,2.42c4.57,2.86,8.89,6.12,13.55,8.82,5.45,3.15,10.4,2.23,14.68-2.6,5-5.59,10.11-11,15.2-16.54l-3.7-4c5.34,0,9.37-.4,13.28.11,4.17.54,7.64,4.05,7.13,7.6-.8,5.58,2.39,9.48,4.11,14.77L204.27,33.77c.78,2.4,1.57,4.87,2.68,8.28,4.25-1.66,8-3,11.67-4.57,9.62-4.1,12-3.27,17.86,6.66-5.32,3.45-10.72-3.22-16.43.56-4.37,2.88-10.16,3.62-15.81,5.48V65.45c11.25-2.38,22.06-4.43,32.74-7,5.84-1.41,11.25-1.69,16.93.79,4.25,1.85,5.54,4.57,4.69,9.3l-64.18,11.2L188,89.07c1.59,4.76,3.21,9.58,4.93,14.71,9.27-3.49,20.2-3.33,29.65-9.2-1.14-5.52-2.21-10.66-3.39-16.35,8.39.77,10.28,6.86,12.61,12.26,7.14,1.43,16-4.72,21.51,5.92l-19.06,4.84c3.29,8.43,4.25,16.39,11.49,21.71,5.36-4.94,9.81-11.15,17.13-13.57,3.7,7.69.45,24.85-5.4,29.23-3.32,2.49-6.12,1.24-9.2-1.1-9.5-7.23-16-16.67-21-27.31-.71-1.51-1.32-3.06-2.31-5.4-2.41,1.15-5.18,1.57-6.32,3.15A119.079,119.079,0,0,1,189,137.21c-1.33.91-2.14,2.61-3.27,4l3.35,8.39c-2.6,2.87-5.12,2.73-7.42.71-6.38-5.59-12.65-11.33-18.9-17.07a9.79,9.79,0,0,1-1.38-2.56c17.51-2.75,17.51-2.75,18.89-13.78-6.22,3-12.18,2.62-17.26-1.29-2-1.58-2.92-4.65-4.22-6.86,6.07-.81,10.81-1.78,15.58-2,7.2-.31,7.41-4.5,5.94-11.06L165.64,104l-1.21-1,14.15-20c-7.82-2.33-18.43.81-19-11l33.88-5V55.18l-14.81,3.09L169.24,51C179.86,47.88,191.54,51.35,194.78,37.91Zm-3.4,82L204,112.1c-7.8-1.1-12.1.29-12.62,7.76Z" fill="#fff"/>
      <path id="パス_2915" data-name="パス 2915" d="M5,93.69l-5-1.1C9.19,69,19.45,45.74,24.76,20.87l-5-5.42.54-1.17,9.73,4c1.68,10.63-1.18,20-4.58,30.12,7.23.45,11.27-5.5,17.88-6.36,1.67-9,3.32-17.9,5-26.92C54,16,56.28,18.73,54.53,25c-1,3.51-.57,7.41-.84,12.05,2.15-.6,3.73-.74,5-1.44,8.36-4.55,16-5.53,21.78,5.47-8.12,7.06-19.86,5.2-30.65,10,0,3.76.24,8.14-.07,12.47-.29,3.92-1.18,7.8-2.06,13.26,7.91-3.14,14.43-5.83,21-8.31A63.45,63.45,0,0,1,77.53,66c7.24-1.58,12.51.64,15,8.43L59.26,83.24c5.83,6.16,4.59,11.81,3.34,18.29-1.78,9.17-1.19,18.8-1.68,29.71l26.63-2C94,117.4,92,102.54,101.78,91.88c-1.41,16,7.84,31.79,1.63,47.25-11.28,1.1-21.1,2.28-31,3-9.06.64-16.47-6.44-19.19-14.93-3.91-12.16.2-23.58,1.22-35.3.11-1.28.37-2.54.81-5.41L38.46,91.8c6.13,11.35,2.72,22.16-3.24,31-7.18,10.62-18,18.28-29.37,25,6.81-18.5,22.32-32.43,27.56-53-7.3,1.84-13.68,3.56-20.11,5-5.19,1.18-6.53,0-8.4-6.34,12.3-4.63,24.63-9.22,36.47-13.63V53.37L30.18,58.79,23.44,54.3A68.15,68.15,0,0,1,8.22,83.47C5.52,86.54,4.17,89.68,5,93.69Z" fill="#fff"/>
      <path id="パス_2916" data-name="パス 2916" d="M486.12,43.44l-16.47,9.17c6-12.17,16.73-21.06,21.18-35.14,1.28,0,4.05-.61,6.35.18,2.06.7,4.66,2.63,5.19,4.53,2.28,8.16-5.06,10.81-8.25,13.7.44,8.5.81,15.61,1.2,23.28,8.16-3.6,16.61-9,24.54,2.77C513,64.13,507,66.23,500.91,68c-8,2.29-12.33,6.76-10.45,15.26L509.73,99c-6.22,3.89-6.22,3.89-19.24-3.56-3.33,8.11-3.75,23.91-.89,33.47-6.6,2.65-11.37.1-11.34-6.52s.78-13.32,1.28-21.07l-23.82,22-2.15-1.78c4.57-7.06,9.23-14.06,13.68-21.19s8.74-14.54,13.46-22.4c-5.23-2.11-9.31,4.86-13.78.25-3.13-3.23-8.25-4.69-9.21-9.74,4.55,0,8.68.44,12.68-.12s7.86-2.14,12.9-3.58C484.1,58.64,485,52.07,486.12,43.44Z" fill="#fff"/>
      <path id="パス_2917" data-name="パス 2917" d="M407,77.22l-13,25.36c5.27,3.67,10.85,8,16.91,11.56,2.42,1.41,5.88,1.36,8.88,1.42,8.45.18,16.9.06,26.62.06-3.93,9.44-9,13.63-18.1,13.8-7.95.15-15.09.89-21.48-5.91-4.72-5-11.45-8.2-17.62-12.42-11.4,6.31-18.77,18.71-33.54,20.63C360.75,125.83,365.93,120,371,114a88.242,88.242,0,0,0,7.42-9.64,4.53,4.53,0,0,0-.6-4.39,4.68,4.68,0,0,0-4.44-.32c-2.88,1.79-5.21,4.46-8.08,6.27-3.51,2.22-7.34,3.92-11,5.85L352.87,110c3-4.38,6.19-8.65,9-13.15,6.56-10.53,14.33-19.27,27.61-21,2.65-.35,5.14-1.73,7.76-2.43C401.41,72.21,401.42,72.29,407,77.22Zm-16.6,8.47c-.54-.59-1.08-1.18-1.63-1.76L377.86,92.4C387,95.33,387.12,95.24,390.4,85.69Z" fill="#fff"/>
      <path id="パス_2918" data-name="パス 2918" d="M574.43,133.73c-21.09,1.22-34.6-9-45.62-24.1,10.86,4.44,19.11,15.37,33.08,13.25-6-33.93-1.25-67.76-3.21-101.74,8.82,1.63,11.39,3.53,11.39,10,0,14.71-.92,29.41-.88,44.12,0,12.63.56,25.28,1.46,37.88C571.11,119.4,572.9,125.62,574.43,133.73Z" fill="#fff"/>
      <path id="パス_2919" data-name="パス 2919" d="M360.13,68.36c4.66-8.69,9.12-17,13.59-25.35-1.57-2.8-4.9-6-4.61-8.93.32-3.15,3.91-6,6.22-8.9,2.66-3.3,5.48-6.48,8.92-10.54,2.91,1.12,8.47.51,9.13,7.87.16,1.81,4.19,3.27,6.88,5.2-5.28,5.78-10.32,11-15,16.53a94.589,94.589,0,0,0-12.64,18.18c9.09-4.09,20.21-5.46,22.15-19.93,4.4,4,8.77,6.77,11.58,10.69,4.7,6.55,8.39,13.82,12.63,21-6.23,4-9.32-.06-12.39-2.75s-5.36-6-8.64-9.72c-5.57,3.27-10.81,6.3-16,9.41C373.81,76,367.34,75.42,360.13,68.36Z" fill="#fff"/>
      <path id="パス_2920" data-name="パス 2920" d="M344.11,35.2c4.61-.18,9.83-2.42,13.16,2.64,3.46,5.26-1.93,7.95-4.07,11.44-3.9,6.37-8.1,12.55-11.42,17.63,0,8.2.82,15.68-.19,22.89-1.57,11.3-5.72,22.33-2.08,33.94a6.3,6.3,0,0,1-.12,3c-.12.61-.7,1.12-1.3,2-5.11.1-8.43-2.49-8.4-7.67.05-8.84.76-17.69,1.34-26.52.31-4.55,1-9.07.39-14.09-7.42,8.39-12.91,18.1-23.68,25.39.72-3.27.76-5.11,1.52-6.59a282.781,282.781,0,0,1,30-47.39c2.09-2.66,3.39-5.93,5.47-8.6,2.39-3.07,1.22-5.7-.24-8.48Z" fill="#fff"/>
      <path id="パス_2921" data-name="パス 2921" d="M344.46,34.85c-2.8,2.23-5.87,4.2-8.35,6.75-7.77,8-15.31,16.2-24.58,23.45.44-2,.44-4.3,1.38-6.06,5.92-11.17,11.56-22.52,18.31-33.17,2.94-4.64,3.95-8.81,2.11-15.14,2.44,1.05,3.53,1.52,4.61,2,11.18,5,12,7.45,6.7,18.62-.54,1.13-.38,2.59-.54,3.9Z" fill="#fff"/>
      <path id="パス_2922" data-name="パス 2922" d="M537,50.05c2.52,9.76-.43,16.38-6.14,22.53-6.18-3.87-6-9.21-5.6-14.7.25-3.11.34-6.23.52-9.71C530.24,43.78,533.32,49,537,50.05Z" fill="#fff"/>
      <path id="パス_2923" data-name="パス 2923" d="M254.93,82.54c-2.64,5.28-5.56,3.74-8.07,1.89-3-2.23-7.68-3.92-4.33-10.58Z" fill="#fff"/>
    </g>
  </g>
</svg>
