<svg xmlns="http://www.w3.org/2000/svg" width="191.827" height="72.474" viewBox="0 0 191.827 72.474"><defs><style>.a{fill:#fff;}.b{fill:none;}</style></defs><g transform="translate(-0.002 0.01)"><g transform="translate(0.002 -0.01)"><path class="a" d="M476.868,24.18q.385,9.309.773,18.663l.515.155,3.877-5.471-2.694-4.638c2.082-.617,3.24.468,4.674,1.661l4.148-7.1-.382-.49c-1.418.723-2.88,1.384-4.245,2.185a2.438,2.438,0,0,1-3.616-1.418c-.08-.354.1-1.047.352-1.157a36.452,36.452,0,0,1,6.117-2.412,10.508,10.508,0,0,1,4.469.258c1.689.366,2.307,1.778,1.755,3.439-.277.858-.64,1.692-1.049,2.769,1.852-.737,3.456-1.479,5.128-2.013a8.221,8.221,0,0,1,7.03.847c1.3.792,1.573,1.767.692,2.988-2.354,3.265-5.361,5.61-9.489,6.194-.6.086-1.207.1-1.811.144a10.342,10.342,0,0,0,.615,2.279c1.274,2.406,3.323,3.519,6.042,3.987,4.931.845,9.614-.332,14.362-1.168.767-.136.905-.579.831-1.282a78.435,78.435,0,0,1,2.107-27.93c.878-3.384,2.279-6.632,3.431-9.946.537-1.548,1.047-3.107,1.592-4.732C523.6.544,523.3,1.881,523.2,2.842c-.379,4.137-.977,8.251-1.385,12.385-.21,2.124-.177,4.27-.277,6.4a19.163,19.163,0,0,0-.238,2.323c.166,2.16.46,4.311.673,6.465.18,1.83.208,3.68.5,5.488.5,3.14.7,6.369,2.769,9.079.742.975-.324,2.464-1.869,2.644a7.817,7.817,0,0,1-2.343,0c-3.229-.62-6.31.357-9.442.773a33.415,33.415,0,0,1-13.175-.554c-4.594-1.257-7.6-4.472-9.157-9a31.458,31.458,0,0,0-1.479-3.079c-1.805,2.379-3.323,4.43-4.887,6.432-1.3,1.661-2.678,3.267-3.937,4.956a3.6,3.6,0,0,0-.778,1.938c-.039,3.766.033,7.532.083,11.3.017,1.152-1.229,1.789-2.462,1.152a16.925,16.925,0,0,1-2.185-1.443q-3.539-2.583-7.047-5.208a2.118,2.118,0,0,1-.75-1.29l7.249,2.794c.108-1.689.277-3.309.26-4.926,0-.366-.739-.72-1.182-1.121,2.248-1.315,1.335-3.633,1.265-5.613-.133-3.854-.554-7.7-.856-11.546,0-.075-.1-.141-.277-.374a2.776,2.776,0,0,1-3.758.2c-.814,1.7-1.517,3.323-2.359,4.865a3.352,3.352,0,0,1-3.877,1.9c-.811-.244-1.146-.554-.581-1.473a20.515,20.515,0,0,0,2.963-13.87.936.936,0,0,1,.119-.277l7.634,1.639V12.608l-.424-.23c-.864.831-1.689,1.722-2.606,2.492-.523.437-1.318,1.083-1.778.941a5.324,5.324,0,0,1-2.088-1.62c-.15-.161.083-.955.363-1.191a44.951,44.951,0,0,1,6.369-4.984,3.032,3.032,0,0,1,4.259,2.894c-.188,2.694-.042,5.413-.042,8.418,2.068-1.174,3.78-2.091,5.438-3.1a40.382,40.382,0,0,1,14.562-5.319c2.6-.424,5.228-.631,7.584,1.027a2.841,2.841,0,0,1,1.108,3.929A11.355,11.355,0,0,1,501,20.677a6.51,6.51,0,0,1-4.6.966l4.707-8.06c-.119-.15-.238-.3-.354-.446a30.737,30.737,0,0,0-3.395.7c-2.977.953-5.92,2.016-8.886,3-1.426.476-2.894.831-4.3,1.351-.377.138-.626.662-.892,1.038-.208.3-.277.706-.529.955C481.118,21.834,479.482,23.5,476.868,24.18Zm14.983,11.646c1.85,1.13,6.645-2.06,7.867-5.075C496.45,31.559,494.235,33.638,491.851,35.826Z" transform="translate(-333.653 0.01)"/><path class="a" d="M324.049,60.178c-1.706,3.112-3.129,6.106-4.918,8.861a109.591,109.591,0,0,1-6.812,9.268c-.761.936-2.16,1.357-3.289,2.027L324.569,47.26l-.177-.33a48.816,48.816,0,0,0-6.6,2.841c-2.65,1.606-3.924.213-4.984-1.681a23.257,23.257,0,0,1-1.445-4.331l.357-.415c.831.219,1.639.49,2.475.637a4.668,4.668,0,0,0,2.163.111q5.383-1.861,10.68-3.957a2.677,2.677,0,0,0,1.456-1.564c.811-3.4,1.468-6.831,2.171-10.245.177-.853.338-1.711.534-2.716a6.319,6.319,0,0,1,5.006,2.6,2.344,2.344,0,0,1,.075,1.661c-.576,2.564-1.229,5.136-1.916,8.03,1.805-.468,3.367-.9,4.94-1.271q2.885-.681,5.79-1.274a8.367,8.367,0,0,1,5.787,1.274,4.485,4.485,0,0,1,1.531,1.833c.521.964-.061,1.883-1.108,1.681-2.916-.554-5.552.554-8.249,1.207-3.215.789-6.393,1.722-9.569,2.65a2.293,2.293,0,0,0-1.257.936c-2.343,4.212-4.63,8.454-6.922,12.69-.194.357-.343.737-.454.986a20.745,20.745,0,0,0,2.91,1.938c.4.186,1.193-.15,1.661-.465,3.832-2.583,7.955-4.079,12.618-3.162a8.279,8.279,0,0,1,3.522,1.689c2.093,1.714,2.284,3.533.905,5.865-.579.98-1.227,1.919-1.833,2.863a16.308,16.308,0,0,1,2.511,1.415c.886.728.67,1.661-.435,1.728-3.724.277-6.823,2.021-9.968,3.78-1.711.955-4.417-.7-4.452-2.619,0-.2.246-.468.443-.612a5.455,5.455,0,0,1,1.088-.593c4.342-1.783,6.922-5.352,9.162-9.19.831-1.4.493-1.938-1.182-1.9a14.919,14.919,0,0,0-11.3,5.469,3.059,3.059,0,0,0-.357,2.287c.277,1.343.864,2.617,1.207,3.951a1.569,1.569,0,0,1-.3,1.354,1.3,1.3,0,0,1-1.285-.047,19.968,19.968,0,0,1-2.725-4.026C325.912,65.8,325.1,63.126,324.049,60.178Z" transform="translate(-223.462 -18.516)"/><path class="a" d="M26.262,117.2c.831,5.358-1.728,9.6-4.572,13.726a38.224,38.224,0,0,1-9.414,9.777c-1.756,1.227-3.71,2.174-5.538,3.231,3.231-3.511,6.554-6.884,9.6-10.48,3.251-3.818,5.8-8.085,6.54-13.177a15.19,15.19,0,0,0,.033-3.7,2.4,2.4,0,0,0-.939-1.542,7.867,7.867,0,0,0-2.492-1.108c-2.589-.651-2.545-.587-3.42,1.841-.737,2.074-1.573,4.115-2.439,6.139-.155.366-.673.579-.955.806.653,1.908.653,1.908,3.267,1.686-.554.637-1.061,1.747-1.661,1.794a3.365,3.365,0,0,1-2.384-1.18,1.621,1.621,0,0,0-2.531-.41,26.72,26.72,0,0,1-3.924,1.963,4.15,4.15,0,0,1-4.209-.277c-1.49-1.18-1.567-3.087-.512-4.873a23.916,23.916,0,0,1,6.878-7.263,2.052,2.052,0,0,0,1.049-1.905c-.05-1.822-.017-3.649-.017-5.635-2.359.831-4.394.764-5.147-2.151l8.1-5.632,2.464,1.454c1.149-.809,2.65-1.728,4.43-.911a7.125,7.125,0,0,1,1.623,1.445c-.4.435-.723,1.013-1.216,1.274-1.681.892-3.406,1.708-5.145,2.492a2.213,2.213,0,0,0-1.468,1.819l-.709,5.455c1.617.365,2.143-.615,2.75-1.872.786.437,1.484.869,2.215,1.227a6.507,6.507,0,0,0,1.661.587c3.533.606,6.457,2.093,8.132,5.452Zm-17.475-.831c-2.531,2.47-5.062,4.527-5.9,7.941.327.061.388.091.415.075,1.985-1.282,3.982-2.547,5.937-3.877.2-.141.263-.67.21-.991-.147-.936-.382-1.866-.659-3.143Z" transform="translate(-0.002 -71.462)"/><path class="a" d="M260.525,159.542a44.429,44.429,0,0,0,3.483-4.585,15.313,15.313,0,0,0,1.368-4.12c.277-1.108-.462-1.83-1.371-2.307-1.08-.554-1.8-.235-2.282.9-.69,1.634-1.407,3.259-2.129,4.876-.086.194-.277.454-.443.479-2.163.335-4.342,1.03-6.479-.078-2.622-1.357-2.9-3.924-.64-5.754a13.513,13.513,0,0,1,10.024-3.378,7.208,7.208,0,0,1,6.183,4.048,6.883,6.883,0,0,1-4.339,9.589c-1.091.335-2.237.487-3.359.725Zm-2.215-10.348-3.877,2.492c3.087.626,3.439-.011,3.888-2.492Z" transform="translate(-181.143 -105.215)"/><path class="a" d="M121.1,128.345c.831.446,1.661.911,2.509,1.326.294.141.739.33.958.21,1.888-1.027,3.929-1.916,4.682-4.234l-2.769-3,.357-.554a18.337,18.337,0,0,1,2.4.936,7.718,7.718,0,0,1,1.448,1.271c2.14,2.013,1.88,4.131-.831,5.261a40.078,40.078,0,0,1-5.186,1.384c.177,1.542.382,3.3.609,5.228,2.556-.13,5.422-.936,8.013,1.636a13.8,13.8,0,0,1-1.98.617q-2.52.363-5.059.6c-1.2.111-1.631.745-1.684,1.905-.064,1.384-.147,2.849-1.736,3.442a3.1,3.1,0,0,1-1.963.224c-1.711-.665-3.636-1.088-4.508-3.046-.451-1.013-.512-1.869.6-2.437a31.663,31.663,0,0,1,3.6-1.708,1.6,1.6,0,0,0,1.229-1.562c.172-2.426.277-4.843-.991-7.094Z" transform="translate(-83.924 -88.281)"/><path class="a" d="M185.67,121.686c-.473-.235-.8-.3-.944-.49-.462-.623-.858-1.3-1.282-1.938a8.5,8.5,0,0,1,1.526-.615c1.362-.277,2.606-1.022,4.137-.576,1.725.5,2.215,1.517,1.027,2.827-4.707,5.192-7.216,11.546-9.691,17.932-.147.377-.5.955-.753.953a2.046,2.046,0,0,1-1.426-.593,3.311,3.311,0,0,1-.634-3.721c1.362-2.747,2.708-5.51,4.231-8.166C182.951,125.385,184.321,123.646,185.67,121.686Z" transform="translate(-128.206 -85.272)"/><path class="a" d="M94.935,131.44c-.025-3.182,2.079-5.394,3.672-7.947-1.083-.8-2.426-1.465-2.138-3.323,1.778,1.091,3.126.424,4.43-.7,1.445-1.254,2.968-1.324,4.176-.258.554.485.656.875.166,1.617-2.475,3.738-4.873,7.532-7.238,11.353-.7,1.135-1.476,1.238-2.279.13a11.5,11.5,0,0,0-.814-.914Z" transform="translate(-68.631 -85.661)"/><path class="a" d="M225.591,154.469c.366,1.573-.277,2.492-1.828,2.622a6.594,6.594,0,0,1-7.028-4.588l-.091-.26c-1.008-3-1.005-3,1.426-4.984.451-.368.85-.8,1.224-1.16a16.411,16.411,0,0,1-1.581-1.938c-.335-.554-.089-1.108.623-.908a16.144,16.144,0,0,1,3.539,1.293,2.043,2.043,0,0,1,1.2,2.636,2.332,2.332,0,0,1-2.813,1.18,1.583,1.583,0,0,0-1.955.784.975.975,0,0,0-.094.734c.426,1,.93,1.963,1.384,2.957a3.11,3.11,0,0,0,3.021,1.783A23.577,23.577,0,0,0,225.591,154.469Z" transform="translate(-156.199 -103.553)"/><path class="a" d="M557.09,29.57a30.665,30.665,0,0,1,3.633.941,1.481,1.481,0,0,1,.7,1.268c-.086.363-.762.717-1.227.795C558.978,32.779,558.031,31.9,557.09,29.57Z" transform="translate(-402.836 -21.379)"/><path class="b" d="M16.313,162.2c.277,1.276.512,2.215.659,3.151.053.321,0,.85-.21.991-1.955,1.326-3.951,2.592-5.937,3.877-.028.017-.089-.014-.415-.075C11.252,166.727,13.783,164.67,16.313,162.2Z" transform="translate(-7.528 -117.285)"/></g></g></svg>