<svg xmlns="http://www.w3.org/2000/svg" width="277.999" height="361" viewBox="0 0 277.999 361"><defs><style>.a{fill:#fff;}</style></defs><path class="a" d="M287,384H19a5.006,5.006,0,0,1-5-5V28a5.005,5.005,0,0,1,5-5H287a5.005,5.005,0,0,1,5,5V379A5.006,5.006,0,0,1,287,384Zm-37.867-30.314a16.816,16.816,0,0,0-2.3,2.817,19.855,19.855,0,0,0-1.77,3.393,21.242,21.242,0,0,0-1.136,3.791,20.35,20.35,0,0,0-.4,4.011,17.178,17.178,0,0,0,1.076,6.284,13.691,13.691,0,0,0,2.95,4.647,12.54,12.54,0,0,0,4.4,2.891,14.77,14.77,0,0,0,5.413.988,10.969,10.969,0,0,0,4.514-.841,9.668,9.668,0,0,0,3.142-2.228,12.578,12.578,0,0,0,2.124-3.156,34.939,34.939,0,0,0,1.475-3.614c.41-1.192.813-2.408,1.2-3.613a20.791,20.791,0,0,1,1.268-3.156,7.066,7.066,0,0,1,1.711-2.228,3.786,3.786,0,0,1,2.507-.841,5.592,5.592,0,0,1,2.168.413,4.431,4.431,0,0,1,1.7,1.254,6.116,6.116,0,0,1,1.106,2.065,9.366,9.366,0,0,1,.4,2.876,9.894,9.894,0,0,1-.457,3.172,14.324,14.324,0,0,1-1.018,2.345c-.369.66-.711,1.246-1.018,1.741a2.6,2.6,0,0,0-.457,1.327,1.892,1.892,0,0,0,.266,1.017,2.2,2.2,0,0,0,.914.752l3.747,1.948a15.8,15.8,0,0,0,3.3-5.428,19.993,19.993,0,0,0,1.18-6.962,16.018,16.018,0,0,0-1.032-5.929,13.466,13.466,0,0,0-2.743-4.381,11.748,11.748,0,0,0-8.467-3.643,12.7,12.7,0,0,0-4.911.841,9.855,9.855,0,0,0-3.319,2.228,11.721,11.721,0,0,0-2.153,3.156,31.127,31.127,0,0,0-1.417,3.6c-.392,1.214-.759,2.425-1.091,3.6a16.7,16.7,0,0,1-1.225,3.156,6.814,6.814,0,0,1-1.785,2.227,4.3,4.3,0,0,1-2.743.841,5.8,5.8,0,0,1-4.617-1.859,7.816,7.816,0,0,1-1.607-5.251,10.655,10.655,0,0,1,.6-3.791,15.64,15.64,0,0,1,1.342-2.744c.48-.759.931-1.438,1.342-2.021a2.828,2.828,0,0,0,.6-1.593,1.916,1.916,0,0,0-.28-1.018,2.954,2.954,0,0,0-.693-.781l-3.806-2.3Zm-74.7-56.217V377h14.8V349h11.11a43.047,43.047,0,0,0,13.53-1.925,27,27,0,0,0,9.626-5.389,22.061,22.061,0,0,0,5.774-8.278,29.912,29.912,0,0,0,.111-20.817,20.563,20.563,0,0,0-5.611-8.03,26.682,26.682,0,0,0-9.625-5.225,45.61,45.61,0,0,0-13.805-1.87Zm-68.75,44.77h37.29V377h14.9V297.47h-14.9v34.21h-37.29V297.47H90.78V377h14.9V342.24Zm-83.16-44.77V377h14.8V349H48.43a43.047,43.047,0,0,0,13.53-1.925,27,27,0,0,0,9.625-5.389,22.073,22.073,0,0,0,5.775-8.278,29.919,29.919,0,0,0,.11-20.817,20.554,20.554,0,0,0-5.611-8.03,26.676,26.676,0,0,0-9.625-5.225,45.609,45.609,0,0,0-13.805-1.87Zm264.132-6.235L244,304.481v7.168l29.147,9.41c.358.113.753.233,1.209.368.418.124.885.249,1.387.369-.475.114-.942.238-1.387.369-.419.124-.826.248-1.209.369L244,331.856v7.169l42.657,13.246v-6.224a2.788,2.788,0,0,0-.531-1.712,2.4,2.4,0,0,0-1.269-.914l-25.517-7.257c-.6-.156-1.269-.31-1.977-.457-.691-.144-1.435-.288-2.212-.427a34.011,34.011,0,0,0,4.19-1.121l25.517-8.319a2.535,2.535,0,0,0,1.313-.944,2.879,2.879,0,0,0,.487-1.711v-2.331a2.621,2.621,0,0,0-.561-1.7,2.8,2.8,0,0,0-1.239-.93l-25.517-8.378c-.628-.215-1.318-.419-2.05-.6-.748-.189-1.537-.362-2.345-.516.8-.133,1.584-.276,2.345-.428.722-.144,1.412-.307,2.05-.486l25.517-7.258a2.358,2.358,0,0,0,1.313-.929,2.949,2.949,0,0,0,.487-1.726Zm-96.684-29.345v31.983h5.8V284a8.505,8.505,0,0,0,2.55,1.727,8.653,8.653,0,0,0,3.466.623,9.543,9.543,0,0,0,4.288-.951,9.646,9.646,0,0,0,3.267-2.644,12.311,12.311,0,0,0,2.08-3.994,16.615,16.615,0,0,0,.728-5.006,19.472,19.472,0,0,0-.646-5.252,11.493,11.493,0,0,0-1.833-3.854,8.124,8.124,0,0,0-2.82-2.385,7.934,7.934,0,0,0-3.607-.823,9.134,9.134,0,0,0-4.43,1.034,12.205,12.205,0,0,0-3.349,2.7l-.47-2.232a1.211,1.211,0,0,0-.518-.8,1.742,1.742,0,0,0-.963-.258ZM244,252.177v6.165a2.626,2.626,0,0,0,.561,1.7,2.8,2.8,0,0,0,1.239.929l8.7,3.186v17.671l-8.7,3.186a2.946,2.946,0,0,0-1.283.959,2.687,2.687,0,0,0-.517,1.7V293.8l42.657-16.756v-8.113Zm-23.242,2.333a1.386,1.386,0,0,0-.858.258,1.165,1.165,0,0,0-.435.729l-1.222,6.58-3.878.634v2.3a1.113,1.113,0,0,0,1.152,1.221h2.443V279.7a6.84,6.84,0,0,0,1.692,4.9,6.372,6.372,0,0,0,4.818,1.775,10.9,10.9,0,0,0,3.407-.541,8.811,8.811,0,0,0,2.914-1.6l-1.739-2.82a1.975,1.975,0,0,0-.353-.388.671.671,0,0,0-.423-.129.815.815,0,0,0-.423.129c-.135.083-.293.172-.481.271a5.075,5.075,0,0,1-.635.27,2.742,2.742,0,0,1-.9.129,1.919,1.919,0,0,1-1.5-.634,2.571,2.571,0,0,1-.564-1.762V266.236h6.345V262.1h-6.345V254.51ZM115.807,280.383a1.724,1.724,0,0,0-.893.212,1.913,1.913,0,0,0-.611.611l-1.339,2.21a9.816,9.816,0,0,0,1.633,1.174,12.685,12.685,0,0,0,2.021.94,14.5,14.5,0,0,0,2.28.622,14.033,14.033,0,0,0,6.557-.375,8.739,8.739,0,0,0,3.019-1.669,7.076,7.076,0,0,0,1.857-2.538,8.039,8.039,0,0,0,.635-3.208,5.375,5.375,0,0,0-1.845-4.265,7.555,7.555,0,0,0-1.892-1.222c-.7-.321-1.43-.609-2.162-.858s-1.458-.483-2.162-.694a13.19,13.19,0,0,1-1.892-.716,4.571,4.571,0,0,1-1.339-.928,1.823,1.823,0,0,1-.506-1.3,2.27,2.27,0,0,1,.987-1.9,4.486,4.486,0,0,1,2.7-.728,6.96,6.96,0,0,1,1.915.235,10.244,10.244,0,0,1,1.445.529c.4.186.778.364,1.116.528a2.084,2.084,0,0,0,.9.235,1.275,1.275,0,0,0,.658-.153,1.547,1.547,0,0,0,.494-.528l1.316-2.092a10.3,10.3,0,0,0-3.407-2.162,12.114,12.114,0,0,0-4.536-.823,11.9,11.9,0,0,0-3.936.6,8.64,8.64,0,0,0-2.844,1.6,6.648,6.648,0,0,0-1.727,2.338,6.987,6.987,0,0,0-.588,2.821,6.666,6.666,0,0,0,.506,2.726,5.829,5.829,0,0,0,1.339,1.9,7.514,7.514,0,0,0,1.9,1.281,20.474,20.474,0,0,0,2.185.881c.747.251,1.482.484,2.186.693a12.991,12.991,0,0,1,1.9.717,4.424,4.424,0,0,1,1.339.94,1.958,1.958,0,0,1,.5,1.387,2.787,2.787,0,0,1-.223,1.093,2.435,2.435,0,0,1-.7.928,3.774,3.774,0,0,1-1.222.646,5.657,5.657,0,0,1-1.774.247,6.6,6.6,0,0,1-2.174-.305,9.98,9.98,0,0,1-1.492-.658c-.42-.233-.8-.454-1.117-.658A1.882,1.882,0,0,0,115.807,280.383Zm-16.1-14.359a3.761,3.761,0,0,1,2.973,1.164,5.338,5.338,0,0,1,1.022,3.584v1.409a31.568,31.568,0,0,0-6.885.8,15.319,15.319,0,0,0-4.442,1.775,6.775,6.775,0,0,0-2.386,2.4,5.632,5.632,0,0,0-.716,2.691,7.284,7.284,0,0,0,.517,2.843,5.633,5.633,0,0,0,1.445,2.045,6.119,6.119,0,0,0,2.221,1.234,9.313,9.313,0,0,0,2.82.411,12.115,12.115,0,0,0,2.35-.211,9.38,9.38,0,0,0,2-.635,11.047,11.047,0,0,0,1.821-1.046,20.141,20.141,0,0,0,1.8-1.445l.517,1.715a1.6,1.6,0,0,0,.706,1,2.829,2.829,0,0,0,1.292.247h2.608V270.772a11.385,11.385,0,0,0-.6-3.76,8.286,8.286,0,0,0-1.751-2.949,8.046,8.046,0,0,0-2.808-1.927,9.739,9.739,0,0,0-3.772-.693A14.4,14.4,0,0,0,90.4,265.25l1.057,1.856a2.413,2.413,0,0,0,.682.752,1.686,1.686,0,0,0,1.01.305,2.608,2.608,0,0,0,1.292-.329c.392-.219.823-.468,1.281-.741a9.22,9.22,0,0,1,1.634-.74A7.225,7.225,0,0,1,99.709,266.025Zm-48.833,0a3.761,3.761,0,0,1,2.973,1.164,5.339,5.339,0,0,1,1.022,3.584v1.409a31.568,31.568,0,0,0-6.885.8,15.318,15.318,0,0,0-4.442,1.775,6.775,6.775,0,0,0-2.386,2.4,5.641,5.641,0,0,0-.716,2.691,7.283,7.283,0,0,0,.517,2.843,5.632,5.632,0,0,0,1.444,2.045,6.119,6.119,0,0,0,2.221,1.234,9.314,9.314,0,0,0,2.82.411,12.114,12.114,0,0,0,2.35-.211,9.378,9.378,0,0,0,2-.635,11,11,0,0,0,1.821-1.046,20.155,20.155,0,0,0,1.8-1.445l.517,1.715a1.6,1.6,0,0,0,.706,1,2.829,2.829,0,0,0,1.292.247h2.608V270.772a11.386,11.386,0,0,0-.6-3.76,8.286,8.286,0,0,0-1.75-2.949,8.046,8.046,0,0,0-2.808-1.927,9.739,9.739,0,0,0-3.772-.693A14.4,14.4,0,0,0,41.57,265.25l1.057,1.856a2.413,2.413,0,0,0,.682.752,1.686,1.686,0,0,0,1.01.305,2.615,2.615,0,0,0,1.293-.329c.392-.22.823-.469,1.281-.741a9.184,9.184,0,0,1,1.633-.74A7.225,7.225,0,0,1,50.876,266.025Zm-30.268,14.8a1.419,1.419,0,0,0-1,.318,1.254,1.254,0,0,0-.388.834l-.329,3.76a22.625,22.625,0,0,0,2.561.482,20.206,20.206,0,0,0,2.491.153,12.641,12.641,0,0,0,4.865-.87,9.228,9.228,0,0,0,3.49-2.49,10.8,10.8,0,0,0,2.1-3.925,17.72,17.72,0,0,0,.7-5.17v-21.9H28.787v22.043a13.226,13.226,0,0,1-.353,3.279,5.7,5.7,0,0,1-1.046,2.2,4.027,4.027,0,0,1-1.727,1.234,6.767,6.767,0,0,1-2.373.388,6.8,6.8,0,0,1-1.634-.165A4.464,4.464,0,0,0,20.608,280.83ZM145.7,261.513a12.693,12.693,0,0,0-5.029.94,10.331,10.331,0,0,0-3.666,2.6,11.2,11.2,0,0,0-2.245,3.924A15.4,15.4,0,0,0,134,273.9a15.167,15.167,0,0,0,.859,5.275,11.784,11.784,0,0,0,2.326,3.913,9.852,9.852,0,0,0,3.443,2.432,10.741,10.741,0,0,0,4.207.834,17.907,17.907,0,0,0,2.561-.187,11.956,11.956,0,0,0,2.5-.647,11.385,11.385,0,0,0,2.338-1.221,10.585,10.585,0,0,0,2.092-1.892l-1.669-2.115a1.182,1.182,0,0,0-1.057-.541,1.546,1.546,0,0,0-.976.341c-.293.229-.637.482-1.022.751a7.063,7.063,0,0,1-1.445.752,6.206,6.206,0,0,1-2.244.341,5.719,5.719,0,0,1-2.491-.529,5.141,5.141,0,0,1-1.88-1.551,7.393,7.393,0,0,1-1.187-2.526,13.123,13.123,0,0,1-.41-3.431,13.528,13.528,0,0,1,.375-3.326,7.187,7.187,0,0,1,1.14-2.5,5.1,5.1,0,0,1,1.915-1.587,6.158,6.158,0,0,1,2.678-.552,6.466,6.466,0,0,1,2.01.27,7.621,7.621,0,0,1,1.4.611c.378.219.718.425,1.01.611a1.607,1.607,0,0,0,.869.27,1.17,1.17,0,0,0,.717-.188,2.868,2.868,0,0,0,.5-.517l1.527-2.115a11.623,11.623,0,0,0-3.654-2.491A12.02,12.02,0,0,0,145.7,261.513Zm31.913.376V286h5.8V261.889Zm-19.576,0V286h5.805V270.984a7.715,7.715,0,0,1,2.185-2.926,4.943,4.943,0,0,1,3.1-1,6.462,6.462,0,0,1,1.621.165,3.979,3.979,0,0,0,.964.165,1.041,1.041,0,0,0,.635-.176.9.9,0,0,0,.305-.6l.752-4.347a5.063,5.063,0,0,0-2.961-.823,6.4,6.4,0,0,0-3.9,1.292,11.5,11.5,0,0,0-3.031,3.524l-.353-2.913a1.9,1.9,0,0,0-.47-1.129,1.838,1.838,0,0,0-1.246-.328Zm-95.41,0L72.214,286h5.264l9.564-24.111H82.461a1.688,1.688,0,0,0-1.011.305,1.6,1.6,0,0,0-.588.776l-4.77,12.878a20.443,20.443,0,0,0-.694,2.209c-.177.71-.339,1.438-.481,2.162-.14-.712-.3-1.439-.481-2.162s-.4-1.461-.67-2.209L69.113,262.97a1.58,1.58,0,0,0-.6-.776,1.823,1.823,0,0,0-1.069-.305Zm117.9-10.74a3.523,3.523,0,0,0-1.421.293,3.806,3.806,0,0,0-1.164.787,3.766,3.766,0,0,0-.787,1.175,3.661,3.661,0,0,0-.293,1.457,3.439,3.439,0,0,0,.293,1.409,3.843,3.843,0,0,0,.787,1.152,3.787,3.787,0,0,0,1.164.787,3.509,3.509,0,0,0,1.421.294,3.648,3.648,0,0,0,1.457-.294,3.827,3.827,0,0,0,2-1.939,3.322,3.322,0,0,0,.305-1.409,3.536,3.536,0,0,0-.305-1.457,3.83,3.83,0,0,0-.811-1.175,3.906,3.906,0,0,0-1.187-.787A3.662,3.662,0,0,0,180.526,251.149Zm87.05-52.645a24.366,24.366,0,0,0-9.809,1.9,21.91,21.91,0,0,0-7.363,5.154,22.654,22.654,0,0,0-4.631,7.647,27.082,27.082,0,0,0-1.615,9.381,31.765,31.765,0,0,0,1.852,11.281,23.508,23.508,0,0,0,5.083,8.17,21.253,21.253,0,0,0,7.6,4.988,26.157,26.157,0,0,0,9.453,1.686,38.693,38.693,0,0,0,5.3-.38,27.734,27.734,0,0,0,5.367-1.306,24.633,24.633,0,0,0,5.059-2.471,19.653,19.653,0,0,0,4.37-3.823l-3.42-4.275a2.747,2.747,0,0,0-.9-.808,2.553,2.553,0,0,0-1.235-.284,4.56,4.56,0,0,0-2.256.665c-.781.446-1.692.941-2.707,1.472a23.25,23.25,0,0,1-3.61,1.472,16.222,16.222,0,0,1-4.917.665,12.636,12.636,0,0,1-9.31-3.515c-2.333-2.333-3.692-6.04-4.038-11.02h30.116a3.561,3.561,0,0,0,1.329-.214,1.736,1.736,0,0,0,.832-.713,3.543,3.543,0,0,0,.428-1.377,17.048,17.048,0,0,0,.119-2.209,26.316,26.316,0,0,0-1.568-9.382,19.722,19.722,0,0,0-4.37-6.934,18.65,18.65,0,0,0-6.674-4.3A23.761,23.761,0,0,0,267.575,198.5Zm-56.715-.142a19.15,19.15,0,0,0-8.645,1.923,19.816,19.816,0,0,0-6.6,5.344,24.612,24.612,0,0,0-4.227,8.075,33.37,33.37,0,0,0-1.472,10.07,39.664,39.664,0,0,0,1.306,10.64,23.224,23.224,0,0,0,3.705,7.814,15.873,15.873,0,0,0,13.038,6.484,19.937,19.937,0,0,0,4.774-.546,18.738,18.738,0,0,0,4.132-1.543,20.225,20.225,0,0,0,3.587-2.375,29.322,29.322,0,0,0,3.182-3.087l.95,4.7A2.892,2.892,0,0,0,227.58,248h7.172V177.415H223.02V203.16a18.4,18.4,0,0,0-5.178-3.491A17,17,0,0,0,210.86,198.363Zm-50.778.142a27.012,27.012,0,0,0-9.927,1.758,21.644,21.644,0,0,0-7.624,4.988,22.265,22.265,0,0,0-4.892,7.885,32.222,32.222,0,0,0,0,20.852,22.766,22.766,0,0,0,4.892,7.933,21.319,21.319,0,0,0,7.624,5.035,28.848,28.848,0,0,0,19.831,0,21.142,21.142,0,0,0,7.576-5.035,22.679,22.679,0,0,0,4.845-7.933,32.639,32.639,0,0,0,0-20.852,22.182,22.182,0,0,0-4.845-7.885,21.464,21.464,0,0,0-7.576-4.988A26.832,26.832,0,0,0,160.082,198.5Zm-52.345,9.12c2.742,0,4.828.823,6.2,2.447A10.456,10.456,0,0,1,116,216.983V248h11.732V216.983a24.938,24.938,0,0,0-1.069-7.482,16.787,16.787,0,0,0-3.135-5.843,14.056,14.056,0,0,0-5.153-3.8A17.55,17.55,0,0,0,111.3,198.5a20.66,20.66,0,0,0-4.56.475,17.766,17.766,0,0,0-3.919,1.377,21.905,21.905,0,0,0-3.468,2.137,26.879,26.879,0,0,0-3.111,2.756l-.807-3.848a2.893,2.893,0,0,0-2.993-2.137H85.27V248H97V212.755A20.513,20.513,0,0,1,102.037,209,12.274,12.274,0,0,1,107.737,207.625Zm-73.72,3.424a17.67,17.67,0,0,0-6.417,1.139,12.9,12.9,0,0,0-5.036,3.519,16.754,16.754,0,0,0-3.278,6.038,28.6,28.6,0,0,0-1.173,8.659v16.25H68v-9.28H50.44V230.4a27,27,0,0,0-1.208-8.487,16.932,16.932,0,0,0-3.38-6.037,13.839,13.839,0,0,0-5.193-3.623A17.814,17.814,0,0,0,34.017,211.048ZM32.6,172.478v6.831a2.44,2.44,0,0,0,.448,1.431,2.518,2.518,0,0,0,1.139.914l18.319,7.107c.638.251,1.276.489,1.9.707s1.259.418,1.932.6c-.627.134-1.277.3-1.932.482a16.453,16.453,0,0,0-1.863.656L34.19,198.767a3.184,3.184,0,0,0-1.1.828,2.348,2.348,0,0,0-.482,1.587v7.452l32.774-14.317,14.18,6.624v-6.349a3.025,3.025,0,0,0-.465-1.846,3.31,3.31,0,0,0-1.363-.983Zm220.3-19.642a18.912,18.912,0,0,0-6.864,1.188,14.484,14.484,0,0,0-8.514,8.492,18.069,18.069,0,0,0-1.165,6.578,17.489,17.489,0,0,0,1.2,6.534,15.022,15.022,0,0,0,8.393,8.514,16.662,16.662,0,0,0,6.4,1.211,30,30,0,0,0,3.652-.21,21.5,21.5,0,0,0,3.179-.626,16.151,16.151,0,0,0,2.794-1.067,17.545,17.545,0,0,0,2.519-1.529V169.05H253.92v3.344a1.053,1.053,0,0,0,.33.781,1.248,1.248,0,0,0,.9.319h3.982v5.786a13.792,13.792,0,0,1-6.314,1.364,11.013,11.013,0,0,1-4.18-.781,9.34,9.34,0,0,1-3.3-2.255,10.323,10.323,0,0,1-2.156-3.619,14.515,14.515,0,0,1-.77-4.9,13.94,13.94,0,0,1,.726-4.62,10.25,10.25,0,0,1,2.067-3.542,9.034,9.034,0,0,1,3.245-2.265,11.029,11.029,0,0,1,4.257-.792,14.787,14.787,0,0,1,2.563.2,13.264,13.264,0,0,1,2,.506,9.829,9.829,0,0,1,1.628.725c.483.274.968.555,1.441.836a2.007,2.007,0,0,0,1.078.352,1.533,1.533,0,0,0,1.342-.814l1.716-2.684a15.64,15.64,0,0,0-4.829-3A17.986,17.986,0,0,0,252.908,152.836Zm26.444,9.239a12.513,12.513,0,0,0-4.6.814,10.018,10.018,0,0,0-3.531,2.31,10.313,10.313,0,0,0-2.266,3.651,14.925,14.925,0,0,0,0,9.658,10.552,10.552,0,0,0,2.266,3.675,9.888,9.888,0,0,0,3.531,2.332,13.37,13.37,0,0,0,9.185,0,9.806,9.806,0,0,0,3.509-2.332,10.52,10.52,0,0,0,2.244-3.675,15.117,15.117,0,0,0,0-9.658,10.28,10.28,0,0,0-2.244-3.651,9.936,9.936,0,0,0-3.509-2.31A12.429,12.429,0,0,0,279.352,162.076ZM151.625,151.17a1.442,1.442,0,0,0-.895.269,1.221,1.221,0,0,0-.454.76L149,159.059l-4.043.661v2.4a1.161,1.161,0,0,0,1.2,1.274h2.548v14.038a7.133,7.133,0,0,0,1.764,5.108,6.642,6.642,0,0,0,5.023,1.849,11.367,11.367,0,0,0,3.552-.563,9.226,9.226,0,0,0,3.038-1.666l-1.814-2.94a2.043,2.043,0,0,0-.367-.4.7.7,0,0,0-.441-.135.841.841,0,0,0-.441.135c-.145.089-.31.181-.5.282a5.258,5.258,0,0,1-.661.282,2.861,2.861,0,0,1-.943.135,2,2,0,0,1-1.569-.661,2.685,2.685,0,0,1-.588-1.838V163.4h6.615v-4.313H154.76V151.17Zm-21.511,7.3a13.946,13.946,0,0,0-5.121.906,11.174,11.174,0,0,0-3.932,2.572,11.5,11.5,0,0,0-2.524,4.067,16.612,16.612,0,0,0,0,10.756,11.735,11.735,0,0,0,2.524,4.091,11.014,11.014,0,0,0,3.932,2.6,14.883,14.883,0,0,0,10.228,0,10.906,10.906,0,0,0,3.908-2.6,11.684,11.684,0,0,0,2.5-4.091,16.837,16.837,0,0,0,0-10.756,11.445,11.445,0,0,0-2.5-4.067,11.063,11.063,0,0,0-3.908-2.572A13.84,13.84,0,0,0,130.114,158.471Zm74.235,4.7a3.967,3.967,0,0,1,3.2,1.261A5.391,5.391,0,0,1,208.612,168v16h6.051V168a12.87,12.87,0,0,0-.551-3.858,8.648,8.648,0,0,0-1.617-3.014,7.246,7.246,0,0,0-2.658-1.959,9.045,9.045,0,0,0-3.65-.7,10.7,10.7,0,0,0-2.353.245,9.185,9.185,0,0,0-2.021.711,11.212,11.212,0,0,0-1.788,1.1,13.869,13.869,0,0,0-1.6,1.42L198,159.965a1.492,1.492,0,0,0-1.544-1.1h-3.7V184h6.052V165.821a10.561,10.561,0,0,1,2.6-1.936A6.337,6.337,0,0,1,204.349,163.175Zm-24.475-4.313V184h6.052V158.863Zm-13.279-11.27V184h6.052V147.593ZM93.388,168.418H95.47a4.3,4.3,0,0,1,1.74.282,2.983,2.983,0,0,1,1.1.919L108.333,182.7a2.753,2.753,0,0,0,.967.967,3.641,3.641,0,0,0,1.752.33h5.831l-12.3-16.586a7.728,7.728,0,0,0-1.262-1.372,4.882,4.882,0,0,0-1.458-.833,4.935,4.935,0,0,0,1.1-.76,10.831,10.831,0,0,0,1.078-1.151l11.931-14.725h-5.683a4.155,4.155,0,0,0-1.7.306,3.559,3.559,0,0,0-1.286,1.091l-9.776,12.372a2.634,2.634,0,0,1-1.054.821,4.031,4.031,0,0,1-1.544.257H93.388V148.549H86.8V184h6.59V168.419Zm-71.617-11.5v4.416a2.027,2.027,0,0,0,.38,1.259,1.711,1.711,0,0,0,1.069.638l9.66,1.795.931,5.693h3.381a1.634,1.634,0,0,0,1.794-1.691V165.44H58.754a10.043,10.043,0,0,0,7.194-2.484,9.352,9.352,0,0,0,2.6-7.073,15.991,15.991,0,0,0-.794-5,12.962,12.962,0,0,0-2.345-4.278l-4.14,2.552a2.9,2.9,0,0,0-.57.518.982.982,0,0,0-.19.621,1.192,1.192,0,0,0,.19.621c.127.207.26.445.4.707a7.458,7.458,0,0,1,.4.932,4.039,4.039,0,0,1,.19,1.328,2.819,2.819,0,0,1-.931,2.208,3.774,3.774,0,0,1-2.588.828H38.985V147.6H32.914v9.315Zm161.14-9.251a3.669,3.669,0,0,0-1.482.306,3.837,3.837,0,0,0-2.033,2.046,3.817,3.817,0,0,0-.306,1.519,3.578,3.578,0,0,0,.306,1.47,3.992,3.992,0,0,0,.821,1.2,3.948,3.948,0,0,0,1.212.821,3.67,3.67,0,0,0,1.482.306,3.811,3.811,0,0,0,1.519-.306,3.994,3.994,0,0,0,2.083-2.021,3.461,3.461,0,0,0,.319-1.47,3.691,3.691,0,0,0-.319-1.519,3.975,3.975,0,0,0-.845-1.225,4.055,4.055,0,0,0-1.237-.821A3.81,3.81,0,0,0,182.911,147.667Zm67.579-34.239V143.37h5.434v-9.24a7.977,7.977,0,0,0,2.387,1.617,8.111,8.111,0,0,0,3.245.583,8.937,8.937,0,0,0,4.015-.891,9.04,9.04,0,0,0,3.058-2.475,11.526,11.526,0,0,0,1.947-3.74,15.538,15.538,0,0,0,.682-4.685,18.249,18.249,0,0,0-.6-4.918,10.78,10.78,0,0,0-1.716-3.608,7.629,7.629,0,0,0-2.64-2.233,7.442,7.442,0,0,0-3.378-.77,8.547,8.547,0,0,0-4.146.967,11.457,11.457,0,0,0-3.136,2.53l-.44-2.09a1.132,1.132,0,0,0-.483-.748,1.635,1.635,0,0,0-.9-.242Zm-122.891,0V143.37h5.433v-9.24a7.993,7.993,0,0,0,2.388,1.617,8.1,8.1,0,0,0,3.245.583,8.938,8.938,0,0,0,4.015-.891,9.04,9.04,0,0,0,3.058-2.475,11.525,11.525,0,0,0,1.947-3.74,15.511,15.511,0,0,0,.682-4.685,18.248,18.248,0,0,0-.6-4.918,10.76,10.76,0,0,0-1.716-3.608,7.63,7.63,0,0,0-2.64-2.233,7.44,7.44,0,0,0-3.377-.77,8.554,8.554,0,0,0-4.147.967,11.437,11.437,0,0,0-3.135,2.53l-.44-2.09a1.137,1.137,0,0,0-.484-.748,1.633,1.633,0,0,0-.9-.242Zm-26.224,0,9.13,20.9-4.224,9.042h4.048a1.924,1.924,0,0,0,1.176-.3,2.1,2.1,0,0,0,.627-.869l12.3-28.776h-4.356a1.56,1.56,0,0,0-.913.286,1.616,1.616,0,0,0-.583.726l-4.532,11.682c-.171.435-.318.831-.451,1.21-.141.4-.27.814-.385,1.232-.087-.4-.189-.817-.308-1.232a10.58,10.58,0,0,0-.419-1.188l-4.818-11.7a2.022,2.022,0,0,0-.528-.7,1.5,1.5,0,0,0-1.012-.308ZM16.733,132.285v8.522H68v-8.522H42.4a14.882,14.882,0,0,1-2.725-3.657,8.914,8.914,0,0,1-1-4.14,5.588,5.588,0,0,1,1.777-4.5,7.6,7.6,0,0,1,5.02-1.5H68v-8.521H45.472a18.127,18.127,0,0,0-5.434.776,12.2,12.2,0,0,0-4.243,2.277,10.2,10.2,0,0,0-2.759,3.743,12.739,12.739,0,0,0-.984,5.141,13.251,13.251,0,0,0,1.208,5.83,18.1,18.1,0,0,0,3.174,4.554ZM279.31,106.52a1.3,1.3,0,0,0-.8.241,1.1,1.1,0,0,0-.407.682l-1.144,6.161-3.63.594v2.156A1.041,1.041,0,0,0,274.4,117.5h2.289V130.1a6.4,6.4,0,0,0,1.584,4.587,5.963,5.963,0,0,0,4.51,1.661,10.2,10.2,0,0,0,3.19-.506,8.272,8.272,0,0,0,2.728-1.5l-1.628-2.641a1.851,1.851,0,0,0-.329-.363.623.623,0,0,0-.4-.121.751.751,0,0,0-.4.121c-.126.077-.274.16-.451.253a4.64,4.64,0,0,1-.594.253,2.565,2.565,0,0,1-.848.121,1.8,1.8,0,0,1-1.408-.594,2.409,2.409,0,0,1-.528-1.651V117.5h5.94v-3.872h-5.94V106.52ZM176.944,128.608a1.43,1.43,0,0,0-.759.209,2.224,2.224,0,0,0-.583.517l-1.715,2.839a12.453,12.453,0,0,0,2.1,1.715,14.774,14.774,0,0,0,2.53,1.32,15.773,15.773,0,0,0,2.827.847,15.186,15.186,0,0,0,2.992.3,12.808,12.808,0,0,0,4.685-.8,10.209,10.209,0,0,0,3.465-2.2,9.348,9.348,0,0,0,2.156-3.279,11.012,11.012,0,0,0,.737-4.036,8.163,8.163,0,0,0-.627-3.366,7.2,7.2,0,0,0-1.661-2.344,9.418,9.418,0,0,0-2.354-1.584,26.334,26.334,0,0,0-2.695-1.1c-.916-.315-1.823-.614-2.7-.891a15.421,15.421,0,0,1-2.354-.946,5.266,5.266,0,0,1-1.661-1.276,2.825,2.825,0,0,1-.627-1.869,4.174,4.174,0,0,1,.309-1.617,3.306,3.306,0,0,1,.935-1.265,4.553,4.553,0,0,1,1.54-.824,6.98,6.98,0,0,1,2.145-.3A7.381,7.381,0,0,1,188,109a10.582,10.582,0,0,1,1.749.759c.5.28.937.535,1.3.759a1.939,1.939,0,0,0,.99.341,1.418,1.418,0,0,0,.76-.2,1.64,1.64,0,0,0,.561-.682l1.452-2.794a11.776,11.776,0,0,0-4.047-2.464,14.906,14.906,0,0,0-5.192-.88,11.955,11.955,0,0,0-4.423.77,10.034,10.034,0,0,0-3.267,2.046,8.754,8.754,0,0,0-2.717,6.314,9.482,9.482,0,0,0,.627,3.663,7.355,7.355,0,0,0,1.661,2.475,8.732,8.732,0,0,0,2.354,1.606,23.189,23.189,0,0,0,2.684,1.057c.924.3,1.827.571,2.685.814a12.488,12.488,0,0,1,2.354.913,5.108,5.108,0,0,1,1.661,1.331,3.215,3.215,0,0,1,.626,2.047,4.322,4.322,0,0,1-1.386,3.442,5.827,5.827,0,0,1-3.916,1.2,7.949,7.949,0,0,1-2.827-.451,11.579,11.579,0,0,1-2.046-1c-.57-.36-1.077-.7-1.507-1A2.106,2.106,0,0,0,176.944,128.608Zm32.1-15.532a11.871,11.871,0,0,0-4.708.88,9.679,9.679,0,0,0-3.433,2.431,10.508,10.508,0,0,0-2.1,3.674,14.417,14.417,0,0,0-.715,4.609,14.214,14.214,0,0,0,.8,4.939,11.019,11.019,0,0,0,2.178,3.663,9.237,9.237,0,0,0,3.223,2.277,10.049,10.049,0,0,0,3.938.781,16.641,16.641,0,0,0,2.4-.176,11.128,11.128,0,0,0,2.343-.6,10.621,10.621,0,0,0,2.189-1.144,9.866,9.866,0,0,0,1.958-1.771l-1.562-1.98a1.106,1.106,0,0,0-.99-.506,1.448,1.448,0,0,0-.913.319c-.265.208-.578.439-.957.7a6.72,6.72,0,0,1-1.354.7,5.809,5.809,0,0,1-2.1.319,5.354,5.354,0,0,1-2.332-.495,4.8,4.8,0,0,1-1.76-1.452,6.9,6.9,0,0,1-1.111-2.365,12.268,12.268,0,0,1-.385-3.212,12.636,12.636,0,0,1,.352-3.113,6.723,6.723,0,0,1,1.067-2.343,4.769,4.769,0,0,1,1.793-1.485,5.763,5.763,0,0,1,2.508-.517,6.036,6.036,0,0,1,1.881.253,7.087,7.087,0,0,1,1.309.571c.4.232.7.413.946.572a1.5,1.5,0,0,0,.814.253,1.093,1.093,0,0,0,.671-.176,2.737,2.737,0,0,0,.473-.483l1.43-1.98a10.883,10.883,0,0,0-3.422-2.333A11.246,11.246,0,0,0,209.042,113.076Zm-47.234,0a11.281,11.281,0,0,0-4.543.88,10.153,10.153,0,0,0-3.41,2.387,10.487,10.487,0,0,0-2.145,3.542,12.549,12.549,0,0,0-.748,4.344,14.7,14.7,0,0,0,.858,5.225,10.876,10.876,0,0,0,2.354,3.784,9.854,9.854,0,0,0,3.521,2.31,12.1,12.1,0,0,0,4.378.781,17.8,17.8,0,0,0,2.453-.176,12.84,12.84,0,0,0,2.486-.6,11.4,11.4,0,0,0,2.343-1.144,9.112,9.112,0,0,0,2.024-1.771l-1.584-1.98a1.259,1.259,0,0,0-.418-.374,1.185,1.185,0,0,0-.572-.132,2.113,2.113,0,0,0-1.045.308c-.356.2-.778.433-1.254.682a10.737,10.737,0,0,1-1.672.682,7.51,7.51,0,0,1-2.277.308,5.854,5.854,0,0,1-4.312-1.628,7.806,7.806,0,0,1-1.87-5.1h13.948a1.651,1.651,0,0,0,.616-.1.8.8,0,0,0,.385-.33,1.646,1.646,0,0,0,.2-.638,7.844,7.844,0,0,0,.055-1.022,12.184,12.184,0,0,0-.726-4.345,9.122,9.122,0,0,0-2.024-3.212,8.626,8.626,0,0,0-3.091-1.991A11.012,11.012,0,0,0,161.808,113.076Zm77.109.352V136h5.434V113.428Zm-18.326,0V136h5.434V121.942a7.226,7.226,0,0,1,2.046-2.739,4.63,4.63,0,0,1,2.9-.935,6.076,6.076,0,0,1,1.518.154,3.712,3.712,0,0,0,.9.154.974.974,0,0,0,.594-.165.844.844,0,0,0,.286-.562l.7-4.07a4.745,4.745,0,0,0-2.772-.77,6,6,0,0,0-3.652,1.21,10.767,10.767,0,0,0-2.838,3.3l-.33-2.728a1.775,1.775,0,0,0-.44-1.057,1.716,1.716,0,0,0-1.165-.308Zm-141.064-9.24v4.863h9.615V136H95.06V109.05h9.571v-4.863Zm162.119-.814a3.286,3.286,0,0,0-1.331.275,3.438,3.438,0,0,0-1.826,1.837,3.415,3.415,0,0,0-.275,1.364,3.21,3.21,0,0,0,.275,1.32,3.5,3.5,0,0,0,1.826,1.815,3.3,3.3,0,0,0,1.331.274,3.429,3.429,0,0,0,1.363-.274,3.585,3.585,0,0,0,1.87-1.815,3.108,3.108,0,0,0,.286-1.32,3.305,3.305,0,0,0-.286-1.364,3.581,3.581,0,0,0-.759-1.1,3.641,3.641,0,0,0-1.112-.736A3.415,3.415,0,0,0,241.646,103.374ZM50.233,69.012a21.883,21.883,0,0,0-7.556,1.242,16.094,16.094,0,0,0-5.727,3.519,15.577,15.577,0,0,0-3.623,5.5,20.945,20.945,0,0,0,0,14.4,15.715,15.715,0,0,0,3.623,5.538,16.177,16.177,0,0,0,5.727,3.553,21.607,21.607,0,0,0,7.556,1.259,21.712,21.712,0,0,0,7.59-1.259,16.54,16.54,0,0,0,5.762-3.553,15.493,15.493,0,0,0,3.657-5.538,20.945,20.945,0,0,0,0-14.4,15.358,15.358,0,0,0-3.657-5.5,16.454,16.454,0,0,0-5.762-3.519A21.989,21.989,0,0,0,50.233,69.012ZM266.111,55.925a7.926,7.926,0,0,1,6.262,2.45c1.428,1.626,2.153,4.165,2.153,7.549v2.97a66.452,66.452,0,0,0-14.5,1.683,32.3,32.3,0,0,0-9.356,3.737,14.28,14.28,0,0,0-5.024,5.049,11.875,11.875,0,0,0-1.51,5.668,15.36,15.36,0,0,0,1.089,5.99,11.858,11.858,0,0,0,3.045,4.307,12.858,12.858,0,0,0,4.677,2.6,19.584,19.584,0,0,0,5.94.867,25.431,25.431,0,0,0,4.95-.445,19.643,19.643,0,0,0,4.208-1.337,23.07,23.07,0,0,0,3.837-2.2,42.089,42.089,0,0,0,3.786-3.044l1.089,3.614a3.362,3.362,0,0,0,1.485,2.1,5.948,5.948,0,0,0,2.723.52h5.494V65.924A23.985,23.985,0,0,0,285.194,58a17.449,17.449,0,0,0-3.688-6.213,16.963,16.963,0,0,0-5.915-4.059,20.529,20.529,0,0,0-7.945-1.46,32.227,32.227,0,0,0-11.471,2,30.135,30.135,0,0,0-9.665,6.014l2.227,3.911a5.1,5.1,0,0,0,1.436,1.584,3.553,3.553,0,0,0,2.129.643,5.5,5.5,0,0,0,2.722-.693c.808-.452,1.716-.977,2.7-1.56a19.284,19.284,0,0,1,3.44-1.559A15.233,15.233,0,0,1,266.111,55.925Zm-102.861,0a7.926,7.926,0,0,1,6.262,2.45c1.428,1.626,2.153,4.165,2.153,7.549v2.97a66.453,66.453,0,0,0-14.5,1.683,32.3,32.3,0,0,0-9.355,3.737,14.28,14.28,0,0,0-5.024,5.049,11.875,11.875,0,0,0-1.51,5.668,15.359,15.359,0,0,0,1.089,5.99,11.858,11.858,0,0,0,3.045,4.307,12.858,12.858,0,0,0,4.677,2.6,19.584,19.584,0,0,0,5.94.867,25.431,25.431,0,0,0,4.95-.445,19.641,19.641,0,0,0,4.208-1.337,23.07,23.07,0,0,0,3.837-2.2,42.079,42.079,0,0,0,3.786-3.044l1.089,3.614a3.362,3.362,0,0,0,1.485,2.1A5.948,5.948,0,0,0,178.1,98h5.494V65.924A23.985,23.985,0,0,0,182.333,58a17.447,17.447,0,0,0-3.688-6.213,16.962,16.962,0,0,0-5.915-4.059,20.529,20.529,0,0,0-7.945-1.46,32.227,32.227,0,0,0-11.471,2,30.135,30.135,0,0,0-9.665,6.014l2.228,3.911a5.1,5.1,0,0,0,1.436,1.584,3.552,3.552,0,0,0,2.128.643,5.5,5.5,0,0,0,2.723-.693c.808-.452,1.716-.977,2.7-1.56a19.279,19.279,0,0,1,3.44-1.559A15.233,15.233,0,0,1,163.25,55.925ZM99.494,87.11a3,3,0,0,0-2.1.668,2.647,2.647,0,0,0-.817,1.758l-.693,7.92a47.458,47.458,0,0,0,5.4,1.014,42.347,42.347,0,0,0,5.247.322,26.657,26.657,0,0,0,10.246-1.831,19.435,19.435,0,0,0,7.351-5.247,22.708,22.708,0,0,0,4.43-8.267,37.314,37.314,0,0,0,1.485-10.89V26.423H116.72V72.854a27.841,27.841,0,0,1-.743,6.9,12.025,12.025,0,0,1-2.2,4.629,8.5,8.5,0,0,1-3.639,2.6,16.291,16.291,0,0,1-8.439.471A9.409,9.409,0,0,0,99.494,87.11ZM188,47.213,208.2,98h11.088l20.146-50.787h-9.652a3.551,3.551,0,0,0-2.128.644,3.364,3.364,0,0,0-1.238,1.633L216.364,76.616a43.139,43.139,0,0,0-1.46,4.653c-.379,1.513-.72,3.045-1.015,4.554-.295-1.508-.636-3.04-1.014-4.554s-.854-3.082-1.411-4.653l-9.8-27.126a3.313,3.313,0,0,0-1.262-1.633,3.834,3.834,0,0,0-2.253-.644ZM75.249,64.822v4.015a1.6,1.6,0,0,0,.352,1.054,1.933,1.933,0,0,0,.777.592l16.317,6.271a23.047,23.047,0,0,0,3.756,1.055c-.689.17-1.365.352-2.008.545s-1.229.4-1.748.6l-16.317,6.29a1.935,1.935,0,0,0-.815.611,1.681,1.681,0,0,0-.314,1.054v4.015L102,80.122v-4.5Zm7.77-4.884v4.57H95.081a9.725,9.725,0,0,0,2.913-.417,6.549,6.549,0,0,0,2.285-1.23,5.524,5.524,0,0,0,1.489-2.007,6.765,6.765,0,0,0,.527-2.748,7.711,7.711,0,0,0-.194-1.767,7.547,7.547,0,0,0-.536-1.535,7.39,7.39,0,0,0-.833-1.341,13.377,13.377,0,0,0-1.082-1.221l1.517-.314A1.127,1.127,0,0,0,102,50.763V47.969H83.019v4.569H96.746A7.786,7.786,0,0,1,98.2,54.5a4.842,4.842,0,0,1,.527,2.22,2.994,2.994,0,0,1-.953,2.414,4.069,4.069,0,0,1-2.691.8ZM45.472,31.511a18.127,18.127,0,0,0-5.434.776,12.194,12.194,0,0,0-4.243,2.277,10.2,10.2,0,0,0-2.759,3.743,12.739,12.739,0,0,0-.984,5.141A14.981,14.981,0,0,0,32.4,46.76a12.87,12.87,0,0,0,1,2.846,15.923,15.923,0,0,0,1.553,2.519,19.578,19.578,0,0,0,2,2.26l-2.794.586A2.1,2.1,0,0,0,32.6,57.144v5.21H68V53.832H42.4a14.882,14.882,0,0,1-2.725-3.657,8.914,8.914,0,0,1-1-4.14,5.588,5.588,0,0,1,1.777-4.5,7.6,7.6,0,0,1,5.02-1.5H68V31.511Zm45.854-4.484a10.25,10.25,0,0,0-3.654.61,7.7,7.7,0,0,0-2.7,1.7,7.262,7.262,0,0,0-1.674,2.6,9.249,9.249,0,0,0-.574,3.3,9.489,9.489,0,0,0,.741,3.82,8.521,8.521,0,0,0,2.007,2.867,8.824,8.824,0,0,0,2.978,1.8,10.557,10.557,0,0,0,3.654.629A12.381,12.381,0,0,0,96.5,43.64a9.168,9.168,0,0,0,3.182-1.98,8.283,8.283,0,0,0,1.942-2.959,10.2,10.2,0,0,0,.657-3.682,14.986,14.986,0,0,0-.148-2.063,10.807,10.807,0,0,0-.508-2.091,9.607,9.607,0,0,0-.962-1.97,7.64,7.64,0,0,0-1.489-1.7L97.5,28.525a1.074,1.074,0,0,0-.314.352.992.992,0,0,0-.111.481,1.771,1.771,0,0,0,.258.878c.174.3.367.658.574,1.055a9.019,9.019,0,0,1,.573,1.406,6.3,6.3,0,0,1,.259,1.915,4.92,4.92,0,0,1-1.37,3.626,6.566,6.566,0,0,1-4.291,1.572V28.082A1.384,1.384,0,0,0,93,27.563a.677.677,0,0,0-.277-.324,1.4,1.4,0,0,0-.536-.167A6.708,6.708,0,0,0,91.326,27.027ZM200.34,337.455H189.23V308.91h11.11a23.57,23.57,0,0,1,7.095.963,13.259,13.259,0,0,1,5,2.777,11.456,11.456,0,0,1,2.97,4.4,16.1,16.1,0,0,1,.99,5.774,17.746,17.746,0,0,1-.99,6.078,12,12,0,0,1-2.97,4.621,13.229,13.229,0,0,1-5,2.914A22.379,22.379,0,0,1,200.34,337.455Zm-151.91,0H37.32V308.91H48.43a23.57,23.57,0,0,1,7.095.963,13.272,13.272,0,0,1,5.006,2.777,11.476,11.476,0,0,1,2.97,4.4,16.117,16.117,0,0,1,.99,5.774,17.768,17.768,0,0,1-.99,6.078,12.023,12.023,0,0,1-2.97,4.621,13.241,13.241,0,0,1-5.006,2.914A22.378,22.378,0,0,1,48.43,337.455Zm49.658-55.074a3.946,3.946,0,0,1-2.363-.658,2.533,2.533,0,0,1-.9-2.186,2.563,2.563,0,0,1,.435-1.434,3.54,3.54,0,0,1,1.469-1.151,11.31,11.31,0,0,1,2.738-.811,31.932,31.932,0,0,1,4.242-.435v4.065a11.7,11.7,0,0,1-1.257,1.14,7.6,7.6,0,0,1-1.292.811,6.294,6.294,0,0,1-1.422.493A7.726,7.726,0,0,1,98.088,282.381Zm-48.833,0a3.941,3.941,0,0,1-2.362-.658,2.532,2.532,0,0,1-.905-2.186,2.563,2.563,0,0,1,.435-1.434,3.54,3.54,0,0,1,1.469-1.151,11.309,11.309,0,0,1,2.738-.811,31.932,31.932,0,0,1,4.242-.435v4.065a11.705,11.705,0,0,1-1.257,1.14,7.6,7.6,0,0,1-1.292.811,6.3,6.3,0,0,1-1.421.493A7.731,7.731,0,0,1,49.255,282.381Zm151.176-.446a6.5,6.5,0,0,1-2.5-.482,5.551,5.551,0,0,1-2.15-1.7v-10.81a8.977,8.977,0,0,1,2.385-2.15,5.954,5.954,0,0,1,3.09-.764,4.826,4.826,0,0,1,2.057.423,3.876,3.876,0,0,1,1.539,1.34,6.947,6.947,0,0,1,.976,2.385,16.211,16.211,0,0,1,.341,3.584,14.632,14.632,0,0,1-.4,3.631,7.463,7.463,0,0,1-1.14,2.55,4.638,4.638,0,0,1-1.809,1.5A5.644,5.644,0,0,1,200.431,281.935Zm59.676-2.146h0v-13.6l14.13,5.192c.648.255,1.412.518,2.272.782s1.793.533,2.8.811c-.995.273-1.933.555-2.787.841s-1.593.544-2.228.782l-14.188,5.192Zm-100.025-40.1a13.033,13.033,0,0,1-5.367-1.027,9.23,9.23,0,0,1-3.753-3.082c-1.954-2.726-2.945-6.745-2.945-11.946s.991-9.236,2.945-11.994a9.255,9.255,0,0,1,3.753-3.117,12.9,12.9,0,0,1,5.367-1.039,12.635,12.635,0,0,1,5.291,1.033,9.2,9.2,0,0,1,3.711,3.1c1.939,2.742,2.921,6.785,2.921,12.018s-.983,9.259-2.921,11.97a9.177,9.177,0,0,1-3.711,3.063A12.765,12.765,0,0,1,160.082,239.687Zm51.871-.284a10.026,10.026,0,0,1-4.133-.832,7.548,7.548,0,0,1-3.135-2.707,14.347,14.347,0,0,1-1.972-4.846,32.739,32.739,0,0,1-.689-7.243,29.587,29.587,0,0,1,.807-7.339,14.856,14.856,0,0,1,2.3-5.13,9.475,9.475,0,0,1,3.658-3.017,11.421,11.421,0,0,1,4.821-1,12.877,12.877,0,0,1,5.059,1,11.608,11.608,0,0,1,4.346,3.42v21.85a18.57,18.57,0,0,1-4.845,4.323A12.055,12.055,0,0,1,211.953,239.4Zm-168.758-2.03H25.289V230.4a14.774,14.774,0,0,1,.6-4.451,8.318,8.318,0,0,1,1.742-3.139,7.189,7.189,0,0,1,2.759-1.863,10.106,10.106,0,0,1,3.623-.621,11.144,11.144,0,0,1,3.812.621,7.533,7.533,0,0,1,2.9,1.863,8.308,8.308,0,0,1,1.829,3.139,14.069,14.069,0,0,1,.638,4.451v6.969ZM278.12,218.028H256.08a14.361,14.361,0,0,1,3.705-8.218,10.9,10.9,0,0,1,8.027-2.9,11.048,11.048,0,0,1,4.56.878,9.039,9.039,0,0,1,3.23,2.4,9.958,9.958,0,0,1,1.9,3.539,14.709,14.709,0,0,1,.617,4.3Zm1.232-36.878a4.864,4.864,0,0,1-4.224-1.9,9.472,9.472,0,0,1-1.364-5.532,9.585,9.585,0,0,1,1.364-5.556,4.843,4.843,0,0,1,4.224-1.925,4.777,4.777,0,0,1,4.169,1.914,9.636,9.636,0,0,1,1.354,5.566,9.527,9.527,0,0,1-1.354,5.544A4.8,4.8,0,0,1,279.352,181.15Zm-149.238-1.437a5.418,5.418,0,0,1-4.7-2.119,10.559,10.559,0,0,1-1.519-6.162,10.677,10.677,0,0,1,1.519-6.186,5.394,5.394,0,0,1,4.7-2.144,5.32,5.32,0,0,1,4.642,2.131,10.735,10.735,0,0,1,1.507,6.2,10.611,10.611,0,0,1-1.507,6.174A5.343,5.343,0,0,1,130.114,179.713ZM260.28,132.194a6.086,6.086,0,0,1-2.343-.451,5.193,5.193,0,0,1-2.013-1.595v-10.12a8.4,8.4,0,0,1,2.233-2.012,5.573,5.573,0,0,1,2.893-.715,4.514,4.514,0,0,1,1.924.4,3.626,3.626,0,0,1,1.442,1.255,6.5,6.5,0,0,1,.913,2.233,15.171,15.171,0,0,1,.319,3.355,13.7,13.7,0,0,1-.374,3.4,6.977,6.977,0,0,1-1.067,2.387,4.345,4.345,0,0,1-1.694,1.408A5.29,5.29,0,0,1,260.28,132.194Zm-122.892,0a6.093,6.093,0,0,1-2.343-.451,5.2,5.2,0,0,1-2.013-1.595v-10.12a8.4,8.4,0,0,1,2.233-2.012,5.577,5.577,0,0,1,2.894-.715,4.522,4.522,0,0,1,1.925.4,3.629,3.629,0,0,1,1.441,1.255,6.5,6.5,0,0,1,.913,2.233,15.119,15.119,0,0,1,.32,3.355,13.7,13.7,0,0,1-.374,3.4,6.993,6.993,0,0,1-1.066,2.387,4.354,4.354,0,0,1-1.695,1.408A5.29,5.29,0,0,1,137.388,132.194Zm29.3-10.075H156.484a6.648,6.648,0,0,1,1.716-3.806,5.047,5.047,0,0,1,3.718-1.342,5.118,5.118,0,0,1,2.112.407,4.181,4.181,0,0,1,1.5,1.111,4.623,4.623,0,0,1,.88,1.639,6.833,6.833,0,0,1,.285,1.991ZM50.3,95.232c-3.777,0-6.708-.719-8.712-2.138s-3.019-3.648-3.019-6.624c0-2.93,1.01-5.13,3-6.538s4.93-2.121,8.729-2.121,6.725.714,8.694,2.121,2.966,3.608,2.966,6.538c0,2.976-1,5.2-2.984,6.624S54.079,95.232,50.3,95.232ZM262.7,90.377a8.3,8.3,0,0,1-4.974-1.386c-1.265-.92-1.906-2.469-1.906-4.6a5.4,5.4,0,0,1,.916-3.02,7.441,7.441,0,0,1,3.093-2.425,23.868,23.868,0,0,1,5.767-1.708,67.212,67.212,0,0,1,8.934-.915v8.563a24.707,24.707,0,0,1-2.648,2.4,15.973,15.973,0,0,1-2.723,1.708,13.215,13.215,0,0,1-3,1.039A16.279,16.279,0,0,1,262.7,90.377Zm-102.861,0a8.3,8.3,0,0,1-4.974-1.386c-1.265-.92-1.906-2.469-1.906-4.6a5.4,5.4,0,0,1,.916-3.02,7.441,7.441,0,0,1,3.093-2.425,23.869,23.869,0,0,1,5.767-1.708,67.212,67.212,0,0,1,8.934-.915v8.563a24.708,24.708,0,0,1-2.648,2.4,15.972,15.972,0,0,1-2.723,1.708,13.214,13.214,0,0,1-3,1.039A16.278,16.278,0,0,1,159.835,90.377ZM90.327,39.718h0a5.591,5.591,0,0,1-3.2-1.443A4.244,4.244,0,0,1,86,35.149a4.305,4.305,0,0,1,.342-1.776,3.528,3.528,0,0,1,.934-1.258,3.881,3.881,0,0,1,1.379-.74,5.691,5.691,0,0,1,1.674-.241v8.583Z" transform="translate(-14 -23)"/></svg>