<svg xmlns="http://www.w3.org/2000/svg" width="473.686" height="125.172" viewBox="0 0 473.686 125.172">
  <g id="レイヤー_2" data-name="レイヤー 2" transform="translate(0 -0.001)">
    <g id="レイヤー_1" data-name="レイヤー 1" transform="translate(0 0.001)">
      <path id="パス_2914" data-name="パス 2914" d="M188.468,31.261c-9.195,2.713-18.01,6.02-23.914-5.83H176.1l-10.275-13.8,1.385-1.7a34.18,34.18,0,0,1,4.354,2c3.769,2.358,7.331,5.047,11.174,7.273,4.494,2.6,8.576,1.839,12.105-2.144,4.123-4.61,8.337-9.071,12.534-13.639l-3.051-3.3c4.4,0,7.727-.33,10.951.091,3.439.445,6.3,3.34,5.88,6.267-.66,4.6,1.971,7.817,3.389,12.18l-28.251,9.186c.643,1.979,1.295,4.016,2.21,6.828,3.5-1.369,6.6-2.474,9.623-3.769,7.933-3.381,9.9-2.7,14.728,5.492-4.387,2.845-8.84-2.655-13.548.462-3.6,2.375-8.378,2.985-13.037,4.519V53.971c9.277-1.963,18.191-3.653,27-5.772,4.816-1.163,9.277-1.394,13.961.651,3.5,1.526,4.568,3.769,3.867,7.669l-52.924,9.236-5.294,7.694c1.311,3.925,2.647,7.9,4.065,12.13,7.644-2.878,16.657-2.746,24.45-7.586-.94-4.552-1.822-8.79-2.8-13.483,6.919.635,8.477,5.657,10.4,10.11,5.888,1.179,13.194-3.892,17.738,4.882l-15.717,3.991c2.713,6.952,3.5,13.516,9.475,17.9,4.42-4.074,8.09-9.195,14.126-11.19,3.051,6.341.371,20.492-4.453,24.1-2.738,2.053-5.047,1.023-7.586-.907-7.834-5.962-13.194-13.746-17.317-22.52-.585-1.245-1.089-2.523-1.9-4.453-1.987.948-4.272,1.295-5.212,2.6a98.2,98.2,0,0,1-24.442,24.12c-1.1.75-1.765,2.152-2.7,3.3l2.762,6.919c-2.144,2.367-4.222,2.251-6.119.585-5.261-4.61-10.431-9.343-15.585-14.076a8.073,8.073,0,0,1-1.138-2.111c14.439-2.268,14.439-2.268,15.577-11.363-5.129,2.474-10.044,2.161-14.233-1.064-1.649-1.3-2.408-3.834-3.48-5.657,5.005-.668,8.914-1.468,12.848-1.649,5.937-.256,6.11-3.711,4.9-9.12l-12.1,6.853-1-.825,11.668-16.492c-6.449-1.921-15.2.668-15.668-9.071L187.38,55.25V45.5l-12.213,2.548-7.76-5.995C176.165,39.483,185.8,42.344,188.468,31.261Zm-2.8,67.619,10.407-6.44c-6.432-.907-9.978.239-10.407,6.4Z" transform="translate(-27.849 -0.001)" fill="#091331"/>
      <path id="パス_2915" data-name="パス 2915" d="M4.123,79.763,0,78.856C7.578,59.4,16.039,40.223,20.418,19.714l-4.123-4.469.445-.965,8.024,3.3c1.385,8.766-.973,16.492-3.777,24.838,5.962.371,9.293-4.535,14.744-5.245,1.377-7.422,2.738-14.761,4.123-22.2,4.676.726,6.556,2.977,5.113,8.147-.825,2.894-.47,6.11-.693,9.937A21.661,21.661,0,0,0,48.4,31.869c6.894-3.752,13.194-4.56,17.96,4.511-6.7,5.822-16.377,4.288-25.275,8.246,0,3.1.2,6.712-.058,10.283-.239,3.233-.973,6.432-1.7,10.934,6.523-2.589,11.9-4.808,17.317-6.853a52.322,52.322,0,0,1,7.29-2.062c5.97-1.3,10.316.528,12.369,6.952L48.867,71.146c4.808,5.08,3.785,9.739,2.754,15.082-1.468,7.562-.981,15.5-1.385,24.5l21.96-1.649c5.319-9.763,3.67-22.017,11.734-30.808-1.163,13.194,6.465,26.215,1.344,38.963-9.3.907-17.4,1.88-25.563,2.474-7.471.528-13.581-5.311-15.824-12.312-3.224-10.027.165-19.445,1.006-29.109.091-1.056.305-2.095.668-4.461L31.715,78.2c5.055,9.359,2.243,18.274-2.672,25.563-5.921,8.757-14.843,15.074-24.219,20.615,5.616-15.255,18.405-26.742,22.727-43.7C21.531,82.2,16.27,83.614,10.967,84.8c-4.28.973-5.385,0-6.927-5.228,10.143-3.818,20.31-7.6,30.074-11.24V46.514l-9.227,4.469-5.558-3.7A56.2,56.2,0,0,1,6.778,71.335C4.552,73.867,3.439,76.456,4.123,79.763Z" transform="translate(0 -2.505)" fill="#091331"/>
      <path id="パス_2916" data-name="パス 2916" d="M480.411,38.846,466.83,46.408c4.948-10.036,13.8-17.366,17.465-28.977,1.056,0,3.34-.5,5.236.148,1.7.577,3.843,2.169,4.28,3.736,1.88,6.729-4.173,8.914-6.8,11.3.363,7.009.668,12.872.99,19.2,6.729-2.969,13.7-7.422,20.236,2.284-5.657,1.814-10.6,3.546-15.627,5.005-6.6,1.888-10.168,5.574-8.617,12.584l15.89,12.979c-5.129,3.208-5.129,3.208-15.866-2.936-2.746,6.688-3.092,19.717-.734,27.6-5.442,2.185-9.376.082-9.351-5.377s.643-10.984,1.055-17.375l-19.642,18.142-1.773-1.468c3.768-5.822,7.611-11.594,11.281-17.474s7.207-11.99,11.1-18.471c-4.313-1.74-7.677,4.008-11.363.206-2.581-2.664-6.8-3.867-7.595-8.032,3.752,0,7.158.363,10.456-.1s6.482-1.765,10.638-2.952C478.746,51.38,479.488,45.962,480.411,38.846Z" transform="translate(-79.548 -3.025)" fill="#091331"/>
      <path id="パス_2917" data-name="パス 2917" d="M397.507,76.44l-10.72,20.912c4.346,3.026,8.947,6.6,13.944,9.533,2,1.163,4.849,1.121,7.323,1.171,6.968.148,13.936.049,21.951.049-3.241,7.784-7.422,11.24-14.926,11.38-6.556.124-12.443.734-17.713-4.874-3.892-4.123-9.442-6.762-14.53-10.242-9.4,5.2-15.478,15.429-27.658,17.012,4.189-4.857,8.461-9.665,12.641-14.612a72.759,72.759,0,0,0,6.119-7.949,3.735,3.735,0,0,0-.495-3.62,3.859,3.859,0,0,0-3.661-.264c-2.375,1.476-4.3,3.678-6.663,5.17-2.894,1.831-6.053,3.233-9.071,4.824l-1.179-1.46c2.474-3.612,5.1-7.133,7.422-10.844,5.409-8.683,11.817-15.89,22.768-17.317,2.185-.289,4.239-1.427,6.4-2C392.9,72.308,392.905,72.374,397.507,76.44Zm-13.689,6.985c-.445-.487-.891-.973-1.344-1.451l-9,6.985C381.014,91.374,381.113,91.3,383.818,83.424Z" transform="translate(-61.887 -12.763)" fill="#091331"/>
      <path id="パス_2918" data-name="パス 2918" d="M566.429,113.984c-17.391,1.006-28.532-7.422-37.619-19.873,8.955,3.661,15.758,12.674,27.278,10.926-4.948-27.979-1.031-55.876-2.647-83.9,7.273,1.344,9.392,2.911,9.392,8.246,0,12.13-.759,24.252-.726,36.382,0,10.415.462,20.846,1.2,31.237C563.691,102.167,565.167,107.3,566.429,113.984Z" transform="translate(-92.743 -3.708)" fill="#091331"/>
      <path id="パス_2919" data-name="パス 2919" d="M360.13,58.939c3.843-7.166,7.521-14.019,11.207-20.9-1.295-2.309-4.041-4.948-3.8-7.364.264-2.6,3.224-4.948,5.129-7.339,2.193-2.721,4.519-5.344,7.356-8.691,2.4.924,6.985.421,7.529,6.49.132,1.493,3.455,2.7,5.673,4.288-4.354,4.766-8.51,9.071-12.369,13.631A78,78,0,0,0,370.429,54.04c7.5-3.373,16.666-4.5,18.265-16.435,3.628,3.3,7.232,5.583,9.549,8.815,3.876,5.4,6.919,11.4,10.415,17.317-5.137,3.3-7.685-.049-10.217-2.268s-4.42-4.948-7.125-8.015c-4.593,2.7-8.914,5.2-13.194,7.76C371.411,65.239,366.076,64.76,360.13,58.939Z" transform="translate(-63.16 -2.568)" fill="#091331"/>
      <path id="パス_2920" data-name="パス 2920" d="M337.731,35.086c3.8-.148,8.106-2,10.852,2.177,2.853,4.337-1.592,6.556-3.356,9.434-3.216,5.253-6.679,10.349-9.417,14.538,0,6.762.676,12.93-.157,18.876-1.295,9.318-4.717,18.414-1.715,27.988a5.2,5.2,0,0,1-.1,2.474c-.1.5-.577.924-1.072,1.649-4.214.082-6.952-2.053-6.927-6.325.041-7.29.627-14.588,1.1-21.869.256-3.752.825-7.479.322-11.619-6.119,6.919-10.646,14.926-19.527,20.937.594-2.7.627-4.214,1.253-5.434a233.188,233.188,0,0,1,24.739-39.079c1.723-2.193,2.8-4.89,4.511-7.092,1.971-2.532,1.006-4.7-.2-6.993Z" transform="translate(-53.972 -6.06)" fill="#091331"/>
      <path id="パス_2921" data-name="パス 2921" d="M338.685,30.611a70.486,70.486,0,0,0-6.886,5.566c-6.407,6.6-12.625,13.359-20.269,19.337.363-1.649.363-3.546,1.138-5,4.882-9.211,9.533-18.57,15.1-27.353,2.424-3.826,3.257-7.265,1.74-12.485,2.012.866,2.911,1.253,3.8,1.649,9.219,4.123,9.9,6.143,5.525,15.354a10.679,10.679,0,0,0-.445,3.216Z" transform="translate(-54.636 -1.874)" fill="#091331"/>
      <path id="パス_2922" data-name="パス 2922" d="M534.912,49.417c2.078,8.048-.355,13.507-5.063,18.579-5.1-3.191-4.948-7.595-4.618-12.122.206-2.565.28-5.137.429-8.007C529.337,44.246,531.877,48.551,534.912,49.417Z" transform="translate(-92.091 -8.145)" fill="#091331"/>
      <path id="パス_2923" data-name="パス 2923" d="M252.552,81.016c-2.177,4.354-4.585,3.084-6.655,1.559-2.474-1.839-6.333-3.233-3.571-8.724Z" transform="translate(-42.332 -12.953)" fill="#091331"/>
    </g>
  </g>
</svg>
