<svg id="レイヤー_2" data-name="レイヤー 2" xmlns="http://www.w3.org/2000/svg" width="604.844" height="148.791" viewBox="0 0 604.844 148.791">
  <g id="レイヤー_1" data-name="レイヤー 1" transform="translate(0 0)">
    <path id="パス_2895" data-name="パス 2895" d="M325.342,102.2c-2.9-3.134-5.613-.811-8.235.4-5.334,2.472-10.616,2.79-15.97.188-3.05-1.486-4.971-3.5-3.173-7.56,17.209-.383,32.446-8.436,49.052-12.745-.526-6.437-1.492-11.155-8.066-13.51-6.4-2.3-6.625-6.152-1.577-11.032,2.18-2.1,4.328-4.25,6.418-6.45a28.648,28.648,0,0,0,2.174-3.05c-6.593-.649-9.124,8.176-15.632,5.84-5.088-1.83-11.966,0-15.016-7.229,12.732-3.984,25.126-7.988,37.637-11.681a30.12,30.12,0,0,1,8.981-.889c3,.052,5.263,1.59,5.191,4.166L344.693,61.213l14.38,17.962c5.036-1.382,10.629-2.706,16.087-4.458,6.82-2.2,13.387-2.6,19.811.954-1.3,6.489-1.785,7.281-6.956,6.658-9.734-1.175-18.52,1.564-27.534,5.431,0,3.089-.065,6.08,0,9.085.045,1.369.753,2.771.584,4.082-2.044,15.5-2.213,31.408-9.13,45.9a16.612,16.612,0,0,1-4.984,6.307c-3.121,2.219-7.722.2-10.331-3.958-8.261-13.173-13.627-27.112-11.35-43.082a22.52,22.52,0,0,0-.136-4.121c2.894,4.925,6.035,9.734,8.611,14.8,3.043,6.015,5.607,12.278,8.378,18.436l2.025-.37a108.117,108.117,0,0,0,4.315-43.478c-8.352,1.947-15.749,4.387-22.517,8.546C325.472,100.193,325.537,101.407,325.342,102.2Z" transform="translate(-104.366 -12.103)" fill="#091331"/>
    <path id="パス_2896" data-name="パス 2896" d="M514.2,54.172l12.154,4.581-9.838,9.156,5.354,2.635c1.687-6.859,9.247-9.383,10.169-16.632.143-1.149,3.459-2.6,5.334-2.648,2.265-.039,4.542,1.3,7.411,2.226-1.259,2.829-2.213,4.971-3.335,7.476,1.817,1.376,3.5,2.667,5.782,4.4-4.971,3.3-.286,11.032-8.871,14,6.535,2.362,14.03-1.609,16.139,6.729-.876.487-1.947,1.577-2.661,1.4-6.392-1.629-11.888.649-17.4,3.42a22.609,22.609,0,0,1-7.787,2.6,9.734,9.734,0,0,1-5.989-1.772c-2.6-1.791-4.7-4.27-7.054-6.418a4.687,4.687,0,0,1-1.3-5.892c.993-2.466,1.473-5.367,2.485-9.28l-15.509,6.807c3.764-7.527,11.505-11.356,14.925-18.637L512.777,56.9c-5.652,5.256-11.187,10.642-16.989,15.723a185.536,185.536,0,0,1-18.968,14.7c11.213-16.684,25.814-30.83,36.339-50.4-10.2,4.646-18.053,5.088-21.674-5.775,7.657-1.947,15.34-3.894,23.017-5.892,3.738-.96,5.691-3.082,6.989-7.086A24.789,24.789,0,0,0,520.8,0c7.547.032,13.854.195,18.332,6.21l-2.407,11.032c5.691.649,10.136-1.772,14.8-2.992a65.676,65.676,0,0,1,7.969-2.005c4.095-.532,7.625.454,9.254,5.626l-5.113,1.7c-8.118,2.661-16.184,5.483-24.367,7.917a22.485,22.485,0,0,0-13.011,9.5C522.5,42.7,518.416,48.2,514.2,54.172ZM528.8,80.6l-5.659-8.436c-1.486,4.633-3.193,8.235-2.323,13.264Z" transform="translate(-167.403 0)" fill="#091331"/>
    <path id="パス_2897" data-name="パス 2897" d="M15.95,121.7l-4.977,3.193L9.9,124.1c.519-1.369.746-2.953,1.6-4.069C18.637,110.6,25.645,101.005,33.322,92c3.569-4.179.156-7.138.48-12.407C21.31,88.9,12.862,100.733,0,107.293c7.514-14.925,18.819-27.319,27.534-42.7L13.108,47.606c8.436-1.077,14.276,2.09,20.162,6.561l4.776-5.418c3.076.7,6.671,1.084,9.915,2.356,4.3,1.694,5.431,5.191,2.1,8.378-6.781,6.489-6.489,12.764-3.452,21.207,3.842,10.623,3.407,22.063,2.485,33.51-1.09,13.588-6.677,25.412-11.5,37.637-1.733,4.4-3.816,5.191-8.436,3.485-6.9-2.6-10.22-8.254-11.681-14.925-.818-3.705-.474-7.67-.746-11.492-.169-2.433-.506-4.854-.766-7.261,3.673,6.548,7.346,13.076,11.6,20.629,5.879-12.18,9.838-23.854,7.748-37.637Z" transform="translate(0 -16.639)" fill="#091331"/>
    <path id="パス_2898" data-name="パス 2898" d="M84.93,69.758c7.878-9.9,15.9-17.521,20.96-27.689,2.6,0,5.659-.759,7.956.221,2.2.941,4.186,3.465,5.133,5.762.389.934-1.947,3.426-3.465,4.653-5.308,4.257-10.811,8.274-16.223,12.381,2.8,4.8,6.262,4.27,10.22,2.81,2.764-1.025,5.8-2.057,8.657-1.947,6.6.3,10.182,5.133,9.831,11.745-.506,9.675-7.69,19.506-17.748,19.046a7.943,7.943,0,0,0-.857,2.187c-.136,1.6-.045,3.245-.045,5.055a10.53,10.53,0,0,0,2.4,0c2.33-.766,4.542-2.141,6.924-2.433,6.34-.779,10.422,3.361,9.851,9.734-.532,6.022-.824,12.128-2.077,18.02-1.8,8.475-4.51,9.864-13.984,8.384.649-1.817,1.3-3.634,2.051-5.6-1.038-.071-1.739-.331-1.986-.1a36.594,36.594,0,0,0-4,4.153c-2.8,3.582-6.619,3.8-10.467,2.972-3.614-.779-2.842-4.542-4.14-6.872-3.894-7.008-1.908-13.446.13-19.987,2.842-9.13,3.063-18.468,2.81-27.858a43.333,43.333,0,0,0-1.213-7.333C94.573,71.867,91.906,68.531,84.93,69.758Zm26.606,48.961c-5.256-1.609-7.424-.824-6.3,5.094ZM110.322,85.3c2.018-2.9,2.018-2.9,0-4.9Z" transform="translate(-29.817 -14.671)" fill="#091331"/>
    <path id="パス_2899" data-name="パス 2899" d="M168.036,81.762c-1.986-3.465-1.259-6.087,2.219-8.2,3.894-2.356,7.625-4.971,11.823-7.742-5.944-4.808-15.314-3.069-17.248-13.413,7.346.837,12.978-2.3,18.909-4.906,4.309-1.882,9.675-1.454,15.016,4.633l-9.364,4.38,1.3,2.842c2.323.844,4.6,2.109,7,2.42,2.693.344,5.5-.383,8.248-.292,8.092.253,13.627,7,10.733,14.568-2.3,6.022-6.34,11.557-10.454,16.619-1.493,1.843-5.431,1.694-9.331,2.745-.7,23.2-2.336,46.982-11.791,69.7-.7-28.137-1.4-56.274-2.1-84.638l-15.224,1Zm28.033-.474c6.074-2.271,9.954-9.312,6.541-12.3L196.088,71.1Z" transform="translate(-57.869 -16.331)" fill="#091331"/>
    <path id="パス_2900" data-name="パス 2900" d="M699.85,149.781c8.962,1.123,18.371,1.622,27.462,3.6,15.061,3.245,29.986,7.261,44.853,11.382,11.1,3.069,21.778,3.978,33.322,1.09s23.841-3.342,35.8-4.86c.188.649.376,1.233.571,1.843-2.323,1.194-4.542,2.706-6.982,3.53-10.707,3.608-21.317,7.722-32.284,10.246a53.5,53.5,0,0,1-21.317.526c-11.59-2.187-22.829-6.21-34.282-9.2-16.132-4.211-31.589-11.9-48.967-9.928-3.543.4-7.047,1.246-10.6,1.564-4.542.415-9.455,1.343-12.329-5.535,3.718-.96,7.385-1.207,10.266-2.836s4.984-4.64,7.878-7.5c-5.152-5.113-6.016-10.188-1.441-16.106-3.167-1.1-5.36-1.888-7.573-2.6-2.6-.857-4.465-2.154-3.5-5.951l23.718-1.3c-2.719,4.542-4.581,7.385-6.152,10.383-2.291,4.341-5.191,8.494.454,13.063C700.343,142.428,699.532,146.588,699.85,149.781Z" transform="translate(-237.015 -41.34)" fill="#091331"/>
    <path id="パス_2901" data-name="パス 2901" d="M815.264,80.476c6.041,5.749,9.39,13.426,12.44,20.869,2.479,6.048-1.161,9.546-7.969,9.468a71,71,0,0,0-7.437.13c-20.584,1.882-28.844-9.007-32.277-26.508-2.687-13.686-.058-27.456.889-41.174.11-1.544.169-3.1.266-4.88C761.391,47.53,753.4,46.972,750.45,36.5c.467-.234,1.077-.8,1.389-.649,9.507,4,16.917-1.421,24.743-5.308,4.127-2.051,8.391-4.374,12.836-5.107,6.307-1.038,8.183,1.746,5.561,7.677-7.443,16.839-6.113,34.535-5,52.089.311,4.971,2.862,10.136,5.5,14.536,3.316,5.516,8.858,5.795,15.074,3.589.766-7.411,1.544-14.925,2.323-22.42Z" transform="translate(-263.469 -8.855)" fill="#091331"/>
    <path id="パス_2902" data-name="パス 2902" d="M569.365,184.758c-4.607,1.525-8.91,3.056-13.283,4.348a11.383,11.383,0,0,1-5.451.649c-3.394-.772-4.043-3.757-1.531-6.158.98-.934,2.395-1.415,3.413-2.317a24.658,24.658,0,0,0,2.518-3.063c-10.279-6.535-10.272-6.528,0-12.446.376-.214.461-.941.857-1.849-2.4-1.849-4.886-3.757-8.092-6.21,6.749-5.062,14.03-6.781,20.9-9.176a47.991,47.991,0,0,1,12.18-2.128c5.081-.376,6.489.889,6.087,6.2-.766,10.694-1.823,21.414-5.5,31.6-1.3,3.6-2.648,7.138-4,10.837C570.358,196.27,569.651,195.484,569.365,184.758Zm6.84-29.552c-5.438,1.259-9.649,2.563-12.18,6.989,2.466,1.551,4.64,2.907,6.664,4.173-.649,4.542-7.093,6.087-4.257,11.168,6.372.461,6.885.506,7.346-2.33C574.81,168.794,575.368,162.344,576.2,155.206Z" transform="translate(-192.155 -51.379)" fill="#091331"/>
    <path id="パス_2903" data-name="パス 2903" d="M748.9,122.642c-7.787-.188-10.143-2.836-9.734-10.233.324-5.723.779-11.434,1.181-17.2-4.127-2.375-9.734-.221-12.219-6.009a35.034,35.034,0,0,0,3.563-.539c6.489-1.733,8.436-4.711,7.32-11.35-.539-3.18-1.415-6.3-2.271-10.045h9.734c.837,3.984,1.648,7.891,2.317,11.032,2.79,3.686,8.715-.532,9.734,5.088-.357.61-.578,1.421-.9,1.467-6.755.986-8.916,5.191-8.767,11.577C749.058,105.186,748.9,113.914,748.9,122.642Z" transform="translate(-255.633 -23.617)" fill="#091331"/>
    <path id="パス_2904" data-name="パス 2904" d="M565,52.16c11.032,1.635,19.922,4.8,28.234,9.974,5.094,3.173,10.779,5.386,16.223,8.053,2.875,1.415,6.8,2.232,5.023,6.879-1.239,3.245-4.367,3.991-9.208,1.81-4.2-1.888-8.079-4.5-12.174-6.651-5.84-3.063-11.466-6.612-17.6-8.819C570.107,61.478,567.979,57.507,565,52.16Z" transform="translate(-198.361 -18.312)" fill="#091331"/>
    <path id="パス_2905" data-name="パス 2905" d="M535.252,189.819c-6.535,1.155-9.507-.214-11.46-5.016q-3.144-7.787-6.262-15.483C528.51,165.932,536.141,174.1,535.252,189.819Z" transform="translate(-181.695 -59.179)" fill="#091331"/>
    <path id="パス_2906" data-name="パス 2906" d="M707.579,81.5c-8.436,3.673-12.544,1.992-16.119-6.132C698.235,73.047,703.725,74.994,707.579,81.5Z" transform="translate(-242.759 -26.13)" fill="#091331"/>
    <path id="パス_2907" data-name="パス 2907" d="M164.97,99.34q3.082,5.36,6.165,10.727c-8.228,1.655-12.076-1.538-14.224-12.686l8.345,2.239Z" transform="translate(-55.088 -34.188)" fill="#091331"/>
  </g>
</svg>
