<svg xmlns="http://www.w3.org/2000/svg" width="447" height="146.802" viewBox="0 0 447 146.802">
  <g id="レイヤー_2" data-name="レイヤー 2" transform="translate(0 0.008)">
    <g id="レイヤー_1" data-name="レイヤー 1" transform="translate(0 -0.008)">
      <path id="パス_2908" data-name="パス 2908" d="M111.057,100.266c.455-9.7.939-20.2,1.468-31.306-1.981.543-3.464.807-4.829,1.321-6.208,2.363-11.477-.294-12.857-6.737a3.067,3.067,0,0,1,1.644-2.422c4.4-1.468,9-2.686,13.415-4.256a3.625,3.625,0,0,0,1.849-2.8q-.1-18.038-.616-36.061a4.4,4.4,0,0,0-1.468-3.229c-1.717-1.027-2.348-1.952-1.747-3.992.338-1.086-.264-2.451-.455-3.875,8.072.881,15.5-1.82,23.145-3.141,4.52-.778,9.5-2.128,13.106,2.5a12.857,12.857,0,0,1,1.864,3.3c.866,2.363-.1,3.522-2.6,3.9-6.032.91-12.094,1.717-18.023,3.1-3.992.925-.778,3.244-.675,4.4C130,20.292,135.494,19.338,141,19.073a6.458,6.458,0,0,1,7.192,5.783,3.963,3.963,0,0,1-1.835,3.273c-6.957,2.055-14,3.816-21.237,5.724v3.17a6.282,6.282,0,0,0,1.321.147c4.271-.411,8.542-1.057,12.828-1.189a6.722,6.722,0,0,1,4.4,1.879,7.471,7.471,0,0,1,2.29,4.785c0,.837-2.612,1.835-4.168,2.363-5.064,1.747-10.2,3.244-15.264,4.975-.675.235-1.086,1.277-1.614,1.937l.514.954c5.122-.719,10.274-1.7,15.367-2.113,7.206-.572,14.471-1,21.692-.881,2.26,0,4.755,1.7,6.663,3.229,3.053,2.466,2.935,3.273.822,6.282-15.279,0-29.809,2.935-44.354,6.619,5.651,2.246,11.184,4.843,16.967,6.561,2.1.631,5.064-.382,7.206-1.468,4.785-2.392,9.335-5.284,13.928-8.043a6.355,6.355,0,0,1,7.926,1.893c2.26,3.361,1.981,5.753-1.2,7.823-4.021,2.642-8.175,5.108-12.74,7.94,4.315,3.1,8.351,6.12,12.5,8.968,9.878,6.751,20.049,13,32.289,14.163a84.758,84.758,0,0,0,13.782-.1c4.066-.279,4.036-.528,5.709,3.919,1.174-2.069,2.084-3.757,3.082-5.386A146.593,146.593,0,0,0,241.9,62.458c3.346-12.475-5.166-23.219-17.3-22.749-3.258,9.481-6.179,18.83-9.76,27.886a14.281,14.281,0,0,1-9.364,8.938,4.828,4.828,0,0,1-2.935.279,24.833,24.833,0,0,1-11.844-11.639c-3.552-7.515-2.128-14.3,2.216-20.548,5.122-7.338,12.182-12.241,21.4-13.209,14.075-1.541,26.066,2.246,35.034,13.738,6.458,8.292,6.3,17.7,3.889,27.123a103.222,103.222,0,0,1-14.163,32.95c-6.473,9.5-12.549,19.285-21.634,26.609-5.078,4.095-10.274,8.058-15.44,12.02a15.822,15.822,0,0,1-3.332,1.321c7.338-11.815,14.119-22.881,20.959-33.933-9.07,4.931-17.818,2.04-26.418-.47-14.471-4.212-26.639-12.74-38.732-21.34-9.026-6.311-18.86-11.008-30.029-15.44V102.82l10.024-5.68c3.6,5.137,1.468,9.848-1.321,13.738a164.1,164.1,0,0,1-13.092,15,3.6,3.6,0,0,1-3.067.646c-5.871-1.688-9.305-3.405-8.5-11.1.719-6.737.484-7.016-6.326-7.427s-13.209-.352-19.873-.161c-1.468,0-2.935,1.468-4.506,2.113-1.336.514-3.17,1.468-4.124.939-4.887-2.539-9.261-.294-13.679,1.042-4.139,1.248-7.911,2.818-12.607,1.585s-4.8-4.3-4.653-8.322c5.783-1.717,11.742-3.552,17.612-5.21s5.724-1.57,6.3-7.94c.763-9.041,1.864-18.067,2.789-27.108.205-2,.264-4.021.4-6.135-8.806,1.7-13.694-1.336-14.31-8.938,3.669-1.38,7.338-2.935,11.243-4.139,2.524-.793,3.787-1.952,3.933-4.8C70.96,35.7,71.87,30.654,69.4,25.487c-.983-2.04-.47-4.8-.66-7.515C78.768,20.908,82.6,26.206,82.76,36.627c.088,6.12.132,5.988,5.871,7.881a9.379,9.379,0,0,1,4.4,3.332c1.468,2.143,1.027,4.139-1.923,4.829l-.367.1c-2.833.587-6.766.279-8.16,2.011s-.338,5.636-.631,8.542C81.1,72.131,80.1,80.937,79.208,89.743c-.264,2.5-.338,5-.47,7ZM200.19,65.6c6.458-5.2,7.544-12.769,10.054-20.269C202.949,48.4,197.254,60.257,200.19,65.6Z" transform="translate(19.964 1.398)" fill="#091331"/>
      <path id="パス_2909" data-name="パス 2909" d="M261.917,78.445c0,5.636.1,11.2,0,16.761a48.683,48.683,0,0,1-7.1,25.171c-2.451,3.875-6.208,6.927-9.437,10.274-.778.822-1.893,1.336-2.642,2.172-2.759,3.1-6.4,3.229-8.806-.132a48.434,48.434,0,0,1-8.806-21.781c3.317,3.42,5.871,6.032,8.41,8.7,1.629,1.747,2.8,1.835,4.741,0A33.493,33.493,0,0,0,248.84,99.668c.7-4.4,1.292-8.806,1.937-13.327l-1.013-.411c-3.537,3.185-7.03,6.414-10.611,9.569-5.21,4.565-10.494,8.938-17.612,10.274-5.21.925-6.106.572-8.014-4.565a168.785,168.785,0,0,0,32.451-29.6c-4.9,4.4-9.437,9.305-14.824,13-4.051,2.789-9.1,4.4-13.914,5.68-1.262.352-3.317-2.084-5.357-3.493,4.931-4.653,9.613-8.894,14.09-13.356,5.342-5.3,10.67-10.641,15.66-16.247,3.332-3.757,2.8-6.032-1.468-9.789-3.86,4.873-7.6,9.834-11.624,14.559a44.03,44.03,0,0,1-8.2,8,11.3,11.3,0,0,1-7.471,1.468c-1.468-.235-3.112-2.642-3.552-4.4-.308-1.233.969-3.214,2.055-4.4,4.3-4.535,9.041-8.689,13.209-13.371a104.288,104.288,0,0,0,7.338-10.641l-5.049-4.623c.088-.264,0-.778.308-.925,7-4.667,14.4-8.336,23.057-8.234A7.691,7.691,0,0,1,255,26.636c1.145,1.086,1.468,3.067,2.128,4.653a14.926,14.926,0,0,1-4.4,1.629c-4.858.191-6.649,3.464-8.16,7.647,7.837,4.256,10.421,12.27,13.62,20.973,5.592-3.214,10.876-6.164,16.145-9.261,2.2-1.306,5.871-.47,7.867,2.025a4.726,4.726,0,0,1-1,6.986c-2.246,1.673-4.535,3.317-6.913,4.814s-4.873,2.774-7.955,4.506c24.29,20.871,48.331,41.374,82.792,42.225v1.717a66.441,66.441,0,0,1-8.982,3.112c-10.1,1.937-19.506-.646-28.591-4.917a161.445,161.445,0,0,1-43.091-29.721,61.5,61.5,0,0,0-5.386-4.4A6.95,6.95,0,0,0,261.917,78.445Z" transform="translate(97.873 11.624)" fill="#091331"/>
      <path id="パス_2910" data-name="パス 2910" d="M41.77,65.645c-1.468,1.629-2.319,2.5-3.1,3.39-6.106,7.016-12.064,14.119-18.361,21.017C15.059,95.791,9.423,97.421,0,96.364,17.51,78.223,31.658,57.91,46.262,37.95l-1.218-1.585c-5.577,2.363-11.448,4.212-16.6,7.338-3.669,2.172-6.428,1.468-9.643,0s-4.77-4.036-4.227-8.615c10.112-3.64,20.548-7.573,31.2-11.169,6.883-2.334,14.677.235,17.832,4.975,1.761,2.627,1.35,4.682-.308,6.972-3.141,4.33-6.208,8.718-8.806,12.4,5.43,6.252,10.729,12.079,15.646,18.2,1.159,1.468,1.057,3.86,1.468,5.871-2.055,0-4.55.822-6.106,0a132.276,132.276,0,0,1-11.536-8.146c0,1.071.088,2.5,0,3.9-.91,14.31-1.879,28.62-2.745,42.93-.176,3.053-1.38,3.728-4.4,3.214-5.078-.866-7.485-3.17-7.206-8.336.646-11.742,1.468-23.483,2.113-35.225C41.829,69.182,41.77,67.979,41.77,65.645Z" transform="translate(0 10.789)" fill="#091331"/>
      <path id="パス_2911" data-name="パス 2911" d="M206.723,86.823c-4.4,5.871-8.16,12.182-16.952,11.448,2.642-6.414,4.931-12.343,7.544-18.126a9.217,9.217,0,0,0-1.042-10.274,28.913,28.913,0,0,1-4.124-7.25,9.393,9.393,0,0,1,.308-5.093,52.253,52.253,0,0,1,1.879-5.665,19.548,19.548,0,0,1-3.611-3.082c-2.422-3.493-2.187-3.9,1.952-4.7,2.657-.5,4.741-1.468,5.269-4.594a63.99,63.99,0,0,1,2.172-7.661c6.781.837,7.735,1.732,8.2,7.749,4.168,1.556,3.86-1.937,4.3-4.11a59.372,59.372,0,0,0,.543-7.338c5.43,1.174,8.689,3.9,9.789,9.158.22,1.042,1.541,1.879,2.407,2.73.352.338,1,.4,1.306.749,1.468,1.747,2.935,3.552,4.4,5.342-2.011.675-4.007,1.835-6.032,1.908-2.818.088-4.521.983-5.445,3.669-2.686,7.72-5.563,15.367-8.072,23.145a6.854,6.854,0,0,0,.925,4.623c1.82,3.522,4.051,6.825,5.871,10.274.939,1.805,2.51,3.992,0,5.783-1.893,1.306-6.517.132-7.867-2.025S208,89.2,206.723,86.823Zm-3.566-21.384c1.923-5.709,3.566-10.641,5.313-15.88C204.154,50.674,200.661,60.786,203.156,65.439Z" transform="translate(88.474 13.168)" fill="#091331"/>
      <path id="パス_2912" data-name="パス 2912" d="M217.369,19.817c6.942,5.21,12.373-.294,19.168-2.627-4.095-1.879-3.156-4.183-2.246-7.118.822-2.627.176-5.709.176-9.158a6.913,6.913,0,0,1,7.867.675,11.213,11.213,0,0,1,3.831,6.663c.117,2.334-1.908,4.77-3.112,7.427,7.162,0,13.9-.117,20.548,0a25.391,25.391,0,0,1,8.234,1.306c7.339,2.818,7.691,7.338,4.975,13.752S268,39.543,261.825,41.231c-1.042.294-2.583-1.233-3.992-1.967L266.4,24.587c-1.849-.132-3.009-.205-4.168-.308-10.685-.954-20.445,2.084-29.794,6.883-.9.47-1.805,1.277-2.73,1.306-3.522.1-3.478,2.348-3.038,4.785.382,2.172,1.159,4.242-1.981,5.225s-4.7-.925-5.871-2.935C216.429,35.786,214.419,26.129,217.369,19.817Z" transform="translate(100.973 0.008)" fill="#091331"/>
      <path id="パス_2913" data-name="パス 2913" d="M23.55.951C36.113.188,44.861,12.164,45.976,19.3c.484,3.185-.587,4.2-3.875,3.655-4.212-.7-7.617-2.216-9.085-6.854-.983-2.935-3.42-5.254-5.108-7.911C26.456,6.015,25.208,3.74,23.55.951Z" transform="translate(11.014 0.44)" fill="#091331"/>
    </g>
  </g>
</svg>
