<svg xmlns="http://www.w3.org/2000/svg" width="526.029" height="198.74" viewBox="0 0 526.029 198.74"><defs><style>.a{fill:#091331;}.b{fill:none;}</style></defs><g transform="translate(-0.002 0.01)"><g transform="translate(0.002 -0.01)"><path class="a" d="M503.788,66.323q1.056,25.528,2.118,51.177l1.412.425,10.63-15L510.561,90.2c5.71-1.693,8.884,1.283,12.817,4.556L534.753,75.29,533.7,73.946c-3.888,1.982-7.9,3.8-11.64,5.991s-8.952.4-9.917-3.888c-.22-.972.281-2.87.964-3.174,5.5-2.437,10.972-5.224,16.773-6.614,3.8-.911,8.269-.159,12.255.706,4.632,1,6.325,4.875,4.814,9.431-.759,2.354-1.754,4.639-2.878,7.593,5.08-2.02,9.476-4.055,14.062-5.52a22.544,22.544,0,0,1,19.279,2.323c3.554,2.172,4.313,4.844,1.9,8.193-6.454,8.952-14.7,15.383-26.021,16.986-1.64.235-3.311.266-4.966.395.539,2.1.7,4.389,1.686,6.249,3.493,6.6,9.112,9.651,16.568,10.934,13.523,2.316,26.363-.911,39.385-3.2,2.1-.372,2.483-1.587,2.278-3.516a215.087,215.087,0,0,1,5.778-76.591c2.407-9.279,6.249-18.185,9.408-27.274C624.9,8.722,626.3,4.447,627.8-.01c4.153,1.519,3.311,5.186,3.037,7.821-1.04,11.344-2.68,22.627-3.8,33.964-.577,5.824-.486,11.708-.759,17.555-.106,2.134-.812,4.275-.653,6.371.456,5.923,1.26,11.822,1.845,17.73.494,5.019.569,10.091,1.367,15.049,1.382,8.61,1.906,17.464,7.593,24.9,2.035,2.673-.888,6.758-5.125,7.251a21.435,21.435,0,0,1-6.424,0c-8.853-1.7-17.3.979-25.892,2.118-12.149,1.61-24.374,1.663-36.128-1.519-12.6-3.447-20.828-12.263-25.11-24.692-.9-2.6-2.384-5-4.055-8.443-4.951,6.522-9.112,12.149-13.4,17.639-3.554,4.556-7.342,8.96-10.8,13.591a9.871,9.871,0,0,0-2.134,5.315c-.106,10.327.091,20.653.228,30.98.046,3.159-3.371,4.905-6.75,3.159a46.407,46.407,0,0,1-5.991-3.956q-9.7-7.084-19.324-14.283A5.809,5.809,0,0,1,473.469,147l19.879,7.661c.3-4.632.759-9.074.714-13.508,0-1-2.027-1.974-3.242-3.075,6.166-3.607,3.66-9.962,3.47-15.391-.365-10.569-1.519-21.109-2.346-31.663,0-.205-.273-.387-.759-1.025-3.2,2.954-6.834,2.976-10.3.562-2.232,4.655-4.161,9.112-6.469,13.341-2.43,4.472-6.72,6.393-10.63,5.209-2.225-.668-3.143-1.519-1.595-4.039a56.257,56.257,0,0,0,8.125-38.033,2.564,2.564,0,0,1,.327-.759l20.934,4.5V34.591l-1.162-.63c-2.369,2.278-4.632,4.723-7.145,6.834-1.435,1.2-3.614,2.969-4.875,2.582-2.187-.668-4.085-2.658-5.725-4.442-.41-.44.228-2.62.995-3.265,5.695-4.746,11.1-10.091,17.464-13.667,4.4-2.46,12.149,1.093,11.678,7.935-.516,7.388-.114,14.844-.114,23.083,5.672-3.219,10.365-5.733,14.913-8.5a110.735,110.735,0,0,1,39.932-14.586c7.122-1.162,14.336-1.731,20.8,2.817,4.153,2.923,4.973,6.143,3.037,10.774-2.339,5.718-6.629,9.742-11.39,13.189-3.8,2.749-8.352,3.083-12.612,2.65l12.908-22.1c-.326-.41-.653-.812-.972-1.222a84.29,84.29,0,0,0-9.309,1.929c-8.163,2.612-16.234,5.528-24.366,8.238-3.91,1.306-7.935,2.278-11.8,3.705-1.033.38-1.716,1.815-2.445,2.847-.569.82-.759,1.936-1.45,2.62C515.443,59.891,510.956,64.462,503.788,66.323Zm41.086,31.936c5.072,3.1,18.223-5.649,21.572-13.918C557.486,86.558,551.412,92.26,544.874,98.259Z" transform="translate(-111.064 0.01)"/><path class="a" d="M350.215,120.4c-4.677,8.535-8.58,16.743-13.485,24.3a300.5,300.5,0,0,1-18.679,25.414c-2.088,2.566-5.923,3.721-9.021,5.558L351.642,84.98l-.486-.9c-6.074,2.536-12.536,4.419-18.1,7.79-7.267,4.4-10.759.585-13.667-4.609-2-3.576-2.688-7.889-3.964-11.875l.979-1.139c2.278.6,4.5,1.344,6.788,1.746,1.951.342,4.184.9,5.93.3q14.761-5.1,29.286-10.85a7.342,7.342,0,0,0,3.994-4.29c2.225-9.317,4.024-18.732,5.953-28.094.486-2.339.926-4.692,1.465-7.449a17.327,17.327,0,0,1,13.728,7.13c.759.995.531,3.037.2,4.556-1.579,7.031-3.371,14.085-5.254,22.02,4.951-1.283,9.233-2.468,13.546-3.485q7.912-1.868,15.877-3.493c5.786-1.192,11,.828,15.869,3.493,1.8.987,3.174,3.121,4.2,5.027,1.427,2.642-.167,5.163-3.037,4.609-8-1.519-15.224,1.519-22.62,3.311-8.815,2.164-17.532,4.723-26.241,7.267a6.287,6.287,0,0,0-3.447,2.566c-6.424,11.549-12.7,23.181-18.983,34.8-.532.979-.942,2.02-1.245,2.7,2.787,1.936,5.2,4.032,7.98,5.315,1.1.509,3.273-.41,4.556-1.276,10.509-7.084,21.815-11.185,34.6-8.671a22.7,22.7,0,0,1,9.658,4.632c5.74,4.7,6.264,9.689,2.483,16.082-1.587,2.688-3.364,5.262-5.027,7.851,2.437,1.336,4.928,2.278,6.887,3.88,2.43,2,1.838,4.556-1.192,4.738-10.213.759-18.709,5.543-27.335,10.364-4.693,2.62-12.111-1.913-12.21-7.183,0-.562.676-1.283,1.215-1.678a14.958,14.958,0,0,1,2.984-1.625c11.906-4.89,18.983-14.677,25.125-25.2,2.278-3.842,1.352-5.315-3.242-5.2a40.911,40.911,0,0,0-30.995,15c-1.192,1.4-1.374,4.275-.98,6.272.759,3.683,2.369,7.175,3.311,10.835a4.3,4.3,0,0,1-.82,3.713c-.638.6-3.037.509-3.523-.129-2.726-3.516-5.718-7.024-7.472-11.04C355.325,135.83,353.107,128.488,350.215,120.4Z" transform="translate(-74.385 -6.157)"/><path class="a" d="M72.013,149.21c2.278,14.693-4.738,26.333-12.536,37.639-7.13,10.319-15.5,19.582-25.816,26.811-4.814,3.364-10.175,5.961-15.186,8.861,8.861-9.628,17.973-18.876,26.325-28.74,8.914-10.471,15.907-22.172,17.935-36.135a41.655,41.655,0,0,0,.091-10.152,6.583,6.583,0,0,0-2.574-4.229,21.572,21.572,0,0,0-6.834-3.037c-7.1-1.784-6.978-1.61-9.377,5.049-2.02,5.687-4.313,11.283-6.689,16.834-.425,1-1.845,1.587-2.62,2.21,1.792,5.232,1.792,5.232,8.96,4.624-1.519,1.746-2.908,4.791-4.556,4.92-2.126.167-5.027-1.473-6.538-3.235-2.278-2.688-3.986-2.984-6.94-1.124A73.271,73.271,0,0,1,14.9,174.889c-3.888,1.617-8.284,1.8-11.541-.759-4.085-3.235-4.3-8.466-1.4-13.364A65.583,65.583,0,0,1,20.813,140.85c1.982-1.412,2.938-2.794,2.878-5.224-.137-5-.046-10.008-.046-15.452-6.469,2.278-12.05,2.1-14.115-5.9l22.2-15.444,6.758,3.986c3.151-2.217,7.267-4.738,12.149-2.5,1.724.759,2.976,2.612,4.45,3.964-1.1,1.192-1.982,2.779-3.333,3.493-4.609,2.445-9.339,4.685-14.108,6.834-2.278,1.025-3.705,2.506-4.024,4.989l-1.944,14.958c4.434,1,5.877-1.686,7.54-5.133,2.156,1.2,4.07,2.384,6.074,3.364a17.844,17.844,0,0,0,4.556,1.61c9.689,1.663,17.707,5.74,22.3,14.951Zm-47.92-2.278c-6.94,6.773-13.88,12.415-16.188,21.777.9.167,1.063.251,1.139.205,5.444-3.516,10.919-6.986,16.279-10.63.562-.387.721-1.838.577-2.718-.4-2.566-1.048-5.118-1.807-8.618Z" transform="translate(-0.002 -23.781)"/><path class="a" d="M277.98,183.991c3.235-4.161,6.91-8.064,9.552-12.574,1.967-3.356,2.809-7.441,3.751-11.3.759-3.037-1.268-5.019-3.759-6.325-2.961-1.519-4.943-.645-6.257,2.46-1.891,4.48-3.857,8.937-5.839,13.371-.235.532-.759,1.245-1.215,1.314-5.93.919-11.906,2.825-17.768-.213-7.191-3.721-7.95-10.759-1.754-15.778,8.026-6.484,17.175-10.327,27.487-9.263,7.153.759,13.584,3.91,16.955,11.1a18.875,18.875,0,0,1-11.9,26.295c-2.992.919-6.135,1.336-9.21,1.989Zm-6.074-28.375-10.63,6.834c8.466,1.716,9.431-.03,10.661-6.834Z" transform="translate(-60.298 -35.016)"/><path class="a" d="M129.894,139.243c2.278,1.222,4.556,2.5,6.879,3.637.8.387,2.027.9,2.627.577,5.178-2.817,10.775-5.254,12.84-11.61l-7.593-8.238.979-1.519a50.276,50.276,0,0,1,6.576,2.566,21.166,21.166,0,0,1,3.971,3.485c5.869,5.52,5.156,11.329-2.278,14.427-4.48,1.853-9.438,2.544-14.222,3.8.486,4.229,1.048,9.043,1.67,14.336,7.008-.357,14.867-2.566,21.974,4.487a37.856,37.856,0,0,1-5.429,1.693q-6.91.995-13.872,1.632c-3.3.3-4.472,2.043-4.617,5.224-.175,3.8-.4,7.813-4.761,9.438-1.67.623-3.88,1.2-5.383.615-4.692-1.822-9.97-2.984-12.361-8.352-1.238-2.779-1.4-5.125,1.632-6.682a86.818,86.818,0,0,1,9.871-4.685c2.278-.82,3.219-2.065,3.371-4.282.471-6.651.759-13.28-2.718-19.453Z" transform="translate(-27.937 -29.379)"/><path class="a" d="M200.253,128.233c-1.3-.645-2.194-.812-2.589-1.344-1.268-1.708-2.354-3.554-3.516-5.315a23.3,23.3,0,0,1,4.184-1.686c3.736-.759,7.145-2.8,11.344-1.579,4.73,1.374,6.074,4.161,2.817,7.752-12.908,14.237-19.787,31.663-26.576,49.172-.4,1.033-1.374,2.62-2.065,2.612a5.611,5.611,0,0,1-3.91-1.625c-2.422-2.976-3.576-6.507-1.739-10.205,3.736-7.532,7.426-15.11,11.6-22.392C192.8,138.378,196.556,133.609,200.253,128.233Z" transform="translate(-42.677 -28.377)"/><path class="a" d="M94.978,154.043c-.068-8.724,5.7-14.791,10.068-21.792-2.969-2.187-6.651-4.017-5.862-9.112,4.875,2.992,8.573,1.162,12.149-1.921,3.964-3.44,8.14-3.629,11.45-.706,1.519,1.329,1.8,2.4.456,4.434-6.788,10.251-13.364,20.653-19.848,31.131-1.929,3.113-4.047,3.394-6.249.357a31.525,31.525,0,0,0-2.232-2.506Z" transform="translate(-22.846 -28.507)"/><path class="a" d="M242.282,174.083c1,4.313-.759,6.834-5.011,7.191-8.99.714-16.257-4.032-19.271-12.582l-.251-.714c-2.764-8.231-2.756-8.216,3.91-13.667,1.238-1.01,2.331-2.2,3.356-3.181a44.994,44.994,0,0,1-4.336-5.315c-.919-1.519-.243-3.037,1.708-2.491a44.268,44.268,0,0,1,9.7,3.546c2.559,1.4,4.708,3.971,3.28,7.229s-4.655,3.8-7.715,3.235c-2.5-.471-4.2,0-5.361,2.149a2.673,2.673,0,0,0-.258,2.012c1.169,2.741,2.551,5.383,3.8,8.109,1.6,3.629,4.753,4.723,8.284,4.89A64.651,64.651,0,0,0,242.282,174.083Z" transform="translate(-51.995 -34.463)"/><path class="a" d="M557.09,29.57c3.979.972,7.092,1.465,9.962,2.582a4.061,4.061,0,0,1,1.929,3.478c-.235.995-2.088,1.967-3.364,2.179C562.268,38.37,559.672,35.971,557.09,29.57Z" transform="translate(-134.092 -7.11)"/><path class="b" d="M26.6,162.2c.759,3.5,1.4,6.074,1.807,8.641.144.881,0,2.331-.577,2.718-5.361,3.637-10.835,7.107-16.279,10.63-.076.046-.243-.038-1.139-.205C12.718,174.615,19.658,168.973,26.6,162.2Z" transform="translate(-2.507 -39.034)"/></g></g></svg>